<?xml version="1.0" encoding="UTF-8"?><svg id="Layer_1" xmlns="http://www.w3.org/2000/svg" viewBox="0 0 477.79 440.63"><defs><style>.cls-1,.cls-2{fill:#fff;}.cls-3,.cls-4{fill:#ee8162;}.cls-5{fill:#93c13e;}.cls-5,.cls-6,.cls-7,.cls-2,.cls-4{fill-rule:evenodd;}.cls-6{fill:#1d1d1b;}.cls-7{fill:#e41b49;}</style></defs><path class="cls-1" d="m42.18,235.14c0,.06-.02.11-.05.16-.03.05-.08.08-.16.11-.08.03-.17.05-.29.07-.12.02-.27.03-.46.03-.18,0-.33,0-.46-.03-.13-.02-.22-.04-.3-.07-.07-.03-.13-.06-.16-.11-.03-.04-.05-.1-.05-.16v-12.53h-.02l-5.06,12.59c-.02.05-.05.09-.09.13-.04.04-.1.07-.18.1-.08.03-.17.05-.28.06-.11.01-.23.02-.38.02s-.29,0-.4-.02c-.11-.01-.2-.03-.28-.06-.08-.03-.13-.06-.17-.09-.04-.04-.07-.08-.08-.12l-4.85-12.59h-.01v12.53c0,.06-.02.11-.05.16-.03.05-.08.08-.16.11-.08.03-.18.05-.3.07-.12.02-.28.03-.47.03s-.34,0-.46-.03c-.12-.02-.22-.04-.29-.07-.07-.03-.12-.06-.15-.11-.03-.04-.04-.1-.04-.16v-13.23c0-.31.08-.53.25-.67.17-.13.35-.2.55-.2h1.18c.24,0,.45.02.63.07.18.04.34.11.47.21.14.1.25.22.34.37.09.15.17.32.24.52l4.12,10.42h.06l4.27-10.39c.08-.22.17-.41.27-.57.1-.16.2-.28.32-.37.11-.1.25-.16.39-.2.14-.04.31-.06.5-.06h1.23c.11,0,.22.02.32.05.1.03.19.09.26.16.07.07.13.16.17.27.05.11.07.24.07.39v13.23h0Zm12.18.01c0,.06-.01.11-.04.15-.03.04-.07.08-.14.11-.06.03-.15.05-.26.06-.11.02-.24.02-.39.02-.17,0-.31,0-.41-.02-.11-.01-.19-.04-.26-.06-.06-.03-.11-.07-.13-.11-.02-.04-.03-.09-.03-.15v-1.32c-.57.63-1.13,1.08-1.69,1.37-.55.29-1.12.43-1.69.43-.67,0-1.23-.11-1.68-.33-.46-.22-.83-.52-1.11-.91-.28-.38-.48-.82-.61-1.33-.12-.51-.18-1.13-.18-1.85v-6.07c0-.06.01-.11.04-.15.03-.04.08-.08.15-.11.07-.03.17-.06.29-.07.12-.01.27-.02.44-.02s.33,0,.44.02c.12.01.21.03.28.07.07.03.12.07.15.11.03.04.05.09.05.15v5.83c0,.58.04,1.05.13,1.41.08.35.21.65.39.9.17.25.4.44.66.58.27.14.58.2.93.2.46,0,.92-.16,1.37-.49.46-.33.94-.8,1.45-1.43v-7c0-.06.01-.11.04-.15.03-.04.08-.08.15-.11.07-.03.17-.06.28-.07.12-.01.27-.02.45-.02s.33,0,.44.02c.12.01.21.03.28.07.07.03.12.07.15.11.03.04.05.09.05.15v10.01h0Zm12.59-5.17c0,.88-.09,1.66-.28,2.36-.19.69-.46,1.29-.83,1.77-.36.49-.82.86-1.36,1.12-.54.26-1.16.39-1.85.39-.3,0-.57-.03-.82-.09-.25-.06-.5-.15-.74-.28-.24-.13-.48-.28-.71-.48-.24-.19-.49-.42-.75-.68v5.01c0,.06-.02.11-.05.16-.03.05-.08.08-.14.11-.07.03-.16.05-.28.06-.12.02-.27.02-.46.02s-.33,0-.45-.02c-.12-.02-.22-.04-.28-.06-.07-.03-.12-.07-.15-.11-.03-.05-.04-.1-.04-.16v-13.98c0-.07.01-.12.03-.16.02-.04.07-.08.13-.1.07-.03.15-.05.26-.06.1-.01.23-.02.38-.02.16,0,.28,0,.39.02.1.01.18.03.25.06.07.03.11.07.14.11.03.04.04.09.04.16v1.34c.3-.31.6-.58.88-.81.28-.23.57-.42.85-.57.28-.15.58-.27.88-.35.3-.08.61-.12.95-.12.72,0,1.34.14,1.85.42.51.28.93.67,1.25,1.16.32.49.56,1.06.71,1.71.15.65.22,1.34.22,2.06h0Zm-1.91.21c0-.51-.04-1.01-.12-1.49-.08-.48-.21-.9-.4-1.27-.19-.37-.44-.67-.76-.89s-.72-.33-1.19-.33c-.24,0-.47.03-.7.11-.23.07-.46.18-.7.33-.24.15-.49.35-.74.6-.26.25-.53.56-.82.92v3.98c.5.62.98,1.09,1.43,1.42.46.33.93.49,1.43.49.46,0,.85-.11,1.18-.33.33-.22.6-.52.8-.89.2-.37.35-.79.45-1.25.1-.46.14-.93.14-1.39h0Zm13.87-.21c0,.88-.09,1.66-.28,2.36-.19.69-.46,1.29-.83,1.77-.36.49-.82.86-1.36,1.12-.54.26-1.16.39-1.85.39-.3,0-.57-.03-.82-.09-.25-.06-.5-.15-.74-.28-.24-.13-.48-.28-.71-.48-.24-.19-.49-.42-.75-.68v5.01c0,.06-.02.11-.05.16-.03.05-.08.08-.14.11-.07.03-.16.05-.28.06-.12.02-.27.02-.45.02s-.33,0-.45-.02c-.12-.02-.22-.04-.28-.06-.07-.03-.12-.07-.15-.11-.03-.05-.04-.1-.04-.16v-13.98c0-.07.01-.12.03-.16.02-.04.07-.08.13-.1.07-.03.15-.05.26-.06.1-.01.23-.02.38-.02.16,0,.28,0,.39.02.1.01.18.03.25.06.07.03.11.07.14.11.03.04.04.09.04.16v1.34c.3-.31.6-.58.88-.81.28-.23.57-.42.85-.57.28-.15.58-.27.88-.35.3-.08.61-.12.95-.12.72,0,1.34.14,1.85.42.51.28.93.67,1.25,1.16.32.49.56,1.06.71,1.71.15.65.22,1.34.22,2.06h0Zm-1.91.21c0-.51-.04-1.01-.12-1.49-.08-.48-.21-.9-.4-1.27-.19-.37-.44-.67-.76-.89-.32-.22-.72-.33-1.19-.33-.24,0-.47.03-.7.11-.23.07-.46.18-.7.33-.24.15-.49.35-.74.6-.26.25-.53.56-.82.92v3.98c.5.62.98,1.09,1.43,1.42.46.33.93.49,1.43.49.46,0,.85-.11,1.18-.33.33-.22.6-.52.8-.89.2-.37.35-.79.45-1.25.09-.46.14-.93.14-1.39h0Zm12.21,4.97c0,.09-.03.16-.09.2-.06.05-.14.08-.25.1-.1.02-.25.03-.46.03-.19,0-.35-.01-.46-.03-.11-.02-.2-.05-.25-.1-.05-.05-.08-.11-.08-.2v-1c-.44.47-.92.83-1.46,1.09-.54.25-1.11.38-1.71.38-.53,0-1.01-.07-1.43-.2-.43-.14-.79-.34-1.09-.6-.3-.26-.54-.58-.7-.96-.17-.38-.25-.81-.25-1.29,0-.57.11-1.05.35-1.47.23-.42.56-.76.99-1.04.43-.27.96-.48,1.58-.62.62-.14,1.32-.2,2.1-.2h1.38v-.78c0-.38-.04-.72-.12-1.02-.08-.3-.21-.54-.39-.74-.18-.2-.42-.35-.71-.44-.29-.1-.64-.15-1.07-.15-.45,0-.86.05-1.21.16-.36.11-.68.23-.94.36-.27.13-.5.25-.68.36-.18.11-.32.16-.4.16-.06,0-.11-.02-.16-.05-.05-.03-.08-.07-.12-.13-.03-.06-.06-.13-.07-.22-.02-.1-.02-.19-.02-.31,0-.18.01-.33.04-.44.03-.11.09-.21.19-.3.1-.09.27-.21.52-.34.24-.13.53-.25.85-.36.31-.11.66-.2,1.04-.27.38-.07.76-.11,1.14-.11.72,0,1.33.08,1.83.24.5.16.91.41,1.22.72.31.32.54.71.68,1.17.14.47.21,1.01.21,1.63v6.75h0Zm-1.82-4.58h-1.57c-.5,0-.94.04-1.31.13-.37.08-.68.21-.92.38-.24.17-.42.36-.54.6-.11.24-.17.5-.17.81,0,.52.16.93.49,1.24.33.31.79.46,1.38.46.48,0,.93-.12,1.34-.37.41-.24.84-.62,1.29-1.12v-2.13h0Zm7.61-9.81c0,.23-.01.44-.03.63-.02.19-.06.37-.11.54-.05.17-.12.35-.2.51-.09.17-.19.34-.32.52l-1.52,2.28c-.04.05-.08.1-.13.14-.05.05-.11.08-.18.11-.07.03-.15.05-.24.06-.09.01-.21.02-.35.02-.13,0-.23,0-.32-.02-.09-.01-.15-.03-.18-.06-.04-.03-.06-.06-.06-.11,0-.04,0-.1.04-.17l1.48-3.05v-1.41c0-.19.02-.35.06-.47.04-.12.1-.21.19-.28.09-.07.2-.11.33-.13.13-.02.3-.03.49-.03.18,0,.34.01.48.03.13.02.24.06.33.13.08.06.15.16.19.28.04.12.06.27.06.47h0Zm8.16,11.65c0,.51-.09.97-.28,1.37-.19.4-.46.74-.8,1.01-.35.27-.76.48-1.24.62-.48.14-1.01.21-1.59.21-.36,0-.69-.03-1.02-.08-.32-.05-.61-.12-.87-.21-.25-.08-.47-.17-.65-.26-.18-.09-.31-.17-.39-.25-.08-.07-.14-.18-.18-.31-.04-.13-.06-.32-.06-.55,0-.14,0-.26.02-.35.01-.1.03-.17.05-.24.02-.06.06-.1.09-.13.04-.03.09-.04.14-.04.08,0,.2.05.36.15.16.1.36.21.59.33.23.12.51.23.83.33.32.1.68.15,1.1.15.31,0,.59-.03.84-.1.25-.06.47-.16.66-.3.19-.13.33-.3.43-.5.1-.2.15-.44.15-.72s-.07-.52-.22-.71c-.14-.19-.33-.36-.57-.51-.24-.15-.5-.28-.8-.39-.3-.11-.6-.24-.91-.36-.31-.13-.62-.27-.92-.43-.3-.16-.57-.35-.8-.58-.24-.23-.42-.5-.57-.82-.14-.32-.22-.7-.22-1.15,0-.39.08-.77.23-1.13.15-.36.38-.68.68-.94.31-.27.69-.49,1.14-.65.46-.16.99-.24,1.6-.24.27,0,.53.02.8.07.27.05.5.11.72.17.22.07.4.14.55.22.15.08.27.15.35.22.08.06.13.11.16.16.03.05.05.1.06.15.01.05.02.12.03.2.01.08.02.18.02.3,0,.13,0,.23-.02.33-.01.09-.03.17-.06.22-.03.06-.06.1-.1.13-.04.03-.08.04-.12.04-.07,0-.16-.04-.29-.13-.13-.08-.29-.17-.49-.26-.2-.1-.44-.18-.71-.26-.27-.08-.58-.13-.93-.13-.31,0-.59.03-.82.11-.24.07-.43.17-.58.3-.15.13-.27.28-.35.46-.08.17-.12.37-.12.57,0,.29.08.53.22.73.15.2.34.37.58.52.24.15.51.28.81.4.3.12.61.24.93.36.32.13.63.27.93.42.31.16.58.35.82.57.24.22.43.49.57.8.14.31.22.68.22,1.11h0Z"/><path class="cls-1" d="m272.1,338.59s0,.1,0,.17c0,.07-.01.15-.03.23-.02.08-.04.17-.07.26-.03.09-.06.17-.1.24-.04.07-.09.12-.15.17-.06.05-.12.07-.19.07h-3.73l-2.3,11.49c-.01.06-.04.1-.08.14-.04.04-.09.07-.16.1-.07.02-.17.05-.29.06-.12.02-.26.02-.43.02s-.31,0-.42-.02c-.11-.02-.19-.04-.25-.06-.06-.02-.1-.06-.12-.1-.02-.04-.02-.09-.01-.14l2.28-11.49h-3.7c-.09,0-.16-.03-.19-.09-.04-.06-.05-.15-.05-.26,0-.05,0-.11.01-.18.01-.07.02-.15.04-.24.02-.09.04-.17.07-.26.02-.08.06-.16.1-.23.04-.07.08-.13.13-.17.05-.05.11-.07.18-.07h9.22c.09,0,.15.03.19.1.03.06.05.15.05.26h0Zm110.02,5.3c0,.47-.11.89-.33,1.27-.22.37-.56.69-1.02.96-.46.27-1.05.47-1.78.61-.72.14-1.59.22-2.6.22h-1.09c-.05.22-.08.44-.1.65-.02.21-.02.41-.02.59,0,.68.17,1.2.51,1.57.34.36.89.54,1.65.54.44,0,.83-.03,1.18-.1.35-.06.65-.13.9-.21.26-.07.47-.14.63-.21.16-.07.28-.1.34-.1.06,0,.11.02.14.07.03.05.05.11.05.19,0,.07,0,.15-.02.24-.01.09-.03.19-.06.29-.03.1-.07.2-.11.28-.05.09-.09.16-.15.22-.08.08-.23.16-.43.24-.21.08-.46.15-.74.21-.29.07-.6.12-.94.16-.34.04-.68.06-1.03.06-.6,0-1.14-.07-1.6-.21-.46-.14-.84-.35-1.14-.63-.3-.28-.53-.64-.68-1.06-.15-.42-.23-.92-.23-1.5,0-.44.04-.92.13-1.43.08-.51.22-1.01.4-1.51.19-.5.42-.98.72-1.43.29-.46.64-.86,1.05-1.21.41-.35.87-.63,1.4-.84.53-.21,1.14-.32,1.8-.32.57,0,1.06.07,1.46.22.4.14.73.32.98.55.26.22.44.47.56.75.12.28.17.55.17.82h0Zm-1.74.15c0-.35-.14-.63-.41-.85-.27-.21-.66-.32-1.16-.32-.44,0-.83.08-1.18.23-.34.15-.64.36-.91.62-.26.26-.49.56-.68.9-.19.35-.34.71-.45,1.09h1.04c.72,0,1.31-.05,1.79-.13.48-.09.87-.21,1.16-.36.29-.15.49-.34.61-.54.12-.21.18-.42.18-.65h0Zm11.01-1.21c0,.12-.01.25-.03.38-.02.13-.06.25-.11.36-.05.11-.11.21-.17.28-.07.07-.14.11-.22.11-.1,0-.2-.05-.3-.15-.1-.1-.24-.21-.4-.33-.17-.12-.38-.23-.64-.33-.26-.1-.58-.15-.98-.15-.44,0-.83.09-1.16.27-.34.18-.64.42-.88.71-.25.29-.46.62-.62.98-.16.37-.3.74-.4,1.11-.1.37-.17.74-.22,1.09-.05.35-.07.66-.07.92,0,.7.15,1.23.46,1.59.31.36.77.54,1.38.54.44,0,.82-.06,1.14-.16.32-.11.59-.23.81-.37.22-.14.41-.26.55-.37.14-.11.27-.16.38-.16.05,0,.09.02.12.08.03.05.04.13.04.22,0,.08,0,.18-.02.29-.01.11-.03.23-.06.35-.03.12-.07.23-.11.33-.04.1-.1.2-.18.28-.08.09-.23.19-.43.31-.21.12-.44.23-.71.33-.27.1-.56.18-.87.24-.31.07-.64.1-.97.1-1.1,0-1.92-.28-2.47-.84-.54-.56-.81-1.39-.81-2.49,0-.42.03-.87.11-1.37.07-.49.19-.99.36-1.49.17-.5.39-.99.65-1.46.27-.47.59-.89.98-1.25.39-.36.84-.66,1.35-.87.51-.22,1.1-.33,1.76-.33.27,0,.53.02.79.07.25.05.49.1.71.18.22.08.42.17.6.28.18.12.32.21.42.3.1.09.16.16.19.22.02.06.03.13.03.2h0Zm9.19,8.4c-.01.06-.04.1-.07.14-.03.03-.08.07-.15.1-.07.02-.16.05-.27.06-.12.01-.25.02-.42.02s-.3,0-.41-.02c-.11-.01-.2-.03-.25-.06-.06-.03-.1-.06-.12-.1-.02-.04-.02-.08-.01-.14l1.62-8.07h-4.76l-1.03,5.12c-.03.14-.05.3-.07.48-.02.17-.03.32-.03.44,0,.35.07.6.22.76.15.16.38.24.71.24.19,0,.35-.01.48-.05.14-.03.25-.06.35-.1.1-.03.18-.07.26-.1.08-.03.14-.05.2-.05s.1.02.13.06c.03.04.05.11.05.21,0,.09-.01.19-.02.29-.02.1-.04.21-.07.31-.03.1-.06.2-.1.28-.04.08-.08.15-.13.19-.05.05-.14.1-.24.15-.11.05-.24.09-.38.13-.14.04-.29.07-.45.09-.16.02-.32.03-.48.03-.38,0-.72-.04-1-.12-.28-.08-.51-.21-.71-.38-.19-.17-.33-.39-.43-.65-.09-.26-.14-.58-.14-.95,0-.08,0-.17.01-.27,0-.1.02-.2.03-.31.02-.11.03-.22.05-.33.02-.11.03-.21.06-.31l1.03-5.17h-1.28c-.08,0-.13-.02-.17-.07-.04-.05-.06-.13-.06-.26,0-.09.01-.21.03-.33.02-.13.05-.24.09-.35.04-.11.09-.2.16-.28.07-.07.14-.11.23-.11h1.29l.44-2.19s.03-.09.07-.13c.04-.04.09-.08.16-.11.07-.03.16-.05.27-.07.11-.01.25-.02.42-.02s.3,0,.41.02c.11.01.19.03.25.07.06.03.09.07.11.11.02.04.02.08,0,.13l-.44,2.19h5.92c.21,0,.34.05.39.14.06.09.07.22.02.4l-1.78,8.93h0Zm2.64-12.31c-.03.19-.08.35-.14.48-.06.13-.13.23-.23.31-.09.08-.21.13-.35.17-.14.03-.31.05-.52.05s-.37-.02-.5-.05c-.13-.03-.22-.09-.28-.17-.06-.08-.09-.19-.1-.31,0-.13,0-.29.04-.48.03-.19.08-.35.14-.48.06-.13.14-.23.23-.32.1-.08.22-.14.36-.17.14-.03.31-.05.51-.05s.37.01.5.05c.13.03.22.09.28.17.06.09.09.19.1.32,0,.13-.01.29-.05.48h0Zm9.82,6.14c0,.51-.05,1.02-.14,1.55-.09.52-.24,1.03-.43,1.52-.2.49-.44.95-.74,1.38-.3.43-.65.8-1.06,1.12-.41.32-.87.58-1.38.76-.52.19-1.09.28-1.73.28s-1.22-.08-1.68-.23c-.47-.16-.85-.39-1.15-.69-.3-.3-.52-.67-.66-1.1-.14-.44-.22-.93-.22-1.48,0-.51.05-1.02.14-1.55.09-.52.23-1.03.43-1.51.2-.49.45-.94.74-1.38.3-.43.65-.81,1.05-1.13.41-.32.87-.58,1.38-.76.52-.19,1.09-.28,1.73-.28s1.22.08,1.68.24c.47.16.85.39,1.16.69.3.3.53.67.67,1.1.14.44.21.93.21,1.47h0Zm-1.78.1c0-.34-.03-.65-.11-.92-.07-.28-.19-.51-.36-.69-.17-.19-.38-.34-.65-.44-.27-.1-.59-.15-.97-.15-.41,0-.79.07-1.12.22s-.64.35-.9.59c-.27.25-.49.54-.69.88-.2.33-.36.69-.49,1.07-.13.38-.22.77-.28,1.17-.06.4-.09.79-.09,1.17,0,.34.04.65.11.92.08.28.2.51.37.7.17.19.39.34.65.44.27.1.59.15.98.15.42,0,.79-.07,1.12-.22.33-.15.62-.35.89-.6.26-.25.49-.55.68-.88.19-.34.35-.69.48-1.08.13-.38.22-.77.28-1.17.06-.4.09-.79.09-1.17h0Zm12.2-1.11c0,.24-.01.48-.04.71-.02.23-.06.47-.11.72l-1.15,5.76c-.01.06-.04.1-.07.14-.03.03-.08.07-.15.1-.07.02-.16.05-.27.06-.11.01-.25.02-.42.02s-.3,0-.4-.02c-.11-.01-.19-.03-.24-.06-.06-.03-.1-.06-.12-.1-.01-.04-.02-.08-.01-.14l1.13-5.69c.05-.21.08-.42.1-.61.02-.2.02-.37.02-.53,0-.42-.09-.75-.27-1.01-.17-.26-.47-.38-.89-.38-.36,0-.73.1-1.11.31-.38.21-.73.5-1.05.86-.33.36-.61.8-.87,1.3-.26.5-.44,1.05-.56,1.64l-.81,4.12c-.01.06-.03.1-.07.14-.04.03-.09.07-.15.1-.07.02-.16.05-.28.06-.11.01-.25.02-.42.02s-.31,0-.41-.02c-.1-.01-.19-.03-.24-.06-.06-.03-.09-.06-.11-.1-.01-.04-.02-.08,0-.14l1.84-9.23s.02-.09.06-.13c.03-.04.08-.08.14-.1.07-.03.15-.05.25-.06.1-.01.22-.01.36-.01s.26,0,.35.01c.09.01.16.03.21.06.05.02.08.06.1.1.01.04.02.08.01.13l-.35,1.76c.1-.23.27-.48.5-.74.23-.26.51-.5.83-.72.32-.22.67-.4,1.06-.54.39-.14.79-.22,1.21-.22.45,0,.84.07,1.14.21.31.14.56.32.75.55.19.23.33.5.41.8.08.3.12.61.12.94h0Zm-145.5,7.18c0,.06-.03.1-.06.14-.03.04-.08.07-.14.1-.06.02-.15.04-.25.06-.1.01-.22.02-.37.02-.13,0-.24,0-.34-.02-.09-.01-.16-.03-.22-.06-.05-.02-.08-.06-.1-.1-.02-.04-.02-.09,0-.14l.34-1.73c-.11.23-.28.48-.52.73-.23.26-.51.49-.83.71-.32.22-.67.39-1.05.53-.38.14-.76.2-1.15.2-.46,0-.85-.06-1.17-.19-.31-.13-.57-.3-.77-.52-.19-.22-.33-.49-.42-.79-.09-.3-.13-.64-.13-1,0-.22.02-.45.05-.69.03-.24.07-.48.12-.71l1.13-5.77s.04-.09.07-.13c.03-.04.09-.08.16-.1.07-.03.16-.05.27-.06.11-.01.25-.01.41-.01s.3,0,.41.01c.11.01.19.03.25.06.06.02.09.06.11.1.02.04.02.08.01.13l-1.12,5.71c-.04.17-.07.36-.09.55-.02.19-.03.38-.03.58s.02.39.06.56c.04.17.1.31.2.43.09.12.21.22.35.29.15.07.32.1.53.1.36,0,.73-.1,1.11-.31.38-.21.73-.5,1.06-.86.33-.37.62-.81.88-1.31.26-.51.45-1.06.57-1.66l.8-4.08s.03-.09.07-.13c.04-.04.09-.08.16-.1.07-.03.16-.05.28-.06.11-.01.25-.01.41-.01s.3,0,.41.01c.1.01.19.03.25.06.06.02.09.06.11.1.02.04.02.08.01.13l-1.84,9.23h0Zm12.11-7.18c0,.24-.01.48-.04.71-.02.23-.06.47-.11.72l-1.15,5.76c-.01.06-.04.1-.07.14-.03.03-.08.07-.15.1-.07.02-.16.05-.27.06-.11.01-.25.02-.42.02s-.3,0-.4-.02c-.11-.01-.19-.03-.24-.06-.06-.03-.1-.06-.12-.1-.01-.04-.02-.08-.01-.14l1.13-5.69c.05-.21.08-.42.1-.61.02-.2.02-.37.02-.53,0-.42-.09-.75-.27-1.01-.17-.26-.47-.38-.89-.38-.36,0-.73.1-1.11.31-.38.21-.73.5-1.05.86-.32.36-.61.8-.87,1.3-.26.5-.44,1.05-.56,1.64l-.81,4.12c-.01.06-.03.1-.07.14-.03.03-.09.07-.15.1-.07.02-.16.05-.28.06-.11.01-.25.02-.42.02s-.31,0-.41-.02c-.1-.01-.18-.03-.24-.06-.06-.03-.09-.06-.11-.1-.01-.04-.02-.08,0-.14l1.84-9.23s.02-.09.06-.13c.03-.04.08-.08.14-.1.07-.03.15-.05.25-.06.1-.01.22-.01.36-.01s.26,0,.35.01c.09.01.16.03.21.06.05.02.08.06.1.1.01.04.02.08.01.13l-.35,1.76c.1-.23.27-.48.5-.74.23-.26.51-.5.83-.72.32-.22.67-.4,1.06-.54.39-.14.79-.22,1.21-.22.45,0,.84.07,1.14.21.31.14.56.32.75.55.19.23.33.5.41.8.08.3.12.61.12.94h0Zm10.59-.15c0,.47-.11.89-.33,1.27-.22.37-.56.69-1.02.96-.46.27-1.05.47-1.78.61-.72.14-1.59.22-2.6.22h-1.09c-.05.22-.08.44-.1.65-.02.21-.02.41-.02.59,0,.68.17,1.2.51,1.57.34.36.89.54,1.65.54.44,0,.83-.03,1.18-.1.35-.06.65-.13.9-.21.26-.07.47-.14.63-.21.16-.07.28-.1.34-.1.06,0,.11.02.14.07s.05.11.05.19c0,.07,0,.15-.02.24-.01.09-.03.19-.06.29-.03.1-.07.2-.11.28-.05.09-.09.16-.15.22-.08.08-.23.16-.43.24-.21.08-.46.15-.74.21-.29.07-.6.12-.94.16-.34.04-.68.06-1.03.06-.6,0-1.14-.07-1.6-.21-.46-.14-.84-.35-1.14-.63-.3-.28-.53-.64-.68-1.06-.15-.42-.23-.92-.23-1.5,0-.44.04-.92.13-1.43.08-.51.22-1.01.4-1.51.19-.5.42-.98.72-1.43.29-.46.64-.86,1.05-1.21.41-.35.87-.63,1.4-.84.53-.21,1.14-.32,1.8-.32.57,0,1.06.07,1.46.22.4.14.73.32.98.55.26.22.44.47.56.75.12.28.18.55.18.82h0Zm-1.74.15c0-.35-.14-.63-.41-.85-.27-.21-.66-.32-1.16-.32-.44,0-.83.08-1.18.23-.34.15-.64.36-.91.62-.26.26-.49.56-.68.9-.19.35-.34.71-.45,1.09h1.04c.72,0,1.31-.05,1.79-.13.48-.09.87-.21,1.16-.36.29-.15.49-.34.61-.54.12-.21.18-.42.18-.65h0Zm10.6,7.18c-.02.12-.09.2-.22.25-.13.05-.33.07-.62.07-.14,0-.26,0-.35-.02-.09-.01-.16-.03-.21-.06-.06-.02-.09-.05-.11-.09-.02-.04-.02-.09,0-.15l.33-1.72c-.09.22-.25.46-.48.72-.23.26-.51.49-.82.71-.32.21-.67.39-1.06.53-.39.14-.79.21-1.19.21s-.75-.05-1.05-.16c-.29-.11-.54-.25-.74-.43-.2-.18-.36-.38-.49-.62-.13-.24-.22-.48-.3-.73-.07-.25-.12-.5-.14-.75-.02-.25-.04-.48-.04-.69,0-.39.04-.84.11-1.33.08-.49.2-.98.36-1.48.16-.5.37-.98.63-1.45.26-.48.57-.89.93-1.26.36-.36.78-.66,1.25-.88.48-.23,1.01-.34,1.61-.34.29,0,.57.03.83.1.26.06.5.15.71.27.21.11.4.25.58.41.17.16.34.32.48.49l1.05-5.21s.03-.09.06-.14c.04-.05.09-.08.15-.1.07-.02.16-.05.27-.06.11-.02.25-.02.42-.02s.3,0,.41.02c.1.02.19.04.25.06.06.02.1.06.12.1.02.05.02.09,0,.14l-2.72,13.62h0Zm-.34-6.78c-.32-.47-.67-.83-1.04-1.08-.37-.25-.79-.37-1.25-.37-.36,0-.69.08-.98.25-.29.17-.55.39-.79.67-.23.28-.43.6-.6.96-.17.36-.31.74-.42,1.12-.11.38-.19.76-.25,1.14-.05.38-.08.72-.08,1.04,0,.66.11,1.17.34,1.52.22.35.59.53,1.09.53.37,0,.75-.1,1.13-.31.38-.2.73-.49,1.06-.85.33-.36.62-.79.87-1.29.25-.5.44-1.04.56-1.63l.34-1.7h0Zm14.77-2.32c0,.06,0,.13-.01.2,0,.07-.02.14-.04.22-.02.07-.05.15-.08.22-.03.08-.07.14-.11.2-.04.06-.08.1-.13.14-.04.03-.1.05-.16.05h-2.35l-1.03,5.12c-.03.14-.05.3-.07.48-.02.17-.03.32-.03.44,0,.35.07.6.22.76.15.16.39.24.72.24.18,0,.34-.01.48-.05.14-.03.25-.06.35-.1.1-.03.18-.07.26-.1.07-.03.14-.05.19-.05.05,0,.09.02.13.06.03.04.05.11.05.21,0,.09,0,.19-.02.29-.02.1-.04.21-.07.31-.03.1-.06.2-.1.28-.04.08-.09.15-.13.19-.06.05-.14.1-.24.15-.11.05-.23.09-.38.13-.14.04-.29.07-.45.09-.16.02-.32.03-.47.03-.38,0-.72-.04-1-.12-.28-.08-.52-.21-.71-.38-.19-.17-.33-.39-.43-.65-.09-.26-.14-.58-.14-.95,0-.08,0-.17.01-.27,0-.1.02-.2.03-.31.02-.11.04-.22.05-.33.02-.11.03-.21.06-.31l1.04-5.17h-1.28c-.08,0-.14-.02-.17-.07-.04-.05-.06-.13-.06-.26,0-.09.01-.21.03-.33.02-.13.05-.24.09-.35.04-.11.09-.2.16-.28.06-.07.14-.11.23-.11h1.29l.44-2.19s.03-.09.07-.13c.04-.04.09-.08.16-.11.07-.03.16-.05.27-.07.11-.01.25-.02.42-.02s.3,0,.4.02c.1.01.19.03.24.07.06.03.1.07.11.11.02.04.02.08.02.13l-.44,2.19h2.35c.1,0,.17.04.2.11.03.08.05.16.05.26h0Zm9.51,2.93c0,.51-.05,1.02-.14,1.55-.09.52-.24,1.03-.43,1.52-.2.49-.44.95-.74,1.38-.3.43-.65.8-1.06,1.12-.41.32-.87.58-1.38.76-.52.19-1.09.28-1.73.28s-1.22-.08-1.68-.23c-.47-.16-.85-.39-1.15-.69-.3-.3-.52-.67-.66-1.1-.14-.44-.22-.93-.22-1.48,0-.51.05-1.02.14-1.55.09-.52.23-1.03.43-1.51.2-.49.45-.94.74-1.38.3-.43.65-.81,1.05-1.13.41-.32.87-.58,1.38-.76.52-.19,1.09-.28,1.73-.28s1.22.08,1.68.24c.47.16.85.39,1.16.69.3.3.53.67.67,1.1.14.44.21.93.21,1.47h0Zm-1.78.1c0-.34-.03-.65-.11-.92-.07-.28-.19-.51-.36-.69-.17-.19-.38-.34-.65-.44-.27-.1-.59-.15-.98-.15-.41,0-.79.07-1.12.22s-.64.35-.9.59c-.27.25-.49.54-.69.88-.2.33-.36.69-.49,1.07-.13.38-.22.77-.28,1.17-.06.4-.09.79-.09,1.17,0,.34.04.65.11.92.08.28.2.51.37.7.17.19.39.34.65.44.27.1.59.15.98.15.42,0,.79-.07,1.12-.22.33-.15.63-.35.89-.6.26-.25.49-.55.68-.88.19-.34.35-.69.48-1.08.13-.38.22-.77.28-1.17.06-.4.09-.79.09-1.17h0Zm18.18-3.8c0,.36-.04.74-.13,1.14-.08.39-.22.78-.41,1.16-.19.38-.42.74-.7,1.08-.28.34-.62.64-1.03.89-.4.26-.87.46-1.39.61-.52.15-1.14.22-1.85.22h-1.83l-.95,4.78s-.04.09-.07.13c-.03.04-.09.07-.17.1-.08.02-.17.05-.29.06-.11.02-.25.02-.43.02-.15,0-.29,0-.4-.02-.11-.01-.2-.03-.26-.06-.06-.02-.11-.06-.13-.1-.02-.04-.03-.09-.01-.14l2.43-12.23c.06-.27.17-.47.34-.58.17-.12.37-.17.6-.17h2.61c.34,0,.65.01.91.03.26.02.52.06.76.12.37.08.7.21,1,.38.3.17.55.38.75.63.21.25.36.54.47.87.11.32.16.69.16,1.09h0Zm-1.87.18c0-.43-.11-.79-.31-1.09-.21-.3-.53-.52-.97-.64-.16-.05-.35-.08-.54-.09-.2-.01-.41-.02-.64-.02h-1.66l-1.05,5.32h1.68c.49,0,.9-.06,1.23-.16.34-.11.63-.25.88-.43.25-.18.47-.39.64-.63.17-.24.31-.49.43-.74.11-.26.19-.52.24-.78.05-.27.08-.51.08-.73h0Zm10.85,2.36c0,.47-.11.89-.33,1.27-.22.37-.56.69-1.02.96-.46.27-1.05.47-1.78.61-.72.14-1.59.22-2.6.22h-1.09c-.05.22-.08.44-.1.65-.02.21-.02.41-.02.59,0,.68.17,1.2.51,1.57.34.36.89.54,1.65.54.44,0,.83-.03,1.18-.1.35-.06.65-.13.9-.21.26-.07.47-.14.63-.21.16-.07.28-.1.34-.1.06,0,.11.02.14.07s.05.11.05.19c0,.07,0,.15-.02.24-.01.09-.03.19-.06.29-.03.1-.07.2-.11.28-.05.09-.09.16-.15.22-.08.08-.23.16-.43.24-.21.08-.46.15-.74.21-.29.07-.6.12-.94.16-.34.04-.68.06-1.03.06-.6,0-1.14-.07-1.6-.21-.46-.14-.84-.35-1.14-.63-.3-.28-.53-.64-.68-1.06-.15-.42-.23-.92-.23-1.5,0-.44.04-.92.13-1.43.08-.51.22-1.01.4-1.51.19-.5.42-.98.72-1.43.29-.46.64-.86,1.05-1.21.41-.35.87-.63,1.4-.84.53-.21,1.14-.32,1.8-.32.57,0,1.06.07,1.46.22.4.14.73.32.98.55.26.22.44.47.56.75.12.28.18.55.18.82h0Zm-1.74.15c0-.35-.14-.63-.4-.85-.27-.21-.66-.32-1.16-.32-.44,0-.83.08-1.18.23-.34.15-.64.36-.91.62-.26.26-.49.56-.68.9-.19.35-.34.71-.45,1.09h1.04c.72,0,1.31-.05,1.79-.13.48-.09.87-.21,1.16-.36.29-.15.49-.34.61-.54.12-.21.18-.42.18-.65h0Zm9.99-2.02s0,.08-.01.16c-.01.08-.02.17-.04.27-.01.1-.03.21-.06.32-.03.11-.06.21-.1.3-.04.09-.08.17-.13.23-.04.06-.09.09-.15.09s-.11-.01-.18-.03c-.07-.02-.14-.05-.21-.09-.08-.04-.17-.06-.27-.09-.1-.02-.22-.03-.36-.03-.23,0-.5.1-.8.3-.3.2-.6.48-.9.83-.29.36-.56.78-.8,1.26-.24.49-.42,1.01-.54,1.58l-.8,4.1c-.01.06-.04.1-.07.14-.03.03-.09.07-.15.1-.07.02-.16.05-.28.06-.11.01-.25.02-.42.02s-.31,0-.41-.02c-.1-.01-.19-.03-.24-.06-.06-.03-.09-.06-.11-.1-.01-.04-.02-.08,0-.14l1.82-9.23s.03-.09.06-.13c.03-.04.08-.08.15-.1.07-.03.15-.05.25-.06.1-.01.22-.01.36-.01s.26,0,.35.01c.09.01.16.03.21.06.05.02.08.06.1.1.01.04.02.08.01.13l-.34,1.68c.16-.28.35-.55.56-.81.22-.26.45-.49.7-.68.25-.2.52-.35.79-.47.28-.12.55-.17.82-.17.12,0,.23,0,.35.02.12.02.23.04.33.06.1.02.19.05.27.08.08.03.14.07.18.11.04.04.06.1.06.19h0Zm7.84-4.2s0,.07-.01.13c0,.06-.01.13-.02.2-.01.07-.03.15-.05.23-.02.08-.05.15-.07.22-.03.07-.06.12-.09.16-.04.04-.07.06-.12.06-.05,0-.1-.01-.18-.04-.07-.02-.15-.06-.25-.08-.09-.03-.21-.06-.34-.09-.13-.03-.27-.04-.43-.04-.3,0-.55.05-.76.13-.21.09-.39.23-.54.42-.15.19-.28.43-.38.72-.1.29-.19.63-.27,1.02l-.17.93h2.06c.08,0,.14.02.18.08.05.05.07.14.07.25,0,.07,0,.15-.02.23-.01.08-.03.16-.05.24-.02.08-.05.15-.08.23-.03.07-.06.14-.1.19-.04.06-.08.1-.13.13-.05.03-.09.05-.14.05h-2.07l-1.74,8.71c-.12.57-.27,1.07-.47,1.49-.2.42-.44.77-.73,1.04-.29.28-.62.48-.99.62-.37.13-.8.2-1.27.2-.31,0-.56-.02-.75-.07-.19-.05-.31-.09-.36-.13-.02-.03-.05-.07-.06-.11-.01-.04-.02-.09-.02-.16,0-.03,0-.07.01-.14.01-.06.02-.13.04-.2.01-.07.03-.15.05-.23.02-.08.05-.15.07-.22.02-.07.06-.12.09-.16.04-.04.07-.06.12-.06s.09,0,.14.01c.05.01.09.02.14.03.05.01.12.02.19.03.07.01.16.01.27.01.29,0,.53-.05.74-.13.21-.09.39-.23.53-.41.15-.19.27-.43.37-.71.1-.29.19-.63.27-1.03l1.67-8.36h-1.31c-.07,0-.12-.02-.16-.07-.04-.05-.06-.13-.06-.25,0-.06,0-.12.01-.2,0-.08.02-.16.03-.24.02-.08.04-.16.07-.24.03-.07.06-.14.1-.2.04-.06.08-.11.13-.15.05-.04.1-.06.17-.06h1.29l.26-1.29c.11-.56.27-1.05.47-1.47.21-.42.45-.77.74-1.04.29-.27.62-.48,1.01-.61.38-.13.8-.2,1.25-.2.15,0,.31,0,.47.02.16.02.31.04.45.07.14.03.27.07.37.11.11.04.18.08.22.12.04.04.07.08.09.14.02.06.03.13.03.2h0Z"/><path class="cls-4" d="m258.08,187.02l-31.71-2.98c-3.85-.36-2.94-.32-6.93.29l-39.55,6.03c-4.52.69-3.69,1.21-1.8,3.8,1.06,1.45,2.17,2.85,3.33,4.21,2.37,2.78,2.84,2.47,4.96,1.9l19.18-5.67c3.83-1.13,3.62-.86,4.98.65l1.04,1.14c1.52,1.52,1.77,1.5.87,4.28l-4.08,12.55c-.41,1.26-.53,3.58-2.06,3.82-1.09.17-2.23-.76-1.97-1.22.11-.18.27.03.49.1.41.14,1-.05,1.26-.49.56-.96-.42-2.14-1.5-1.65-1.59.72-1.19,2.81.51,3.51.48.2,1.14.25,1.7.1,1.68-.45,1.81-1.71,2.85-3.81l4.66-10.36c1.17-2.78,1.71-1.97,2.72-.82l12.86,14.13c1.94,2.13-1.2-2.69-.93-3.13.06-.11-4.43-6.51-.89-5.38.44.14,20.85,6.11,22.92,7.67,3.51,2.66.47,7.93-.95,7.12-.42-.24.05-.63.22-1.13.32-.95-.14-2.31-1.17-2.89-2.21-1.26-4.9,1-3.75,3.47,1.69,3.63,6.48,2.67,8.05-1.25.21-.52.34-1.12.39-1.75.43-5.91-6.01-6.49-10.57-8.44-.35-.15-5.98-2.16-3.65-3.37,1.04-.54,2.85-1.71,3.72-2.63.22-.23.42-.5.57-.83.67-1.42-1.23-3.47-2.51-2.54-.46.33-.5,1.1-.13,1.77.49.89,1.14.84,1.17,1.38.07,1.1-4.74,2.41-4.68,3.33.05.78-2.18-.01-2.18-.01l-3.17-1.4-7.98-3.41c-2.74-1.17-2.09-.72-4.07-3.38l-4.2-5.65c-1.05-1.42-2.13-1.97,1.25-2.97l3.14-.93c3.33-.99,2.77-.89,6.02-.68l22.88,1.44c3.62,4.06.53.83-2.55,2.36-1.18.59-2.06,2.11-2.21,3.37-.39,3.24,2.5,5.67,4.99,3.84,1.69-1.25.71-3.78-1.25-3.75-.92.02-1.73.77-1.87,1.53-.07.4.1.84-.27.85-1.26.02-1.64-4.66,1.73-5.16,4.25-.63,5.79,1.86,8.25,4.62l9.12,10.24c.25.6.31,1.16.08,1.65-.51,1.09-1.91,1.84-2.12,3.1-.56,3.35,4.86,5.61,6.79,1.25.82-1.86-.56-4.34-1.6-5.81l-3.25-4.6c-2.38-3.28-3.14-3.8-1.21-3.57,3.81.46,17-.71,16.53,3.24-.12,1.12,1.2,2.3,2.32,2.4,1.27.1,2.11-.56,2.51-1.43.81-1.79-.49-3.27-1.74-3.7-1.82-.62-.51-.24-2.48-.57-.74-.11-2.84-.2-.54-.67l2.25-.56-.25-.5s-1.56.57-3.1.69c-3.04.24-10.46-.88-13.43-1.37l-3.02-.5c-3.17-.68-2.33-.03-4.29-2.95l-1.92-3.54c9.32,1.19,7.93-8.45,6.31-9.71-1.85-1.44,1.47,5.94-5.1,5.33h0Z"/><path class="cls-4" d="m219.65,108.79c4.35,1.17,4.61,1.99,4.25-2.82l-1.4-18.82c-.15-1.99,2.76-2.44,3.16-.44l4.91,24.61c.74,3.72,0,4,4.05,6.71l32.63,21.43c1.57,1.03,3.72,1.73,3.72-1.73l.39-4.67c.32-3.93-.07-4.61-1.35-6.44l-8.48-13.24c-.3-.3-.75-.92-1.21-.9-.9.05-.85,1.13-2.34,1.93-1.13.61-2.4.52-2.95-.26-1.53-2.16,1.95-5.29,4.31-4.14,4.18.7,13.5,19.73,13.03,12.6-.12-1.86-.19-3.18.2-5.36l2.86-16.16c.25-1.91,1.54.2,1.54,1l-.83,14.6c-.13,2.24,5.16.76,9.77-.66.28-.13.51-.25.66-.36,4.14-2.92.48-8.9-1.18-8.02-.49.26.04.73.21,1.31.33,1.1-.25,2.65-1.46,3.29-2.59,1.37-5.6-1.34-4.19-4.14,2.08-4.12,7.56-2.83,9.22,1.74.56,1.53.53,3.67-.23,5.25l.23-.07c1.36-.3,2.48.18.48.94l-2.54,1.18c-1.8,1.25-6.3,2.92-8.51,3.95-1.48.39-1.61,1.39-1.6,4.07l.03,16.54c0,4.56.74,4.68,3.15,6.26l19.92,13.08c1.56,1.02,1.71,1.46,1.57,2.48-.44,3.11-1.1,6.16-1.95,9.13-.42,1.46-1.09,1.85-2.85.54l-20.63-15.29c-5.54-4.11-4.81-1.17-5.62,3.34-.83,4.63-2.96,18.12-3.01,21.39-.03,1.62.27,2.83,1.11,3.37,2.13,1.37,3.76-1.18,8.47-.57,3.55.46,6.31,2.74,6.29,5.41-.05,7.41-13.08,8.84-16.56,2.35-.8-1.48-1.28-2.97-1.53-4.46-.26-1.51-.23-3.71-.06-6.11.12-1.71.51-5.6.92-9.46l2.14-13.23.54-3.38c.74-4.52-37.66-31.99-40.26-33.92-2.7-2-3.52-3.19-3.89-5.55-.17-1.06.01-1.35-1.82-2.16-.09.01-9.82-4.62-18.67-8.35-3.11-1.31-13.64-7.5-15.57-2.52-.55,1.42-.4,2.92.35,3.09.45.1.37-.48.58-.94.39-.88,1.6-1.54,2.71-1.28,2.38.55,2.81,3.9.39,4.9-3.55,1.47-6.31-2.33-4.88-6.13.62-1.63,1.94-2.67,2.98-3.11,3.81-1.62,23.98,6.65,28.77,8.18h0Z"/><path class="cls-4" d="m165.82,164.79c-.47-2.89-.67-8.27-.77-11.28l9-1.04c2.11-.25,3.16-.25,3.91-4.24l1.37-7.23c.45-2.38.34-2.24-1.47-4.67l-5.06-6.77c-.63-.84.53-1.26.71-1.09l.46.44c.63-.96,1.87-1.4,2.86-2.58.03-.03.06-.06.08-.09.03-.04.13-.15.16-.2.6-.81.92-1.9.96-2.9.1-2.61,1.43.64.06,3.47-1.53,3.17-2.57,3.65-.97,5.31l1.55,1.61.62.61c1.36,1.36,1.18.88,1.64-1.52l1.5-7.95c.21-1.43.46-2.89.86-4.27.22-.74.54-1.47,1.04-2.18,2.15-3.11,8.7-1.63,8.31,2.15-.14,1.36-1.68,2.37-3.52,2.4-2.44.04-3.12-1.35-4.28-.77-.21.1-.37.29-.5.53l-1.91,25.84c-.27,3.69.61,3.12,2.45,2.81,3.34-.55,3.53-1.31,7.54-3.86l7.77-5.32,3.98-2.73c-.19-.38-.28-.75-.26-1.11.15-3.11,2.97-4.8,4.49-8.38.03-.08.08-.17.11-.24.04-.11.17-.4.21-.51.72-2.07.69-4.53.13-6.61-1.46-5.48,3.37.42,2.34,7.14-.37,2.39-.81,4.21-1.11,5.65l1.86-1.28,26.69-18.26c3.28-2.09,3.57-2.01,5.91-6.67,1.35-2.23,6.23-11.98,8.82-13.23,1.48-.71,3.64-.42,5,.4,3.48,2.09,3.67,6.78-.03,7.83-2.52.71-4.26-2.18-2.73-4.08.71-.89,2.07-1.11,2.92-.67.45.23.75.74,1.04.38.98-1.22-3.33-5.16-6.38-2.24-.42.41-1.21,1.69-1.92,2.99-1.86,4.68-3.55,8.91-5.71,14.35-.88,2.21-1.03,2.67-4.29,5.15l-33.63,25.57c-2.26,1.72-5.65,4.68-7.51,6.41-.77.71-1.07,1.35-1.03,1.81h0s0,0,0,0c0,.05.01.09.02.13.47,2.98.9,6,1.41,8.97l.22,1.27.53,3.33h0c.53,3.73.81,7.52.16,11.52-.23,1.44-.68,2.87-1.44,4.31-3.29,6.28-14.64,4.79-14.76-2.34-.04-2.57,1.39-4.56,4.8-5.04,4.53-.63,6.12,1.81,8.16.47,2.31-1.52-.26-23.41-2.92-21.44l-3.94,2.99c-4.11,3.12-3.06,2.74-7.63,3.61l-8.64,1.63c-2.18.41-2.71.33-2.05,1.79.62,1.38,1.36,2.86,2.05,4.35,1.46,3.15,2.07,7.68,6.57,7.55,3.1-.1,5.93-2.86,5.09-4.11-.36-.53-.83.14-1.47.41-1.22.51-3.06.05-3.94-1.25-1.89-2.79.82-6.57,4.21-5.31,4.97,1.85,4.18,8.28-.83,10.77-1.96.97-4.96,1.13-6.91-.01-2.48-1.46-4.42-6.12-6.05-8.81-.92-1.53-3.06-4.17-4.93-3.81l-1.01.19h0Z"/><path class="cls-5" d="m248.97,90.63l-8.26-1.81c-4.54-.99-8.66,2.02-10.06,6.45l-2.76,8.74,9.21,1.33c4.6.66,9.07-1.91,10.06-6.45l1.81-8.26h0Z"/><path class="cls-5" d="m208.62,87.62l4.84,4.18c2.66,2.3,2.96,6.36.66,9.02l-4.18,4.84-4.84-4.18c-2.66-2.3-2.96-6.36-.66-9.02l4.18-4.84h0Z"/><path class="cls-5" d="m213.74,89.96l2.91-1.89c1.6-1.04,3.76-.58,4.79,1.02l1.89,2.91-2.91,1.89c-1.6,1.04-3.76.58-4.79-1.02l-1.89-2.91h0Z"/><path class="cls-5" d="m251.62,113.98l-4.21,4.07c-2.31,2.24-2.38,5.97-.14,8.28l4.08,4.21,4.21-4.07c2.31-2.24,2.38-5.97.14-8.28l-4.07-4.21h0Z"/><path class="cls-5" d="m272.29,99.01l-5.52,1.08c-3.03.59-4.62,3.51-4.44,6.59l.38,6.72,6.22-2.27c2.9-1.06,5.03-3.56,4.44-6.59l-1.08-5.52h0Z"/><path class="cls-5" d="m298.08,134.91l-8.28-2c-4.55-1.1-9.18,1.73-10.28,6.29l-2,8.28,8.28,2c4.55,1.1,9.18-1.73,10.28-6.29l2-8.28h0Z"/><path class="cls-5" d="m281.73,119.06l.29,5.72c.13,2.56,1.56,4.88,4.11,5.17l4.64.53.53-4.64c.29-2.55-1.65-4.44-4.11-5.17l-5.46-1.61h0Z"/><path class="cls-5" d="m203.16,130.24l-7.55-1.82c-4.15-1-7.56,1.86-9.37,5.73l-3.98,8.51,9.72.87c4.25.38,8.37-1.58,9.37-5.73l1.82-7.55h0Z"/><path class="cls-5" d="m195.09,117.28l5.62-1.6c3.09-.88,6.34.93,7.21,4.02l1.6,5.62-5.62,1.6c-3.09.88-6.34-.93-7.21-4.02l-1.6-5.62h0Z"/><path class="cls-5" d="m213.82,113.59l5.53,1.72c3.04.95,4.75,4.21,3.81,7.25l-1.72,5.53-5.53-1.72c-3.04-.95-4.75-4.21-3.81-7.25l1.72-5.53h0Z"/><path class="cls-5" d="m203.9,106.22l-3.51-.77c-1.93-.42-3.85.81-4.27,2.74l-.77,3.51,3.51.77c1.93.42,3.85-.81,4.27-2.74l.77-3.51h0Z"/><path class="cls-5" d="m176.56,109.46l4.42,2.1c2.43,1.16,3.47,4.09,2.31,6.52l-2.1,4.42-4.42-2.1c-2.43-1.16-3.47-4.09-2.31-6.52l2.1-4.42h0Z"/><path class="cls-5" d="m269.21,128.17l-3.77-1.27c-2.07-.7-4.34.42-5.04,2.5l-1.27,3.77,3.77,1.27c2.07.7,4.34-.42,5.04-2.5l1.27-3.77h0Z"/><path class="cls-5" d="m193.14,171.24l2.85-2.79c1.57-1.53,1.6-4.07.07-5.64l-2.79-2.85-2.85,2.79c-1.57,1.53-1.6,4.07-.07,5.64l2.79,2.85h0Z"/><path class="cls-5" d="m166.34,138.32l5.22-.65c2.87-.36,5.33,1.73,5.87,4.57l1.06,5.57-5.63.3c-2.89.15-5.51-1.7-5.87-4.57l-.65-5.22h0Z"/><path class="cls-5" d="m290.49,168.23l-4.97,4.69c-2.73,2.58-2.71,6.79-.28,9.65l4.9,5.77,4.76-5.5c2.46-2.84,2.86-6.92.28-9.66l-4.69-4.97h0Z"/><path class="cls-5" d="m270.57,161.17l-.57,5.95c-.31,3.27,2.11,6.21,5.38,6.52l5.95.57.57-5.95c.31-3.27-2.11-6.21-5.38-6.52l-5.95-.57h0Z"/><path class="cls-5" d="m240.84,195.32l-5.92-3.41c-3.26-1.87-7.3-.65-9.33,2.51l-3.93,6.12,6.44,3.21c3.36,1.68,7.45.74,9.33-2.51l3.41-5.92h0Z"/><path class="cls-5" d="m257.17,202.44l-5.41-.84c-2.98-.46-5.79,1.6-6.25,4.58l-.84,5.41,5.41.84c2.98.46,5.79-1.6,6.25-4.58l.84-5.41h0Z"/><path class="cls-5" d="m239.76,211.03l-2.37,3.09c-1.31,1.7-.98,4.15.71,5.46l3.09,2.37,2.37-3.09c1.31-1.7.99-4.15-.71-5.46l-3.09-2.37h0Z"/><path class="cls-5" d="m192.84,197.63l-.75,6.62c-.42,3.65,2.23,6.97,5.87,7.38l6.63.75.75-6.63c.41-3.64-2.23-6.96-5.87-7.38l-6.62-.75h0Z"/><path class="cls-5" d="m220.39,204.55l-4.75,3.23c-2.61,1.78-3.3,5.37-1.52,7.98l3.23,4.75,4.75-3.23c2.61-1.78,3.3-5.37,1.52-7.98l-3.23-4.75h0Z"/><path class="cls-5" d="m220.27,102.4c1.41,0,2.55,1.14,2.55,2.55s-1.14,2.55-2.55,2.55-2.55-1.14-2.55-2.55,1.14-2.55,2.55-2.55h0Z"/><path class="cls-5" d="m230.29,86.64c1.41,0,2.55,1.14,2.55,2.55s-1.14,2.55-2.55,2.55-2.55-1.14-2.55-2.55,1.14-2.55,2.55-2.55h0Z"/><path class="cls-5" d="m264.54,192.93c1.13,0,2.05.92,2.05,2.05s-.92,2.05-2.05,2.05-2.05-.92-2.05-2.05.92-2.05,2.05-2.05h0Z"/><path class="cls-5" d="m236.7,106.86c2.08,0,3.77,1.69,3.77,3.77s-1.69,3.77-3.77,3.77-3.77-1.69-3.77-3.77,1.69-3.77,3.77-3.77h0Z"/><path class="cls-5" d="m207.94,196.32c1.49,0,2.7,1.21,2.7,2.7s-1.21,2.69-2.7,2.69-2.69-1.21-2.69-2.69,1.21-2.7,2.69-2.7h0Z"/><path class="cls-5" d="m270.84,202.36c1.59,0,2.89,1.29,2.89,2.89s-1.29,2.89-2.89,2.89-2.89-1.29-2.89-2.89,1.29-2.89,2.89-2.89h0Z"/><path class="cls-5" d="m269.53,113.76c.87,0,1.58.71,1.58,1.58s-.71,1.58-1.58,1.58-1.58-.71-1.58-1.58.71-1.58,1.58-1.58h0Z"/><path class="cls-5" d="m281.53,199.61l3.21,2.01c1.58.99,3.59.94,4.75-.51l2.12-2.63-2.63-2.12c-1.45-1.17-3.45-.81-4.75.51l-2.7,2.74h0Z"/><path class="cls-5" d="m179.57,190.33l.56-5.76c.31-3.17-2.04-6.01-5.21-6.32l-5.76-.56-.56,5.76c-.31,3.17,2.04,6.01,5.21,6.32l5.76.56h0Z"/><path class="cls-5" d="m304.22,148.64l-5.73-.04c-2.57-.02-4.96,1.27-5.39,3.8l-.8,4.6,4.6.8c2.53.44,4.53-1.39,5.39-3.8l1.92-5.36h0Z"/><path class="cls-5" d="m281.33,177.24l-3.99-1.62c-2.19-.89-4.6.22-5.61,2.36l-2.03,4.32,4.4,1.29c2.27.67,4.72-.17,5.61-2.37l1.62-3.99h0Z"/><path class="cls-5" d="m227.91,213.28l-.59,3.85c-.32,2.12,1.14,4.11,3.26,4.44l3.85.59.59-3.85c.32-2.12-1.14-4.11-3.26-4.44l-3.85-.59h0Z"/><path class="cls-3" d="m224.79,172.99v-18.27c0-.91.61-1.1,1.1-1.1h13.94c.5,0,1.1.2,1.1,1.1v20.18c0,.95-.37,2.19,2.04,2.19,1.91,0,3.45,1.2,3.45,2.69s-1.55,2.69-3.45,2.69c-4.39,0-3.45-5.64-3.45-8.74v-13.19c0-2.41.19-2.57-2.44-2.57h-8.44c-2.63,0-2.44.17-2.44,2.57v13.19c0,1.62.26,3.93-.13,5.77-.97,4.65-6.78,3.19-6.78.28,0-1.49,1.55-2.69,3.45-2.69,1.66,0,1.91-.71,1.96-1.75.04-.68.08-1.52.08-2.36h0Z"/><path class="cls-3" d="m224.79,165.27v-3.52c0-.91.61-1.1,1.1-1.1h13.94c.5,0,1.1.2,1.1,1.1v3.52h-1.41v-.54c0-2.41.19-2.57-2.44-2.57h-8.44c-2.63,0-2.44.17-2.44,2.57v.54h-1.41Z"/><path class="cls-5" d="m319.25,191.59l-11.18,7.44c-1.68,1.12,1.99-.55,2.27-.31.07.06,4.99-2.39,3.83-.05-1.24,2.49-3.68,9.63-6.58,13.41-3.71,4.84-6.56.97-6.01.28.21-.26.43.1.76.27.63.32,1.62.15,2.13-.51.62-.78.43-1.83-.17-2.43-1.29-1.29-3.5-.14-3.8,1.53-.24,1.33.52,2.85,1.78,3.63,3.41,2.1,6.6-2.57,8.11-5.01,1.9-3.08,3.44-6.58,4.37-8.04l3.21-5.18c1.1-1.78.72-1.38,2.78-2.47l-1.51-2.56h0Z"/><path class="cls-5" d="m297.65,195.87l4.08,3.79c1.83,1.7,4.39,2.34,6.37.82l3.59-2.77-2.77-3.59c-1.53-1.98-4.16-1.98-6.37-.82l-4.9,2.58h0Z"/><path class="cls-7" d="m343.14,219.61c2.33,3.75,5.47,8.16,8.86,11.1,1.7.82,3.38,1.36,4.99,1.5.74.06,1.49.1,2.24.12-.5.54-1.05,1.04-1.65,1.53,8.94,2.21,20.42.03,23.55,2.78,3.17,2.78.61,12.24-2.42,11.56-3.02-.68-21.58-10.07-23.93-12.44h-.02c-1.81,1.03-3.83,1.86-5.96,2.47-6.55,2.23-17.16,4.41-25.08-.95-3.18-2.15-5.83-4.75-7.79-7.64-5.15-7.59-5.7-20.38,3.28-25.17,6.33-3.37,13.13-.6,17.45,4.39,2.46,2.84,4.47,7.54,6.47,10.76h0Z"/><path class="cls-7" d="m358.34,232.29c.3.01.6.02.91.03-.5.54-1.05,1.04-1.65,1.52,0,0-.65.51-1.78,1.28-2.96,1.9-6.47,3.12-9.89,3.77-8.37,1.59-17.64.02-21.99-5.6-2.9-3.75-2.21-9.15,1.54-12.05.85-.66,1.77-1.11,2.73-1.39.44-.13,1.09-.1,1.12-.35,3.09.8,8.69,3.09,18.82,8.94,3.79,2.19,5.64,3.64,10.18,3.85h0Z"/><path class="cls-1" d="m353.77,238.17c-2.07.8-4.98,1.8-7.54,2.29-6.34,1.21-15.37,1.63-22.49-3.19-3.18-2.15-5.83-4.75-7.79-7.64-3.21-4.73-4.63-11.47-3.08-17.05.46-1.66,2.87-1.96,4.8.57,4.37,5.71,7.44,2.94,10.99,5.6,1.44,1.08.24.9-.44,1.1-.96.28-1.88.73-2.73,1.39-3.75,2.9-4.44,8.3-1.54,12.05,6.24,8.07,22.61,7.8,31.91,1.81h0c1.41.43,2.69.61,2.77.74.09.14-4.5,2.17-4.87,2.32h0Z"/><path class="cls-6" d="m324.9,211.51c.57,1.07.16,2.39-.9,2.96-1.07.57-2.39.16-2.96-.9-.57-1.07-.17-2.39.9-2.96,1.07-.57,2.39-.16,2.96.9h0Z"/><path class="cls-2" d="m324.31,211.83c.25.46.15.99-.22,1.19-.37.2-.87-.02-1.11-.48-.25-.46-.15-.99.22-1.19.37-.2.87.02,1.11.48h0Z"/><path class="cls-1" d="m318.12,209.67c-.25.82-1.87.68-2.94.15-1-.5-.81-.62-1.58-1.33l-5.67-5.16c-.17-.15,6.55,2.65,7.92,3.18,1.07.42,2.67,1.83,2.27,3.15h0Z"/><path class="cls-1" d="m337.18,243.11c.5.37.03.61.58.98.12.08.22.21.17.3-.7,1.36-4.36,5.83-4.36,5.83,0,0,.79,1.42.98,1.62.19.2.18-.64.23-.8.05-.16,4.27-6.34,4.27-6.34.52.06,1.18-1.07,1.29-1.5.17-.68.17-2.55-.56-2.98-.73-.44-3.34.28-3.24.67.1.39.66,2.23.66,2.23h0Z"/><path class="cls-1" d="m333.69,250.45l-.11.19c-.12.21-.1.33-.03.43.58.88,4.37-.42,4.61,1.27.4-.96-1.11-2.6-2.48-1.97-.41-.86-1.02,0-1.72.12-.16.03-.1.05-.27-.03h0Z"/><path class="cls-1" d="m325.38,251.54c-.52.67-3.02,1.05-2.66,2.18-.53-.47-.18-1.83.73-2.11.13-.12.29-.26.42-.37.02-.03.05-.06.09-.08.55-.52.58-.41,1.05-.65.52-.27,1.07-.51,1.8-1.02,2.3-1.59,7.3-5.3,7.17-5.41-.15-.13-.47-.67-.31-1,.12-.24-.92-.53-1.54-1.34-.56-.72-.42-.97-1.55-1.39-1.61-.6,5.48-.49,5.85-.47.36.02.93.84,1.42,1.69.5.85-.65,1.52-.65,1.52,0,0-.09.78-.48,1.17-.39.4-1.87.88-1.87.88l-4.33,3.13c-3.86,2.78-2.55,2.45-2.55,2.45,1.32.37,2.04-1.89,2.96-.59,1.7-1.18,4.11.67,3.79,2.06-.54-1.69-3.21-1.52-3.02-1.33.2.19-.65.36-.96.48-.31.12-1.09.38-2.06.73-.96.36-2.44.16-2.44.16,0,0,.2-.75-.85-.71h0Z"/><path class="cls-1" d="m51.67,273.76l-11.26-15.71c-.8-1.17-1.58-2.35-2.4-3.51-.41-.57-1.91-2.72-2.49-3.15-.42-.08-1.22-.07-1.62-.07-1.05-.02-2.1,0-3.14,0-1.4.01-2.81.05-4.21.06v.2s-.01,69.03-.01,69.03c.25.08.82.1,1.19.1h1.5c3.75,0,8.73-4.84,8.73-10.86v-31.55c0-.74-.01-1.5.03-2.23.04-.6.14-1.33.83-1.53.89-.25,1.51.82,1.94,1.42.75,1.07,1.48,2.12,2.29,3.15.27.35.44.71.69,1.06l6.28,8.74.08.09.02.03.65.87v.02c.23.33.44.65.68.97.88,1.18,1.66,2.43,2.55,3.62l5.15,7.15c.48.67.91,1.35,1.36,2.05.14.22.38.61.6.76.33.22,1.23.21,1.6.21,1.75,0,3.51-.07,5.27-.07.54-.36,1.91-2.54,2.32-3.09l8.19-11.51c.42-.64.88-1.24,1.32-1.87.25-.37.52-.64.79-.98.58-.74,1.13-1.56,1.66-2.33.88-1.26,1.75-2.53,2.63-3.79.98-1.4,1.97-2.81,3-4.17.43-.57,1.52-2.08,2.19-2.32l1.16-.42v35.75c0,6.02,4.98,10.86,8.73,10.86h1.1c.38-.03.76-.06,1.13-.12.12-.02.3-.03.46-.04v-69.17h-8.68c-.58,0-2.1,2.44-2.4,2.9-.28.43-.57.85-.87,1.25l-21.6,30.15c-.58.82-1.15,1.65-1.72,2.48-.46.66-1.55,2.27-2.16,2.72l-.49.36-.5-.34c-.71-.48-1.9-2.14-2.43-2.86-.7-.94-1.41-1.92-2.05-2.9-.3-.46-.63-.89-.95-1.33l-4.1-5.7c-.33-.5-.66-.99-1.01-1.47-.71-.95-1.37-1.92-2.02-2.88h0Z"/><path class="cls-1" d="m119.15,251.59v69.05c.37.1,1.41.08,1.68.08h53.24c.22,0,.42-.03.62-.07v-2.64c-.65-3.57-5.11-7.76-10.59-7.86-.06,0-.13,0-.19,0-1.49,0-2.99-.01-4.48-.01-4.58,0-9.16.07-13.74.09-3.05,0-6.1.01-9.15-.04-1.11-.02-2.23-.04-3.34-.1-.6-.03-1.38-.05-1.96-.19l-.67-.16v-.68c0-4.52,0-9.05,0-13.57,0-.75-.04-1.5-.04-2.25,0-.57.04-1.16.46-1.59.43-.43,1.02-.46,1.59-.46.75,0,1.5.04,2.25.04h21.38c5.99,0,10.81-4.93,10.86-8.68,0-.02,0-.04,0-.06,0-.62,0-1.23-.01-1.85h-36.48v-17.41c0-.39.12-.75.39-1.03.7-.74,1.91-.48,2.81-.47,10.05.1,20.09-.05,30.14-.05.08,0,.15,0,.23,0,5.91-.13,10.63-5.02,10.63-8.73v-.43c-.01-.51-.05-1.02-.13-1.23-.35-.03-1.77.08-2.06.08h-53.42v.2h-.01Z"/><path class="cls-1" d="m188,251.39v69.16c.77.06,1.53.17,2.32.17h45.18c.22,0,.42-.03.62-.07v-1.76c0-3.55-4.33-8.19-9.88-8.69-2.44.02-4.88.03-7.32.04-4.04.01-8.08.01-12.12-.04-1.44-.02-2.89-.04-4.33-.1-.69-.03-1.7-.04-2.37-.19l-.67-.16v-56.25c0-.36.13-1.63.04-2.11h-11.46Z"/><path class="cls-1" d="m361.84,306.14c-4.65,2.98-9.42,3.57-14.85,3.57h-12.15c-.24,4.49-2.48,8.23-5.27,11.03,2.93.02,5.86.03,8.79.03,3.27,0,6.53-.02,9.8-.1,1.24-.03,2.48-.06,3.72-.12.74-.04,1.53-.07,2.26-.18.62-.09,1.25-.18,1.87-.26.67-.09,1.19-.26,1.83-.41,1.15-.27,2.25-.58,3.37-.97,2.05-.72,4.06-1.63,5.92-2.75.9-.54,1.77-1.09,2.6-1.71l2.62-2.02c4.7-3.76,9.39-11.47,10.72-17.34,1.25-5.53,1.45-9.93.55-15.54-.41-2.57-1.74-6.65-3-8.93-.48-.87-.97-1.72-1.44-2.59-1.31-2.43-3.44-4.83-5.39-6.78-2.75-2.75-5.98-4.99-9.52-6.6-4.06-1.85-8.56-3.06-13.05-3.06h-30.74v69.17h2.46c3.75,0,8.73-6.56,8.73-12.58h.04c-.02-.18-.03-.37-.04-.57-.19-14.71.02-29.43.02-44.15v-.68l.67-.16c1.02-.24,2.51-.25,3.57-.28,1.81-.05,3.62-.05,5.43-.04,2.79.01,5.59.08,8.37.08,6.07,0,11.87,2.5,16.15,6.77,7.4,7.4,9.02,18.34,4.53,27.72-1.86,3.89-4.97,7.15-8.58,9.47h0Z"/><path class="cls-1" d="m408.29,287.37c.77,1.14,1.57,2.24,2.37,3.35.43.6.88,1.24,1.12,1.94.37,1.09.27,2.74.27,3.88v24.04l.32.02c3.67.2,7.43.22,11.11-.04v-3.73c0-6.83,0-13.66,0-20.5,0-.93-.12-2.6.18-3.46.24-.68.87-1.47,1.28-2.07l26.26-38.86s.04-.06.06-.09l-2.32-1.34c-3.25-1.88-9.98-.18-12.99,5.04l.02-.07-12.39,18.43c-.54.8-1.12,1.57-1.66,2.37l-3.7,5.56-.72-.48c-.82-.55-2.49-3.09-3.08-3.96-.86-1.27-1.69-2.56-2.54-3.83l-12.81-18.98c-.42-.58-1.75-2.8-2.23-3.21h-12.79c.68,1.22,1.96,3.09,2.33,3.64,1.05,1.54,2.19,3.06,3.22,4.61.39.59.76,1.18,1.17,1.75l.02.03,17.51,25.97h0Z"/><path class="cls-1" d="m273.33,251.32c9.59,0,18.27,3.89,24.55,10.17,6.28,6.28,10.17,14.96,10.17,24.55s-3.89,18.27-10.17,24.55c-6.28,6.28-14.96,10.17-24.55,10.17s-18.27-3.89-24.55-10.17c-6.28-6.28-10.17-14.96-10.17-24.55s3.89-18.27,10.17-24.55c6.28-6.28,14.96-10.17,24.55-10.17h0Zm16.9,17.82c-4.32-4.32-10.3-7-16.9-7s-12.57,2.67-16.9,7c-4.32,4.32-7,10.3-7,16.9s2.68,12.57,7,16.9c4.32,4.32,10.3,7,16.9,7s12.57-2.67,16.9-7c4.32-4.32,7-10.3,7-16.9s-2.68-12.57-7-16.9h0Z"/></svg>