<svg width="923" height="417" viewBox="0 0 923 417" fill="none" xmlns="http://www.w3.org/2000/svg">
<path d="M15.65 235.14C15.65 235.2 15.63 235.25 15.6 235.3C15.57 235.35 15.52 235.38 15.44 235.41C15.36 235.44 15.27 235.46 15.15 235.48C15.03 235.5 14.88 235.51 14.69 235.51C14.51 235.51 14.36 235.51 14.23 235.48C14.1 235.46 14.01 235.44 13.93 235.41C13.86 235.38 13.8 235.35 13.77 235.3C13.74 235.26 13.72 235.2 13.72 235.14V222.61H13.7L8.64 235.2C8.62 235.25 8.59 235.29 8.55 235.33C8.51 235.37 8.45 235.4 8.37 235.43C8.29 235.46 8.2 235.48 8.09 235.49C7.98 235.5 7.86 235.51 7.71 235.51C7.56 235.51 7.42 235.51 7.31 235.49C7.2 235.48 7.11 235.46 7.03 235.43C6.95 235.4 6.9 235.37 6.86 235.34C6.82 235.3 6.79 235.26 6.78 235.22L1.93 222.63H1.92V235.16C1.92 235.22 1.9 235.27 1.87 235.32C1.84 235.37 1.79 235.4 1.71 235.43C1.63 235.46 1.53 235.48 1.41 235.5C1.29 235.52 1.13 235.53 0.939999 235.53C0.749999 235.53 0.6 235.53 0.48 235.5C0.36 235.48 0.259999 235.46 0.189999 235.43C0.119999 235.4 0.069999 235.37 0.039999 235.32C0.00999901 235.28 0 235.22 0 235.16V221.93C0 221.62 0.08 221.4 0.25 221.26C0.42 221.13 0.599999 221.06 0.799999 221.06H1.98C2.22 221.06 2.43 221.08 2.61 221.13C2.79 221.17 2.95 221.24 3.08 221.34C3.22 221.44 3.33 221.56 3.42 221.71C3.51 221.86 3.59 222.03 3.66 222.23L7.78 232.65H7.84L12.11 222.26C12.19 222.04 12.28 221.85 12.38 221.69C12.48 221.53 12.58 221.41 12.7 221.32C12.81 221.22 12.95 221.16 13.09 221.12C13.23 221.08 13.4 221.06 13.59 221.06H14.82C14.93 221.06 15.04 221.08 15.14 221.11C15.24 221.14 15.33 221.2 15.4 221.27C15.47 221.34 15.53 221.43 15.57 221.54C15.62 221.65 15.64 221.78 15.64 221.93V235.16L15.65 235.14ZM27.83 235.15C27.83 235.21 27.82 235.26 27.79 235.3C27.76 235.34 27.72 235.38 27.65 235.41C27.59 235.44 27.5 235.46 27.39 235.47C27.28 235.49 27.15 235.49 27 235.49C26.83 235.49 26.69 235.49 26.59 235.47C26.48 235.46 26.4 235.43 26.33 235.41C26.27 235.38 26.22 235.34 26.2 235.3C26.18 235.26 26.17 235.21 26.17 235.15V233.83C25.6 234.46 25.04 234.91 24.48 235.2C23.93 235.49 23.36 235.63 22.79 235.63C22.12 235.63 21.56 235.52 21.11 235.3C20.65 235.08 20.28 234.78 20 234.39C19.72 234.01 19.52 233.57 19.39 233.06C19.27 232.55 19.21 231.93 19.21 231.21V225.14C19.21 225.08 19.22 225.03 19.25 224.99C19.28 224.95 19.33 224.91 19.4 224.88C19.47 224.85 19.57 224.82 19.69 224.81C19.81 224.8 19.96 224.79 20.13 224.79C20.3 224.79 20.46 224.79 20.57 224.81C20.69 224.82 20.78 224.84 20.85 224.88C20.92 224.91 20.97 224.95 21 224.99C21.03 225.03 21.05 225.08 21.05 225.14V230.97C21.05 231.55 21.09 232.02 21.18 232.38C21.26 232.73 21.39 233.03 21.57 233.28C21.74 233.53 21.97 233.72 22.23 233.86C22.5 234 22.81 234.06 23.16 234.06C23.62 234.06 24.08 233.9 24.53 233.57C24.99 233.24 25.47 232.77 25.98 232.14V225.14C25.98 225.08 25.99 225.03 26.02 224.99C26.05 224.95 26.1 224.91 26.17 224.88C26.24 224.85 26.34 224.82 26.45 224.81C26.57 224.8 26.72 224.79 26.9 224.79C27.08 224.79 27.23 224.79 27.34 224.81C27.46 224.82 27.55 224.84 27.62 224.88C27.69 224.91 27.74 224.95 27.77 224.99C27.8 225.03 27.82 225.08 27.82 225.14V235.15H27.83ZM40.42 229.98C40.42 230.86 40.33 231.64 40.14 232.34C39.95 233.03 39.68 233.63 39.31 234.11C38.95 234.6 38.49 234.97 37.95 235.23C37.41 235.49 36.79 235.62 36.1 235.62C35.8 235.62 35.53 235.59 35.28 235.53C35.03 235.47 34.78 235.38 34.54 235.25C34.3 235.12 34.06 234.97 33.83 234.77C33.59 234.58 33.34 234.35 33.08 234.09V239.1C33.08 239.16 33.06 239.21 33.03 239.26C33 239.31 32.95 239.34 32.89 239.37C32.82 239.4 32.73 239.42 32.61 239.43C32.49 239.45 32.34 239.45 32.15 239.45C31.96 239.45 31.82 239.45 31.7 239.43C31.58 239.41 31.48 239.39 31.42 239.37C31.35 239.34 31.3 239.3 31.27 239.26C31.24 239.21 31.23 239.16 31.23 239.1V225.12C31.23 225.05 31.24 225 31.26 224.96C31.28 224.92 31.33 224.88 31.39 224.86C31.46 224.83 31.54 224.81 31.65 224.8C31.75 224.79 31.88 224.78 32.03 224.78C32.19 224.78 32.31 224.78 32.42 224.8C32.52 224.81 32.6 224.83 32.67 224.86C32.74 224.89 32.78 224.93 32.81 224.97C32.84 225.01 32.85 225.06 32.85 225.13V226.47C33.15 226.16 33.45 225.89 33.73 225.66C34.01 225.43 34.3 225.24 34.58 225.09C34.86 224.94 35.16 224.82 35.46 224.74C35.76 224.66 36.07 224.62 36.41 224.62C37.13 224.62 37.75 224.76 38.26 225.04C38.77 225.32 39.19 225.71 39.51 226.2C39.83 226.69 40.07 227.26 40.22 227.91C40.37 228.56 40.44 229.25 40.44 229.97L40.42 229.98ZM38.51 230.19C38.51 229.68 38.47 229.18 38.39 228.7C38.31 228.22 38.18 227.8 37.99 227.43C37.8 227.06 37.55 226.76 37.23 226.54C36.91 226.32 36.51 226.21 36.04 226.21C35.8 226.21 35.57 226.24 35.34 226.32C35.11 226.39 34.88 226.5 34.64 226.65C34.4 226.8 34.15 227 33.9 227.25C33.64 227.5 33.37 227.81 33.08 228.17V232.15C33.58 232.77 34.06 233.24 34.51 233.57C34.97 233.9 35.44 234.06 35.94 234.06C36.4 234.06 36.79 233.95 37.12 233.73C37.45 233.51 37.72 233.21 37.92 232.84C38.12 232.47 38.27 232.05 38.37 231.59C38.47 231.13 38.51 230.66 38.51 230.2V230.19ZM52.38 229.98C52.38 230.86 52.29 231.64 52.1 232.34C51.91 233.03 51.64 233.63 51.27 234.11C50.91 234.6 50.45 234.97 49.91 235.23C49.37 235.49 48.75 235.62 48.06 235.62C47.76 235.62 47.49 235.59 47.24 235.53C46.99 235.47 46.74 235.38 46.5 235.25C46.26 235.12 46.02 234.97 45.79 234.77C45.55 234.58 45.3 234.35 45.04 234.09V239.1C45.04 239.16 45.02 239.21 44.99 239.26C44.96 239.31 44.91 239.34 44.85 239.37C44.78 239.4 44.69 239.42 44.57 239.43C44.45 239.45 44.3 239.45 44.12 239.45C43.94 239.45 43.79 239.45 43.67 239.43C43.55 239.41 43.45 239.39 43.39 239.37C43.32 239.34 43.27 239.3 43.24 239.26C43.21 239.21 43.2 239.16 43.2 239.1V225.12C43.2 225.05 43.21 225 43.23 224.96C43.25 224.92 43.3 224.88 43.36 224.86C43.43 224.83 43.51 224.81 43.62 224.8C43.72 224.79 43.85 224.78 44 224.78C44.16 224.78 44.28 224.78 44.39 224.8C44.49 224.81 44.57 224.83 44.64 224.86C44.71 224.89 44.75 224.93 44.78 224.97C44.81 225.01 44.82 225.06 44.82 225.13V226.47C45.12 226.16 45.42 225.89 45.7 225.66C45.98 225.43 46.27 225.24 46.55 225.09C46.83 224.94 47.13 224.82 47.43 224.74C47.73 224.66 48.04 224.62 48.38 224.62C49.1 224.62 49.72 224.76 50.23 225.04C50.74 225.32 51.16 225.71 51.48 226.2C51.8 226.69 52.04 227.26 52.19 227.91C52.34 228.56 52.41 229.25 52.41 229.97L52.38 229.98ZM50.47 230.19C50.47 229.68 50.43 229.18 50.35 228.7C50.27 228.22 50.14 227.8 49.95 227.43C49.76 227.06 49.51 226.76 49.19 226.54C48.87 226.32 48.47 226.21 48 226.21C47.76 226.21 47.53 226.24 47.3 226.32C47.07 226.39 46.84 226.5 46.6 226.65C46.36 226.8 46.11 227 45.86 227.25C45.6 227.5 45.33 227.81 45.04 228.17V232.15C45.54 232.77 46.02 233.24 46.47 233.57C46.93 233.9 47.4 234.06 47.9 234.06C48.36 234.06 48.75 233.95 49.08 233.73C49.41 233.51 49.68 233.21 49.88 232.84C50.08 232.47 50.23 232.05 50.33 231.59C50.42 231.13 50.47 230.66 50.47 230.2V230.19ZM62.68 235.16C62.68 235.25 62.65 235.32 62.59 235.36C62.53 235.41 62.45 235.44 62.34 235.46C62.24 235.48 62.09 235.49 61.88 235.49C61.69 235.49 61.53 235.48 61.42 235.46C61.31 235.44 61.22 235.41 61.17 235.36C61.12 235.31 61.09 235.25 61.09 235.16V234.16C60.65 234.63 60.17 234.99 59.63 235.25C59.09 235.5 58.52 235.63 57.92 235.63C57.39 235.63 56.91 235.56 56.49 235.43C56.06 235.29 55.7 235.09 55.4 234.83C55.1 234.57 54.86 234.25 54.7 233.87C54.53 233.49 54.45 233.06 54.45 232.58C54.45 232.01 54.56 231.53 54.8 231.11C55.03 230.69 55.36 230.35 55.79 230.07C56.22 229.8 56.75 229.59 57.37 229.45C57.99 229.31 58.69 229.25 59.47 229.25H60.85V228.47C60.85 228.09 60.81 227.75 60.73 227.45C60.65 227.15 60.52 226.91 60.34 226.71C60.16 226.51 59.92 226.36 59.63 226.27C59.34 226.17 58.99 226.12 58.56 226.12C58.11 226.12 57.7 226.17 57.35 226.28C56.99 226.39 56.67 226.51 56.41 226.64C56.14 226.77 55.91 226.89 55.73 227C55.55 227.11 55.41 227.16 55.33 227.16C55.27 227.16 55.22 227.14 55.17 227.11C55.12 227.08 55.09 227.04 55.05 226.98C55.02 226.92 54.99 226.85 54.98 226.76C54.96 226.66 54.96 226.57 54.96 226.45C54.96 226.27 54.97 226.12 55 226.01C55.03 225.9 55.09 225.8 55.19 225.71C55.29 225.62 55.46 225.5 55.71 225.37C55.95 225.24 56.24 225.12 56.56 225.01C56.87 224.9 57.22 224.81 57.6 224.74C57.98 224.67 58.36 224.63 58.74 224.63C59.46 224.63 60.07 224.71 60.57 224.87C61.07 225.03 61.48 225.28 61.79 225.59C62.1 225.91 62.33 226.3 62.47 226.76C62.61 227.23 62.68 227.77 62.68 228.39V235.14V235.16ZM60.86 230.58H59.29C58.79 230.58 58.35 230.62 57.98 230.71C57.61 230.79 57.3 230.92 57.06 231.09C56.82 231.26 56.64 231.45 56.52 231.69C56.41 231.93 56.35 232.19 56.35 232.5C56.35 233.02 56.51 233.43 56.84 233.74C57.17 234.05 57.63 234.2 58.22 234.2C58.7 234.2 59.15 234.08 59.56 233.83C59.97 233.59 60.4 233.21 60.85 232.71V230.58H60.86ZM68.47 220.77C68.47 221 68.46 221.21 68.44 221.4C68.42 221.59 68.38 221.77 68.33 221.94C68.28 222.11 68.21 222.29 68.13 222.45C68.04 222.62 67.94 222.79 67.81 222.97L66.29 225.25C66.25 225.3 66.21 225.35 66.16 225.39C66.11 225.44 66.05 225.47 65.98 225.5C65.91 225.53 65.83 225.55 65.74 225.56C65.65 225.57 65.53 225.58 65.39 225.58C65.26 225.58 65.16 225.58 65.07 225.56C64.98 225.55 64.92 225.53 64.89 225.5C64.85 225.47 64.83 225.44 64.83 225.39C64.83 225.35 64.83 225.29 64.87 225.22L66.35 222.17V220.76C66.35 220.57 66.37 220.41 66.41 220.29C66.45 220.17 66.51 220.08 66.6 220.01C66.69 219.94 66.8 219.9 66.93 219.88C67.06 219.86 67.23 219.85 67.42 219.85C67.6 219.85 67.76 219.86 67.9 219.88C68.03 219.9 68.14 219.94 68.23 220.01C68.31 220.07 68.38 220.17 68.42 220.29C68.46 220.41 68.48 220.56 68.48 220.76L68.47 220.77ZM76.63 232.42C76.63 232.93 76.54 233.39 76.35 233.79C76.16 234.19 75.89 234.53 75.55 234.8C75.2 235.07 74.79 235.28 74.31 235.42C73.83 235.56 73.3 235.63 72.72 235.63C72.36 235.63 72.03 235.6 71.7 235.55C71.38 235.5 71.09 235.43 70.83 235.34C70.58 235.26 70.36 235.17 70.18 235.08C70 234.99 69.87 234.91 69.79 234.83C69.71 234.76 69.65 234.65 69.61 234.52C69.57 234.39 69.55 234.2 69.55 233.97C69.55 233.83 69.55 233.71 69.57 233.62C69.58 233.52 69.6 233.45 69.62 233.38C69.64 233.32 69.68 233.28 69.71 233.25C69.75 233.22 69.8 233.21 69.85 233.21C69.93 233.21 70.05 233.26 70.21 233.36C70.37 233.46 70.57 233.57 70.8 233.69C71.03 233.81 71.31 233.92 71.63 234.02C71.95 234.12 72.31 234.17 72.73 234.17C73.04 234.17 73.32 234.14 73.57 234.07C73.82 234.01 74.04 233.91 74.23 233.77C74.42 233.64 74.56 233.47 74.66 233.27C74.76 233.07 74.81 232.83 74.81 232.55C74.81 232.27 74.74 232.03 74.59 231.84C74.45 231.65 74.26 231.48 74.02 231.33C73.78 231.18 73.52 231.05 73.22 230.94C72.92 230.83 72.62 230.7 72.31 230.58C72 230.45 71.69 230.31 71.39 230.15C71.09 229.99 70.82 229.8 70.59 229.57C70.35 229.34 70.17 229.07 70.02 228.75C69.88 228.43 69.8 228.05 69.8 227.6C69.8 227.21 69.88 226.83 70.03 226.47C70.18 226.11 70.41 225.79 70.71 225.53C71.02 225.26 71.4 225.04 71.85 224.88C72.31 224.72 72.84 224.64 73.45 224.64C73.72 224.64 73.98 224.66 74.25 224.71C74.52 224.76 74.75 224.82 74.97 224.88C75.19 224.95 75.37 225.02 75.52 225.1C75.67 225.18 75.79 225.25 75.87 225.32C75.95 225.38 76 225.43 76.03 225.48C76.06 225.53 76.08 225.58 76.09 225.63C76.1 225.68 76.11 225.75 76.12 225.83C76.13 225.91 76.14 226.01 76.14 226.13C76.14 226.26 76.14 226.36 76.12 226.46C76.11 226.55 76.09 226.63 76.06 226.68C76.03 226.74 76 226.78 75.96 226.81C75.92 226.84 75.88 226.85 75.84 226.85C75.77 226.85 75.68 226.81 75.55 226.72C75.42 226.64 75.26 226.55 75.06 226.46C74.86 226.36 74.62 226.28 74.35 226.2C74.08 226.12 73.77 226.07 73.42 226.07C73.11 226.07 72.83 226.1 72.6 226.18C72.36 226.25 72.17 226.35 72.02 226.48C71.87 226.61 71.75 226.76 71.67 226.94C71.59 227.11 71.55 227.31 71.55 227.51C71.55 227.8 71.63 228.04 71.77 228.24C71.92 228.44 72.11 228.61 72.35 228.76C72.59 228.91 72.86 229.04 73.16 229.16C73.46 229.28 73.77 229.4 74.09 229.52C74.41 229.65 74.72 229.79 75.02 229.94C75.33 230.1 75.6 230.29 75.84 230.51C76.08 230.73 76.27 231 76.41 231.31C76.55 231.62 76.63 231.99 76.63 232.42Z" fill="white"/>
<path d="M245.57 338.59C245.57 338.59 245.57 338.69 245.57 338.76C245.57 338.83 245.56 338.91 245.54 338.99C245.52 339.07 245.5 339.16 245.47 339.25C245.44 339.34 245.41 339.42 245.37 339.49C245.33 339.56 245.28 339.61 245.22 339.66C245.16 339.71 245.1 339.73 245.03 339.73H241.3L239 351.22C238.99 351.28 238.96 351.32 238.92 351.36C238.88 351.4 238.83 351.43 238.76 351.46C238.69 351.48 238.59 351.51 238.47 351.52C238.35 351.54 238.21 351.54 238.04 351.54C237.87 351.54 237.73 351.54 237.62 351.52C237.51 351.5 237.43 351.48 237.37 351.46C237.31 351.44 237.27 351.4 237.25 351.36C237.23 351.32 237.23 351.27 237.24 351.22L239.52 339.73H235.82C235.73 339.73 235.66 339.7 235.63 339.64C235.59 339.58 235.58 339.49 235.58 339.38C235.58 339.33 235.58 339.27 235.59 339.2C235.6 339.13 235.61 339.05 235.63 338.96C235.65 338.87 235.67 338.79 235.7 338.7C235.72 338.62 235.76 338.54 235.8 338.47C235.84 338.4 235.88 338.34 235.93 338.3C235.98 338.25 236.04 338.23 236.11 338.23H245.33C245.42 338.23 245.48 338.26 245.52 338.33C245.55 338.39 245.57 338.48 245.57 338.59ZM355.59 343.89C355.59 344.36 355.48 344.78 355.26 345.16C355.04 345.53 354.7 345.85 354.24 346.12C353.78 346.39 353.19 346.59 352.46 346.73C351.74 346.87 350.87 346.95 349.86 346.95H348.77C348.72 347.17 348.69 347.39 348.67 347.6C348.65 347.81 348.65 348.01 348.65 348.19C348.65 348.87 348.82 349.39 349.16 349.76C349.5 350.12 350.05 350.3 350.81 350.3C351.25 350.3 351.64 350.27 351.99 350.2C352.34 350.14 352.64 350.07 352.89 349.99C353.15 349.92 353.36 349.85 353.52 349.78C353.68 349.71 353.8 349.68 353.86 349.68C353.92 349.68 353.97 349.7 354 349.75C354.03 349.8 354.05 349.86 354.05 349.94C354.05 350.01 354.05 350.09 354.03 350.18C354.02 350.27 354 350.37 353.97 350.47C353.94 350.57 353.9 350.67 353.86 350.75C353.81 350.84 353.77 350.91 353.71 350.97C353.63 351.05 353.48 351.13 353.28 351.21C353.07 351.29 352.82 351.36 352.54 351.42C352.25 351.49 351.94 351.54 351.6 351.58C351.26 351.62 350.92 351.64 350.57 351.64C349.97 351.64 349.43 351.57 348.97 351.43C348.51 351.29 348.13 351.08 347.83 350.8C347.53 350.52 347.3 350.16 347.15 349.74C347 349.32 346.92 348.82 346.92 348.24C346.92 347.8 346.96 347.32 347.05 346.81C347.13 346.3 347.27 345.8 347.45 345.3C347.64 344.8 347.87 344.32 348.17 343.87C348.46 343.41 348.81 343.01 349.22 342.66C349.63 342.31 350.09 342.03 350.62 341.82C351.15 341.61 351.76 341.5 352.42 341.5C352.99 341.5 353.48 341.57 353.88 341.72C354.28 341.86 354.61 342.04 354.86 342.27C355.12 342.49 355.3 342.74 355.42 343.02C355.54 343.3 355.59 343.57 355.59 343.84V343.89ZM353.85 344.04C353.85 343.69 353.71 343.41 353.44 343.19C353.17 342.98 352.78 342.87 352.28 342.87C351.84 342.87 351.45 342.95 351.1 343.1C350.76 343.25 350.46 343.46 350.19 343.72C349.93 343.98 349.7 344.28 349.51 344.62C349.32 344.97 349.17 345.33 349.06 345.71H350.1C350.82 345.71 351.41 345.66 351.89 345.58C352.37 345.49 352.76 345.37 353.05 345.22C353.34 345.07 353.54 344.88 353.66 344.68C353.78 344.47 353.84 344.26 353.84 344.03L353.85 344.04ZM364.86 342.83C364.86 342.95 364.85 343.08 364.83 343.21C364.81 343.34 364.77 343.46 364.72 343.57C364.67 343.68 364.61 343.78 364.55 343.85C364.48 343.92 364.41 343.96 364.33 343.96C364.23 343.96 364.13 343.91 364.03 343.81C363.93 343.71 363.79 343.6 363.63 343.48C363.46 343.36 363.25 343.25 362.99 343.15C362.73 343.05 362.41 343 362.01 343C361.57 343 361.18 343.09 360.85 343.27C360.51 343.45 360.21 343.69 359.97 343.98C359.72 344.27 359.51 344.6 359.35 344.96C359.19 345.33 359.05 345.7 358.95 346.07C358.85 346.44 358.78 346.81 358.73 347.16C358.68 347.51 358.66 347.82 358.66 348.08C358.66 348.78 358.81 349.31 359.12 349.67C359.43 350.03 359.89 350.21 360.5 350.21C360.94 350.21 361.32 350.15 361.64 350.05C361.96 349.94 362.23 349.82 362.45 349.68C362.67 349.54 362.86 349.42 363 349.31C363.14 349.2 363.27 349.15 363.38 349.15C363.43 349.15 363.47 349.17 363.5 349.23C363.53 349.28 363.54 349.36 363.54 349.45C363.54 349.53 363.54 349.63 363.52 349.74C363.51 349.85 363.49 349.97 363.46 350.09C363.43 350.21 363.39 350.32 363.35 350.42C363.31 350.52 363.25 350.62 363.17 350.7C363.09 350.79 362.94 350.89 362.74 351.01C362.53 351.13 362.3 351.24 362.03 351.34C361.76 351.44 361.47 351.52 361.16 351.58C360.85 351.65 360.52 351.68 360.19 351.68C359.09 351.68 358.27 351.4 357.72 350.84C357.18 350.28 356.91 349.45 356.91 348.35C356.91 347.93 356.94 347.48 357.02 346.98C357.09 346.49 357.21 345.99 357.38 345.49C357.55 344.99 357.77 344.5 358.03 344.03C358.3 343.56 358.62 343.14 359.01 342.78C359.4 342.42 359.85 342.12 360.36 341.91C360.87 341.69 361.46 341.58 362.12 341.58C362.39 341.58 362.65 341.6 362.91 341.65C363.16 341.7 363.4 341.75 363.62 341.83C363.84 341.91 364.04 342 364.22 342.11C364.4 342.23 364.54 342.32 364.64 342.41C364.74 342.5 364.8 342.57 364.83 342.63C364.85 342.69 364.86 342.76 364.86 342.83ZM374.05 351.23C374.04 351.29 374.01 351.33 373.98 351.37C373.95 351.4 373.9 351.44 373.83 351.47C373.76 351.49 373.67 351.52 373.56 351.53C373.44 351.54 373.31 351.55 373.14 351.55C372.97 351.55 372.84 351.55 372.73 351.53C372.62 351.52 372.53 351.5 372.48 351.47C372.42 351.44 372.38 351.41 372.36 351.37C372.34 351.33 372.34 351.29 372.35 351.23L373.97 343.16H369.21L368.18 348.28C368.15 348.42 368.13 348.58 368.11 348.76C368.09 348.93 368.08 349.08 368.08 349.2C368.08 349.55 368.15 349.8 368.3 349.96C368.45 350.12 368.68 350.2 369.01 350.2C369.2 350.2 369.36 350.19 369.49 350.15C369.63 350.12 369.74 350.09 369.84 350.05C369.94 350.02 370.02 349.98 370.1 349.95C370.18 349.92 370.24 349.9 370.3 349.9C370.36 349.9 370.4 349.92 370.43 349.96C370.46 350 370.48 350.07 370.48 350.17C370.48 350.26 370.47 350.36 370.46 350.46C370.44 350.56 370.42 350.67 370.39 350.77C370.36 350.87 370.33 350.97 370.29 351.05C370.25 351.13 370.21 351.2 370.16 351.24C370.11 351.29 370.02 351.34 369.92 351.39C369.81 351.44 369.68 351.48 369.54 351.52C369.4 351.56 369.25 351.59 369.09 351.61C368.93 351.63 368.77 351.64 368.61 351.64C368.23 351.64 367.89 351.6 367.61 351.52C367.33 351.44 367.1 351.31 366.9 351.14C366.71 350.97 366.57 350.75 366.47 350.49C366.38 350.23 366.33 349.91 366.33 349.54C366.33 349.46 366.33 349.37 366.34 349.27C366.34 349.17 366.36 349.07 366.37 348.96C366.39 348.85 366.4 348.74 366.42 348.63C366.44 348.52 366.45 348.42 366.48 348.32L367.51 343.15H366.23C366.15 343.15 366.1 343.13 366.06 343.08C366.02 343.03 366 342.95 366 342.82C366 342.73 366.01 342.61 366.03 342.49C366.05 342.36 366.08 342.25 366.12 342.14C366.16 342.03 366.21 341.94 366.28 341.86C366.35 341.79 366.42 341.75 366.51 341.75H367.8L368.24 339.56C368.24 339.56 368.27 339.47 368.31 339.43C368.35 339.39 368.4 339.35 368.47 339.32C368.54 339.29 368.63 339.27 368.74 339.25C368.85 339.24 368.99 339.23 369.16 339.23C369.33 339.23 369.46 339.23 369.57 339.25C369.68 339.26 369.76 339.28 369.82 339.32C369.88 339.35 369.91 339.39 369.93 339.43C369.95 339.47 369.95 339.51 369.93 339.56L369.49 341.75H375.41C375.62 341.75 375.75 341.8 375.8 341.89C375.86 341.98 375.87 342.11 375.82 342.29L374.04 351.22L374.05 351.23ZM376.69 338.92C376.66 339.11 376.61 339.27 376.55 339.4C376.49 339.53 376.42 339.63 376.32 339.71C376.23 339.79 376.11 339.84 375.97 339.88C375.83 339.91 375.66 339.93 375.45 339.93C375.24 339.93 375.08 339.91 374.95 339.88C374.82 339.85 374.73 339.79 374.67 339.71C374.61 339.63 374.58 339.52 374.57 339.4C374.57 339.27 374.57 339.11 374.61 338.92C374.64 338.73 374.69 338.57 374.75 338.44C374.81 338.31 374.89 338.21 374.98 338.12C375.08 338.04 375.2 337.98 375.34 337.95C375.48 337.92 375.65 337.9 375.85 337.9C376.05 337.9 376.22 337.91 376.35 337.95C376.48 337.98 376.57 338.04 376.63 338.12C376.69 338.21 376.72 338.31 376.73 338.44C376.73 338.57 376.72 338.73 376.68 338.92H376.69ZM386.51 345.06C386.51 345.57 386.46 346.08 386.37 346.61C386.28 347.13 386.13 347.64 385.94 348.13C385.74 348.62 385.5 349.08 385.2 349.51C384.9 349.94 384.55 350.31 384.14 350.63C383.73 350.95 383.27 351.21 382.76 351.39C382.24 351.58 381.67 351.67 381.03 351.67C380.39 351.67 379.81 351.59 379.35 351.44C378.88 351.28 378.5 351.05 378.2 350.75C377.9 350.45 377.68 350.08 377.54 349.65C377.4 349.21 377.32 348.72 377.32 348.17C377.32 347.66 377.37 347.15 377.46 346.62C377.55 346.1 377.69 345.59 377.89 345.11C378.09 344.62 378.34 344.17 378.63 343.73C378.93 343.3 379.28 342.92 379.68 342.6C380.09 342.28 380.55 342.02 381.06 341.84C381.58 341.65 382.15 341.56 382.79 341.56C383.43 341.56 384.01 341.64 384.47 341.8C384.94 341.96 385.32 342.19 385.63 342.49C385.93 342.79 386.16 343.16 386.3 343.59C386.44 344.03 386.51 344.52 386.51 345.06ZM384.73 345.16C384.73 344.82 384.7 344.51 384.62 344.24C384.55 343.96 384.43 343.73 384.26 343.55C384.09 343.36 383.88 343.21 383.61 343.11C383.34 343.01 383.02 342.96 382.64 342.96C382.23 342.96 381.85 343.03 381.52 343.18C381.19 343.33 380.88 343.53 380.62 343.77C380.35 344.02 380.13 344.31 379.93 344.65C379.73 344.98 379.57 345.34 379.44 345.72C379.31 346.1 379.22 346.49 379.16 346.89C379.1 347.29 379.07 347.68 379.07 348.06C379.07 348.4 379.11 348.71 379.18 348.98C379.26 349.26 379.38 349.49 379.55 349.68C379.72 349.87 379.94 350.02 380.2 350.12C380.47 350.22 380.79 350.27 381.18 350.27C381.6 350.27 381.97 350.2 382.3 350.05C382.63 349.9 382.92 349.7 383.19 349.45C383.45 349.2 383.68 348.9 383.87 348.57C384.06 348.23 384.22 347.88 384.35 347.49C384.48 347.11 384.57 346.72 384.63 346.32C384.69 345.92 384.72 345.53 384.72 345.15L384.73 345.16ZM396.93 344.05C396.93 344.29 396.92 344.53 396.89 344.76C396.87 344.99 396.83 345.23 396.78 345.48L395.63 351.24C395.62 351.3 395.59 351.34 395.56 351.38C395.53 351.41 395.48 351.45 395.41 351.48C395.34 351.5 395.25 351.53 395.14 351.54C395.03 351.55 394.89 351.56 394.72 351.56C394.55 351.56 394.42 351.56 394.32 351.54C394.21 351.53 394.13 351.51 394.08 351.48C394.02 351.45 393.98 351.42 393.96 351.38C393.95 351.34 393.94 351.3 393.95 351.24L395.08 345.55C395.13 345.34 395.16 345.13 395.18 344.94C395.2 344.74 395.2 344.57 395.2 344.41C395.2 343.99 395.11 343.66 394.93 343.4C394.76 343.14 394.46 343.02 394.04 343.02C393.68 343.02 393.31 343.12 392.93 343.33C392.55 343.54 392.2 343.83 391.88 344.19C391.55 344.55 391.27 344.99 391.01 345.49C390.75 345.99 390.57 346.54 390.45 347.13L389.64 351.25C389.63 351.31 389.61 351.35 389.57 351.39C389.53 351.42 389.48 351.46 389.42 351.49C389.35 351.51 389.26 351.54 389.14 351.55C389.03 351.56 388.89 351.57 388.72 351.57C388.55 351.57 388.41 351.57 388.31 351.55C388.21 351.54 388.12 351.52 388.07 351.49C388.01 351.46 387.98 351.43 387.96 351.39C387.95 351.35 387.94 351.31 387.96 351.25L389.8 342.02C389.8 342.02 389.82 341.93 389.86 341.89C389.89 341.85 389.94 341.81 390 341.79C390.07 341.76 390.15 341.74 390.25 341.73C390.35 341.72 390.47 341.72 390.61 341.72C390.75 341.72 390.87 341.72 390.96 341.73C391.05 341.74 391.12 341.76 391.17 341.79C391.22 341.81 391.25 341.85 391.27 341.89C391.28 341.93 391.29 341.97 391.28 342.02L390.93 343.78C391.03 343.55 391.2 343.3 391.43 343.04C391.66 342.78 391.94 342.54 392.26 342.32C392.58 342.1 392.93 341.92 393.32 341.78C393.71 341.64 394.11 341.56 394.53 341.56C394.98 341.56 395.37 341.63 395.67 341.77C395.98 341.91 396.23 342.09 396.42 342.32C396.61 342.55 396.75 342.82 396.83 343.12C396.91 343.42 396.95 343.73 396.95 344.06L396.93 344.05ZM251.43 351.23C251.43 351.29 251.4 351.33 251.37 351.37C251.34 351.41 251.29 351.44 251.23 351.47C251.17 351.49 251.08 351.51 250.98 351.53C250.88 351.54 250.76 351.55 250.61 351.55C250.48 351.55 250.37 351.55 250.27 351.53C250.18 351.52 250.11 351.5 250.05 351.47C250 351.45 249.97 351.41 249.95 351.37C249.93 351.33 249.93 351.28 249.95 351.23L250.29 349.5C250.18 349.73 250.01 349.98 249.77 350.23C249.54 350.49 249.26 350.72 248.94 350.94C248.62 351.16 248.27 351.33 247.89 351.47C247.51 351.61 247.13 351.67 246.74 351.67C246.28 351.67 245.89 351.61 245.57 351.48C245.26 351.35 245 351.18 244.8 350.96C244.61 350.74 244.47 350.47 244.38 350.17C244.29 349.87 244.25 349.53 244.25 349.17C244.25 348.95 244.27 348.72 244.3 348.48C244.33 348.24 244.37 348 244.42 347.77L245.55 342C245.55 342 245.59 341.91 245.62 341.87C245.65 341.83 245.71 341.79 245.78 341.77C245.85 341.74 245.94 341.72 246.05 341.71C246.16 341.7 246.3 341.7 246.46 341.7C246.62 341.7 246.76 341.7 246.87 341.71C246.98 341.72 247.06 341.74 247.12 341.77C247.18 341.79 247.21 341.83 247.23 341.87C247.25 341.91 247.25 341.95 247.24 342L246.12 347.71C246.08 347.88 246.05 348.07 246.03 348.26C246.01 348.45 246 348.64 246 348.84C246 349.04 246.02 349.23 246.06 349.4C246.1 349.57 246.16 349.71 246.26 349.83C246.35 349.95 246.47 350.05 246.61 350.12C246.76 350.19 246.93 350.22 247.14 350.22C247.5 350.22 247.87 350.12 248.25 349.91C248.63 349.7 248.98 349.41 249.31 349.05C249.64 348.68 249.93 348.24 250.19 347.74C250.45 347.23 250.64 346.68 250.76 346.08L251.56 342C251.56 342 251.59 341.91 251.63 341.87C251.67 341.83 251.72 341.79 251.79 341.77C251.86 341.74 251.95 341.72 252.07 341.71C252.18 341.7 252.32 341.7 252.48 341.7C252.64 341.7 252.78 341.7 252.89 341.71C252.99 341.72 253.08 341.74 253.14 341.77C253.2 341.79 253.23 341.83 253.25 341.87C253.27 341.91 253.27 341.95 253.26 342L251.42 351.23H251.43ZM263.54 344.05C263.54 344.29 263.53 344.53 263.5 344.76C263.48 344.99 263.44 345.23 263.39 345.48L262.24 351.24C262.23 351.3 262.2 351.34 262.17 351.38C262.14 351.41 262.09 351.45 262.02 351.48C261.95 351.5 261.86 351.53 261.75 351.54C261.64 351.55 261.5 351.56 261.33 351.56C261.16 351.56 261.03 351.56 260.93 351.54C260.82 351.53 260.74 351.51 260.69 351.48C260.63 351.45 260.59 351.42 260.57 351.38C260.56 351.34 260.55 351.3 260.56 351.24L261.69 345.55C261.74 345.34 261.77 345.13 261.79 344.94C261.81 344.74 261.81 344.57 261.81 344.41C261.81 343.99 261.72 343.66 261.54 343.4C261.37 343.14 261.07 343.02 260.65 343.02C260.29 343.02 259.92 343.12 259.54 343.33C259.16 343.54 258.81 343.83 258.49 344.19C258.17 344.55 257.88 344.99 257.62 345.49C257.36 345.99 257.18 346.54 257.06 347.13L256.25 351.25C256.24 351.31 256.22 351.35 256.18 351.39C256.15 351.42 256.09 351.46 256.03 351.49C255.96 351.51 255.87 351.54 255.75 351.55C255.64 351.56 255.5 351.57 255.33 351.57C255.16 351.57 255.02 351.57 254.92 351.55C254.82 351.54 254.74 351.52 254.68 351.49C254.62 351.46 254.59 351.43 254.57 351.39C254.56 351.35 254.55 351.31 254.57 351.25L256.41 342.02C256.41 342.02 256.43 341.93 256.47 341.89C256.5 341.85 256.55 341.81 256.61 341.79C256.68 341.76 256.76 341.74 256.86 341.73C256.96 341.72 257.08 341.72 257.22 341.72C257.36 341.72 257.48 341.72 257.57 341.73C257.66 341.74 257.73 341.76 257.78 341.79C257.83 341.81 257.86 341.85 257.88 341.89C257.89 341.93 257.9 341.97 257.89 342.02L257.54 343.78C257.64 343.55 257.81 343.3 258.04 343.04C258.27 342.78 258.55 342.54 258.87 342.32C259.19 342.1 259.54 341.92 259.93 341.78C260.32 341.64 260.72 341.56 261.14 341.56C261.59 341.56 261.98 341.63 262.28 341.77C262.59 341.91 262.84 342.09 263.03 342.32C263.22 342.55 263.36 342.82 263.44 343.12C263.52 343.42 263.56 343.73 263.56 344.06L263.54 344.05ZM274.13 343.9C274.13 344.37 274.02 344.79 273.8 345.17C273.58 345.54 273.24 345.86 272.78 346.13C272.32 346.4 271.73 346.6 271 346.74C270.28 346.88 269.41 346.96 268.4 346.96H267.31C267.26 347.18 267.23 347.4 267.21 347.61C267.19 347.82 267.19 348.02 267.19 348.2C267.19 348.88 267.36 349.4 267.7 349.77C268.04 350.13 268.59 350.31 269.35 350.31C269.79 350.31 270.18 350.28 270.53 350.21C270.88 350.15 271.18 350.08 271.43 350C271.69 349.93 271.9 349.86 272.06 349.79C272.22 349.72 272.34 349.69 272.4 349.69C272.46 349.69 272.51 349.71 272.54 349.76C272.57 349.81 272.59 349.87 272.59 349.95C272.59 350.02 272.59 350.1 272.57 350.19C272.56 350.28 272.54 350.38 272.51 350.48C272.48 350.58 272.44 350.68 272.4 350.76C272.35 350.85 272.31 350.92 272.25 350.98C272.17 351.06 272.02 351.14 271.82 351.22C271.61 351.3 271.36 351.37 271.08 351.43C270.79 351.5 270.48 351.55 270.14 351.59C269.8 351.63 269.46 351.65 269.11 351.65C268.51 351.65 267.97 351.58 267.51 351.44C267.05 351.3 266.67 351.09 266.37 350.81C266.07 350.53 265.84 350.17 265.69 349.75C265.54 349.33 265.46 348.83 265.46 348.25C265.46 347.81 265.5 347.33 265.59 346.82C265.67 346.31 265.81 345.81 265.99 345.31C266.18 344.81 266.41 344.33 266.71 343.88C267 343.42 267.35 343.02 267.76 342.67C268.17 342.32 268.63 342.04 269.16 341.83C269.69 341.62 270.3 341.51 270.96 341.51C271.53 341.51 272.02 341.58 272.42 341.73C272.82 341.87 273.15 342.05 273.4 342.28C273.66 342.5 273.84 342.75 273.96 343.03C274.08 343.31 274.14 343.58 274.14 343.85L274.13 343.9ZM272.39 344.05C272.39 343.7 272.25 343.42 271.98 343.2C271.71 342.99 271.32 342.88 270.82 342.88C270.38 342.88 269.99 342.96 269.64 343.11C269.3 343.26 269 343.47 268.73 343.73C268.47 343.99 268.24 344.29 268.05 344.63C267.86 344.98 267.71 345.34 267.6 345.72H268.64C269.36 345.72 269.95 345.67 270.43 345.59C270.91 345.5 271.3 345.38 271.59 345.23C271.88 345.08 272.08 344.89 272.2 344.69C272.32 344.48 272.38 344.27 272.38 344.04L272.39 344.05ZM282.99 351.23C282.97 351.35 282.9 351.43 282.77 351.48C282.64 351.53 282.44 351.55 282.15 351.55C282.01 351.55 281.89 351.55 281.8 351.53C281.71 351.52 281.64 351.5 281.59 351.47C281.53 351.45 281.5 351.42 281.48 351.38C281.46 351.34 281.46 351.29 281.48 351.23L281.81 349.51C281.72 349.73 281.56 349.97 281.33 350.23C281.1 350.49 280.82 350.72 280.51 350.94C280.19 351.15 279.84 351.33 279.45 351.47C279.06 351.61 278.66 351.68 278.26 351.68C277.86 351.68 277.51 351.63 277.21 351.52C276.92 351.41 276.67 351.27 276.47 351.09C276.27 350.91 276.11 350.71 275.98 350.47C275.85 350.23 275.76 349.99 275.68 349.74C275.61 349.49 275.56 349.24 275.54 348.99C275.52 348.74 275.5 348.51 275.5 348.3C275.5 347.91 275.54 347.46 275.61 346.97C275.69 346.48 275.81 345.99 275.97 345.49C276.13 344.99 276.34 344.51 276.6 344.04C276.86 343.56 277.17 343.15 277.53 342.78C277.89 342.42 278.31 342.12 278.78 341.9C279.26 341.67 279.79 341.56 280.39 341.56C280.68 341.56 280.96 341.59 281.22 341.66C281.48 341.72 281.72 341.81 281.93 341.93C282.14 342.04 282.33 342.18 282.51 342.34C282.68 342.5 282.85 342.66 282.99 342.83L284.04 337.62C284.04 337.62 284.07 337.53 284.1 337.48C284.14 337.43 284.19 337.4 284.25 337.38C284.32 337.36 284.41 337.33 284.52 337.32C284.63 337.3 284.77 337.3 284.94 337.3C285.11 337.3 285.24 337.3 285.35 337.32C285.45 337.34 285.54 337.36 285.6 337.38C285.66 337.4 285.7 337.44 285.72 337.48C285.74 337.53 285.74 337.57 285.72 337.62L283 351.24L282.99 351.23ZM282.65 344.45C282.33 343.98 281.98 343.62 281.61 343.37C281.24 343.12 280.82 343 280.36 343C280 343 279.67 343.08 279.38 343.25C279.09 343.42 278.83 343.64 278.59 343.92C278.36 344.2 278.16 344.52 277.99 344.88C277.82 345.24 277.68 345.62 277.57 346C277.46 346.38 277.38 346.76 277.32 347.14C277.27 347.52 277.24 347.86 277.24 348.18C277.24 348.84 277.35 349.35 277.58 349.7C277.8 350.05 278.17 350.23 278.67 350.23C279.04 350.23 279.42 350.13 279.8 349.92C280.18 349.72 280.53 349.43 280.86 349.07C281.19 348.71 281.48 348.28 281.73 347.78C281.98 347.28 282.17 346.74 282.29 346.15L282.63 344.45H282.65ZM297.42 342.13C297.42 342.19 297.42 342.26 297.41 342.33C297.41 342.4 297.39 342.47 297.37 342.55C297.35 342.62 297.32 342.7 297.29 342.77C297.26 342.85 297.22 342.91 297.18 342.97C297.14 343.03 297.1 343.07 297.05 343.11C297.01 343.14 296.95 343.16 296.89 343.16H294.54L293.51 348.28C293.48 348.42 293.46 348.58 293.44 348.76C293.42 348.93 293.41 349.08 293.41 349.2C293.41 349.55 293.48 349.8 293.63 349.96C293.78 350.12 294.02 350.2 294.35 350.2C294.53 350.2 294.69 350.19 294.83 350.15C294.97 350.12 295.08 350.09 295.18 350.05C295.28 350.02 295.36 349.98 295.44 349.95C295.51 349.92 295.58 349.9 295.63 349.9C295.68 349.9 295.72 349.92 295.76 349.96C295.79 350 295.81 350.07 295.81 350.17C295.81 350.26 295.81 350.36 295.79 350.46C295.77 350.56 295.75 350.67 295.72 350.77C295.69 350.87 295.66 350.97 295.62 351.05C295.58 351.13 295.53 351.2 295.49 351.24C295.43 351.29 295.35 351.34 295.25 351.39C295.14 351.44 295.02 351.48 294.87 351.52C294.73 351.56 294.58 351.59 294.42 351.61C294.26 351.63 294.1 351.64 293.95 351.64C293.57 351.64 293.23 351.6 292.95 351.52C292.67 351.44 292.43 351.31 292.24 351.14C292.05 350.97 291.91 350.75 291.81 350.49C291.72 350.23 291.67 349.91 291.67 349.54C291.67 349.46 291.67 349.37 291.68 349.27C291.68 349.17 291.7 349.07 291.71 348.96C291.73 348.85 291.75 348.74 291.76 348.63C291.78 348.52 291.79 348.42 291.82 348.32L292.86 343.15H291.58C291.5 343.15 291.44 343.13 291.41 343.08C291.37 343.03 291.35 342.95 291.35 342.82C291.35 342.73 291.36 342.61 291.38 342.49C291.4 342.36 291.43 342.25 291.47 342.14C291.51 342.03 291.56 341.94 291.63 341.86C291.69 341.79 291.77 341.75 291.86 341.75H293.15L293.59 339.56C293.59 339.56 293.62 339.47 293.66 339.43C293.7 339.39 293.75 339.35 293.82 339.32C293.89 339.29 293.98 339.27 294.09 339.25C294.2 339.24 294.34 339.23 294.51 339.23C294.68 339.23 294.81 339.23 294.91 339.25C295.01 339.26 295.1 339.28 295.15 339.32C295.21 339.35 295.25 339.39 295.26 339.43C295.28 339.47 295.28 339.51 295.28 339.56L294.84 341.75H297.19C297.29 341.75 297.36 341.79 297.39 341.86C297.42 341.94 297.44 342.02 297.44 342.12L297.42 342.13ZM306.93 345.06C306.93 345.57 306.88 346.08 306.79 346.61C306.7 347.13 306.55 347.64 306.36 348.13C306.16 348.62 305.92 349.08 305.62 349.51C305.32 349.94 304.97 350.31 304.56 350.63C304.15 350.95 303.69 351.21 303.18 351.39C302.66 351.58 302.09 351.67 301.45 351.67C300.81 351.67 300.23 351.59 299.77 351.44C299.3 351.28 298.92 351.05 298.62 350.75C298.32 350.45 298.1 350.08 297.96 349.65C297.82 349.21 297.74 348.72 297.74 348.17C297.74 347.66 297.79 347.15 297.88 346.62C297.97 346.1 298.11 345.59 298.31 345.11C298.51 344.62 298.76 344.17 299.05 343.73C299.35 343.3 299.7 342.92 300.1 342.6C300.51 342.28 300.97 342.02 301.48 341.84C302 341.65 302.57 341.56 303.21 341.56C303.85 341.56 304.43 341.64 304.89 341.8C305.36 341.96 305.74 342.19 306.05 342.49C306.35 342.79 306.58 343.16 306.72 343.59C306.86 344.03 306.93 344.52 306.93 345.06ZM305.15 345.16C305.15 344.82 305.12 344.51 305.04 344.24C304.97 343.96 304.85 343.73 304.68 343.55C304.51 343.36 304.3 343.21 304.03 343.11C303.76 343.01 303.44 342.96 303.05 342.96C302.64 342.96 302.26 343.03 301.93 343.18C301.6 343.33 301.29 343.53 301.03 343.77C300.76 344.02 300.54 344.31 300.34 344.65C300.14 344.98 299.98 345.34 299.85 345.72C299.72 346.1 299.63 346.49 299.57 346.89C299.51 347.29 299.48 347.68 299.48 348.06C299.48 348.4 299.52 348.71 299.59 348.98C299.67 349.26 299.79 349.49 299.96 349.68C300.13 349.87 300.35 350.02 300.61 350.12C300.88 350.22 301.2 350.27 301.59 350.27C302.01 350.27 302.38 350.2 302.71 350.05C303.04 349.9 303.34 349.7 303.6 349.45C303.86 349.2 304.09 348.9 304.28 348.57C304.47 348.23 304.63 347.88 304.76 347.49C304.89 347.11 304.98 346.72 305.04 346.32C305.1 345.92 305.13 345.53 305.13 345.15L305.15 345.16ZM323.33 341.36C323.33 341.72 323.29 342.1 323.2 342.5C323.12 342.89 322.98 343.28 322.79 343.66C322.6 344.04 322.37 344.4 322.09 344.74C321.81 345.08 321.47 345.38 321.06 345.63C320.66 345.89 320.19 346.09 319.67 346.24C319.15 346.39 318.53 346.46 317.82 346.46H315.99L315.04 351.24C315.04 351.24 315 351.33 314.97 351.37C314.94 351.41 314.88 351.44 314.8 351.47C314.72 351.49 314.63 351.52 314.51 351.53C314.4 351.55 314.26 351.55 314.08 351.55C313.93 351.55 313.79 351.55 313.68 351.53C313.57 351.52 313.48 351.5 313.42 351.47C313.36 351.45 313.31 351.41 313.29 351.37C313.27 351.33 313.26 351.28 313.28 351.23L315.71 339C315.77 338.73 315.88 338.53 316.05 338.42C316.22 338.3 316.42 338.25 316.65 338.25H319.26C319.6 338.25 319.91 338.26 320.17 338.28C320.43 338.3 320.69 338.34 320.93 338.4C321.3 338.48 321.63 338.61 321.93 338.78C322.23 338.95 322.48 339.16 322.68 339.41C322.89 339.66 323.04 339.95 323.15 340.28C323.26 340.6 323.31 340.97 323.31 341.37L323.33 341.36ZM321.46 341.54C321.46 341.11 321.35 340.75 321.15 340.45C320.94 340.15 320.62 339.93 320.18 339.81C320.02 339.76 319.83 339.73 319.64 339.72C319.44 339.71 319.23 339.7 319 339.7H317.34L316.29 345.02H317.97C318.46 345.02 318.87 344.96 319.2 344.86C319.54 344.75 319.83 344.61 320.08 344.43C320.33 344.25 320.55 344.04 320.72 343.8C320.89 343.56 321.03 343.31 321.15 343.06C321.26 342.8 321.34 342.54 321.39 342.28C321.44 342.01 321.47 341.77 321.47 341.55L321.46 341.54ZM332.31 343.9C332.31 344.37 332.2 344.79 331.98 345.17C331.76 345.54 331.42 345.86 330.96 346.13C330.5 346.4 329.91 346.6 329.18 346.74C328.46 346.88 327.59 346.96 326.58 346.96H325.49C325.44 347.18 325.41 347.4 325.39 347.61C325.37 347.82 325.37 348.02 325.37 348.2C325.37 348.88 325.54 349.4 325.88 349.77C326.22 350.13 326.77 350.31 327.53 350.31C327.97 350.31 328.36 350.28 328.71 350.21C329.06 350.15 329.36 350.08 329.61 350C329.87 349.93 330.08 349.86 330.24 349.79C330.4 349.72 330.52 349.69 330.58 349.69C330.64 349.69 330.69 349.71 330.72 349.76C330.75 349.81 330.77 349.87 330.77 349.95C330.77 350.02 330.77 350.1 330.75 350.19C330.74 350.28 330.72 350.38 330.69 350.48C330.66 350.58 330.62 350.68 330.58 350.76C330.53 350.85 330.49 350.92 330.43 350.98C330.35 351.06 330.2 351.14 330 351.22C329.79 351.3 329.54 351.37 329.26 351.43C328.97 351.5 328.66 351.55 328.32 351.59C327.98 351.63 327.64 351.65 327.29 351.65C326.69 351.65 326.15 351.58 325.69 351.44C325.23 351.3 324.85 351.09 324.55 350.81C324.25 350.53 324.02 350.17 323.87 349.75C323.72 349.33 323.64 348.83 323.64 348.25C323.64 347.81 323.68 347.33 323.77 346.82C323.85 346.31 323.99 345.81 324.17 345.31C324.36 344.81 324.59 344.33 324.89 343.88C325.18 343.42 325.53 343.02 325.94 342.67C326.35 342.32 326.81 342.04 327.34 341.83C327.87 341.62 328.48 341.51 329.14 341.51C329.71 341.51 330.2 341.58 330.6 341.73C331 341.87 331.33 342.05 331.58 342.28C331.84 342.5 332.02 342.75 332.14 343.03C332.26 343.31 332.32 343.58 332.32 343.85L332.31 343.9ZM330.57 344.05C330.57 343.7 330.43 343.42 330.17 343.2C329.9 342.99 329.51 342.88 329.01 342.88C328.57 342.88 328.18 342.96 327.83 343.11C327.49 343.26 327.19 343.47 326.92 343.73C326.66 343.99 326.43 344.29 326.24 344.63C326.05 344.98 325.9 345.34 325.79 345.72H326.83C327.55 345.72 328.14 345.67 328.62 345.59C329.1 345.5 329.49 345.38 329.78 345.23C330.07 345.08 330.27 344.89 330.39 344.69C330.51 344.48 330.57 344.27 330.57 344.04V344.05ZM340.56 342.03C340.56 342.03 340.56 342.11 340.55 342.19C340.54 342.27 340.53 342.36 340.51 342.46C340.5 342.56 340.48 342.67 340.45 342.78C340.42 342.89 340.39 342.99 340.35 343.08C340.31 343.17 340.27 343.25 340.22 343.31C340.18 343.37 340.13 343.4 340.07 343.4C340.01 343.4 339.96 343.39 339.89 343.37C339.82 343.35 339.75 343.32 339.68 343.28C339.6 343.24 339.51 343.22 339.41 343.19C339.31 343.17 339.19 343.16 339.05 343.16C338.82 343.16 338.55 343.26 338.25 343.46C337.95 343.66 337.65 343.94 337.35 344.29C337.06 344.65 336.79 345.07 336.55 345.55C336.31 346.04 336.13 346.56 336.01 347.13L335.21 351.23C335.2 351.29 335.17 351.33 335.14 351.37C335.11 351.4 335.05 351.44 334.99 351.47C334.92 351.49 334.83 351.52 334.71 351.53C334.6 351.54 334.46 351.55 334.29 351.55C334.12 351.55 333.98 351.55 333.88 351.53C333.78 351.52 333.69 351.5 333.64 351.47C333.58 351.44 333.55 351.41 333.53 351.37C333.52 351.33 333.51 351.29 333.53 351.23L335.35 342C335.35 342 335.38 341.91 335.41 341.87C335.44 341.83 335.49 341.79 335.56 341.77C335.63 341.74 335.71 341.72 335.81 341.71C335.91 341.7 336.03 341.7 336.17 341.7C336.31 341.7 336.43 341.7 336.52 341.71C336.61 341.72 336.68 341.74 336.73 341.77C336.78 341.79 336.81 341.83 336.83 341.87C336.84 341.91 336.85 341.95 336.84 342L336.5 343.68C336.66 343.4 336.85 343.13 337.06 342.87C337.28 342.61 337.51 342.38 337.76 342.19C338.01 341.99 338.28 341.84 338.55 341.72C338.83 341.6 339.1 341.55 339.37 341.55C339.49 341.55 339.6 341.55 339.72 341.57C339.84 341.59 339.95 341.61 340.05 341.63C340.15 341.65 340.24 341.68 340.32 341.71C340.4 341.74 340.46 341.78 340.5 341.82C340.54 341.86 340.56 341.92 340.56 342.01V342.03ZM348.4 337.83C348.4 337.83 348.4 337.9 348.39 337.96C348.39 338.02 348.38 338.09 348.37 338.16C348.36 338.23 348.34 338.31 348.32 338.39C348.3 338.47 348.27 338.54 348.25 338.61C348.22 338.68 348.19 338.73 348.16 338.77C348.12 338.81 348.09 338.83 348.04 338.83C347.99 338.83 347.94 338.82 347.86 338.79C347.79 338.77 347.71 338.73 347.61 338.71C347.52 338.68 347.4 338.65 347.27 338.62C347.14 338.59 347 338.58 346.84 338.58C346.54 338.58 346.29 338.63 346.08 338.71C345.87 338.8 345.69 338.94 345.54 339.13C345.39 339.32 345.26 339.56 345.16 339.85C345.06 340.14 344.97 340.48 344.89 340.87L344.72 341.8H346.78C346.86 341.8 346.92 341.82 346.96 341.88C347.01 341.93 347.03 342.02 347.03 342.13C347.03 342.2 347.03 342.28 347.01 342.36C347 342.44 346.98 342.52 346.96 342.6C346.94 342.68 346.91 342.75 346.88 342.83C346.85 342.9 346.82 342.97 346.78 343.02C346.74 343.08 346.7 343.12 346.65 343.15C346.6 343.18 346.56 343.2 346.51 343.2H344.44L342.7 351.91C342.58 352.48 342.43 352.98 342.23 353.4C342.03 353.82 341.79 354.17 341.5 354.44C341.21 354.72 340.88 354.92 340.51 355.06C340.14 355.19 339.71 355.26 339.24 355.26C338.93 355.26 338.68 355.24 338.49 355.19C338.3 355.14 338.18 355.1 338.13 355.06C338.11 355.03 338.08 354.99 338.07 354.95C338.06 354.91 338.05 354.86 338.05 354.79C338.05 354.76 338.05 354.72 338.06 354.65C338.07 354.59 338.08 354.52 338.1 354.45C338.11 354.38 338.13 354.3 338.15 354.22C338.17 354.14 338.2 354.07 338.22 354C338.24 353.93 338.28 353.88 338.31 353.84C338.35 353.8 338.38 353.78 338.43 353.78C338.48 353.78 338.52 353.78 338.57 353.79C338.62 353.8 338.66 353.81 338.71 353.82C338.76 353.83 338.83 353.84 338.9 353.85C338.97 353.86 339.06 353.86 339.17 353.86C339.46 353.86 339.7 353.81 339.91 353.73C340.12 353.64 340.3 353.5 340.44 353.32C340.59 353.13 340.71 352.89 340.81 352.61C340.91 352.32 341 351.98 341.08 351.58L342.75 343.22H341.44C341.37 343.22 341.32 343.2 341.28 343.15C341.24 343.1 341.22 343.02 341.22 342.9C341.22 342.84 341.22 342.78 341.23 342.7C341.23 342.62 341.25 342.54 341.26 342.46C341.28 342.38 341.3 342.3 341.33 342.22C341.36 342.15 341.39 342.08 341.43 342.02C341.47 341.96 341.51 341.91 341.56 341.87C341.61 341.83 341.66 341.81 341.73 341.81H343.02L343.28 340.52C343.39 339.96 343.55 339.47 343.75 339.05C343.96 338.63 344.2 338.28 344.49 338.01C344.78 337.74 345.11 337.53 345.5 337.4C345.88 337.27 346.3 337.2 346.75 337.2C346.9 337.2 347.06 337.2 347.22 337.22C347.38 337.24 347.53 337.26 347.67 337.29C347.81 337.32 347.94 337.36 348.04 337.4C348.15 337.44 348.22 337.48 348.26 337.52C348.3 337.56 348.33 337.6 348.35 337.66C348.37 337.72 348.38 337.79 348.38 337.86L348.4 337.83Z" fill="white"/>
<path fill-rule="evenodd" clip-rule="evenodd" d="M231.55 187.02L199.84 184.04C195.99 183.68 196.9 183.72 192.91 184.33L153.36 190.36C148.84 191.05 149.67 191.57 151.56 194.16C152.62 195.61 153.73 197.01 154.89 198.37C157.26 201.15 157.73 200.84 159.85 200.27L179.03 194.6C182.86 193.47 182.65 193.74 184.01 195.25L185.05 196.39C186.57 197.91 186.82 197.89 185.92 200.67L181.84 213.22C181.43 214.48 181.31 216.8 179.78 217.04C178.69 217.21 177.55 216.28 177.81 215.82C177.92 215.64 178.08 215.85 178.3 215.92C178.71 216.06 179.3 215.87 179.56 215.43C180.12 214.47 179.14 213.29 178.06 213.78C176.47 214.5 176.87 216.59 178.57 217.29C179.05 217.49 179.71 217.54 180.27 217.39C181.95 216.94 182.08 215.68 183.12 213.58L187.78 203.22C188.95 200.44 189.49 201.25 190.5 202.4L203.36 216.53C205.3 218.66 202.16 213.84 202.43 213.4C202.49 213.29 198 206.89 201.54 208.02C201.98 208.16 222.39 214.13 224.46 215.69C227.97 218.35 224.93 223.62 223.51 222.81C223.09 222.57 223.56 222.18 223.73 221.68C224.05 220.73 223.59 219.37 222.56 218.79C220.35 217.53 217.66 219.79 218.81 222.26C220.5 225.89 225.29 224.93 226.86 221.01C227.07 220.49 227.2 219.89 227.25 219.26C227.68 213.35 221.24 212.77 216.68 210.82C216.33 210.67 210.7 208.66 213.03 207.45C214.07 206.91 215.88 205.74 216.75 204.82C216.97 204.59 217.17 204.32 217.32 203.99C217.99 202.57 216.09 200.52 214.81 201.45C214.35 201.78 214.31 202.55 214.68 203.22C215.17 204.11 215.82 204.06 215.85 204.6C215.92 205.7 211.11 207.01 211.17 207.93C211.22 208.71 208.99 207.92 208.99 207.92L205.82 206.52L197.84 203.11C195.1 201.94 195.75 202.39 193.77 199.73L189.57 194.08C188.52 192.66 187.44 192.11 190.82 191.11L193.96 190.18C197.29 189.19 196.73 189.29 199.98 189.5L222.86 190.94C226.48 195 223.39 191.77 220.31 193.3C219.13 193.89 218.25 195.41 218.1 196.67C217.71 199.91 220.6 202.34 223.09 200.51C224.78 199.26 223.8 196.73 221.84 196.76C220.92 196.78 220.11 197.53 219.97 198.29C219.9 198.69 220.07 199.13 219.7 199.14C218.44 199.16 218.06 194.48 221.43 193.98C225.68 193.35 227.22 195.84 229.68 198.6L238.8 208.84C239.05 209.44 239.11 210 238.88 210.49C238.37 211.58 236.97 212.33 236.76 213.59C236.2 216.94 241.62 219.2 243.55 214.84C244.37 212.98 242.99 210.5 241.95 209.03L238.7 204.43C236.32 201.15 235.56 200.63 237.49 200.86C241.3 201.32 254.49 200.15 254.02 204.1C253.9 205.22 255.22 206.4 256.34 206.5C257.61 206.6 258.45 205.94 258.85 205.07C259.66 203.28 258.36 201.8 257.11 201.37C255.29 200.75 256.6 201.13 254.63 200.8C253.89 200.69 251.79 200.6 254.09 200.13L256.34 199.57L256.09 199.07C256.09 199.07 254.53 199.64 252.99 199.76C249.95 200 242.53 198.88 239.56 198.39L236.54 197.89C233.37 197.21 234.21 197.86 232.25 194.94L230.33 191.4C239.65 192.59 238.26 182.95 236.64 181.69C234.79 180.25 238.11 187.63 231.54 187.02H231.55Z" fill="#EE8162"/>
<path fill-rule="evenodd" clip-rule="evenodd" d="M193.12 108.79C197.47 109.96 197.73 110.78 197.37 105.97L195.97 87.15C195.82 85.16 198.73 84.71 199.13 86.71L204.04 111.32C204.78 115.04 204.04 115.32 208.09 118.03L240.72 139.46C242.29 140.49 244.44 141.19 244.44 137.73L244.83 133.06C245.15 129.13 244.76 128.45 243.48 126.62L235 113.38C234.7 113.08 234.25 112.46 233.79 112.48C232.89 112.53 232.94 113.61 231.45 114.41C230.32 115.02 229.05 114.93 228.5 114.15C226.97 111.99 230.45 108.86 232.81 110.01C236.99 110.71 246.31 129.74 245.84 122.61C245.72 120.75 245.65 119.43 246.04 117.25L248.9 101.09C249.15 99.18 250.44 101.29 250.44 102.09L249.61 116.69C249.48 118.93 254.77 117.45 259.38 116.03C259.66 115.9 259.89 115.78 260.04 115.67C264.18 112.75 260.52 106.77 258.86 107.65C258.37 107.91 258.9 108.38 259.07 108.96C259.4 110.06 258.82 111.61 257.61 112.25C255.02 113.62 252.01 110.91 253.42 108.11C255.5 103.99 260.98 105.28 262.64 109.85C263.2 111.38 263.17 113.52 262.41 115.1L262.64 115.03C264 114.73 265.12 115.21 263.12 115.97L260.58 117.15C258.78 118.4 254.28 120.07 252.07 121.1C250.59 121.49 250.46 122.49 250.47 125.17L250.5 141.71C250.5 146.27 251.24 146.39 253.65 147.97L273.57 161.05C275.13 162.07 275.28 162.51 275.14 163.53C274.7 166.64 274.04 169.69 273.19 172.66C272.77 174.12 272.1 174.51 270.34 173.2L249.71 157.91C244.17 153.8 244.9 156.74 244.09 161.25C243.26 165.88 241.13 179.37 241.08 182.64C241.05 184.26 241.35 185.47 242.19 186.01C244.32 187.38 245.95 184.83 250.66 185.44C254.21 185.9 256.97 188.18 256.95 190.85C256.9 198.26 243.87 199.69 240.39 193.2C239.59 191.72 239.11 190.23 238.86 188.74C238.6 187.23 238.63 185.03 238.8 182.63C238.92 180.92 239.31 177.03 239.72 173.17L241.86 159.94L242.4 156.56C243.14 152.04 204.74 124.57 202.14 122.64C199.44 120.64 198.62 119.45 198.25 117.09C198.08 116.03 198.26 115.74 196.43 114.93C196.34 114.94 186.61 110.31 177.76 106.58C174.65 105.27 164.12 99.08 162.19 104.06C161.64 105.48 161.79 106.98 162.54 107.15C162.99 107.25 162.91 106.67 163.12 106.21C163.51 105.33 164.72 104.67 165.83 104.93C168.21 105.48 168.64 108.83 166.22 109.83C162.67 111.3 159.91 107.5 161.34 103.7C161.96 102.07 163.28 101.03 164.32 100.59C168.13 98.97 188.3 107.24 193.09 108.77L193.12 108.79Z" fill="#EE8162"/>
<path fill-rule="evenodd" clip-rule="evenodd" d="M139.29 164.79C138.82 161.9 138.62 156.52 138.52 153.51L147.52 152.47C149.63 152.22 150.68 152.22 151.43 148.23L152.8 141C153.25 138.62 153.14 138.76 151.33 136.33L146.27 129.56C145.64 128.72 146.8 128.3 146.98 128.47L147.44 128.91C148.07 127.95 149.31 127.51 150.3 126.33C150.33 126.3 150.36 126.27 150.38 126.24C150.41 126.2 150.51 126.09 150.54 126.04C151.14 125.23 151.46 124.14 151.5 123.14C151.6 120.53 152.93 123.78 151.56 126.61C150.03 129.78 148.99 130.26 150.59 131.92L152.14 133.53L152.76 134.14C154.12 135.5 153.94 135.02 154.4 132.62L155.9 124.67C156.11 123.24 156.36 121.78 156.76 120.4C156.98 119.66 157.3 118.93 157.8 118.22C159.95 115.11 166.5 116.59 166.11 120.37C165.97 121.73 164.43 122.74 162.59 122.77C160.15 122.81 159.47 121.42 158.31 122C158.1 122.1 157.94 122.29 157.81 122.53L155.9 148.37C155.63 152.06 156.51 151.49 158.35 151.18C161.69 150.63 161.88 149.87 165.89 147.32L173.66 142L177.64 139.27C177.45 138.89 177.36 138.52 177.38 138.16C177.53 135.05 180.35 133.36 181.87 129.78C181.9 129.7 181.95 129.61 181.98 129.54C182.02 129.43 182.15 129.14 182.19 129.03C182.91 126.96 182.88 124.5 182.32 122.42C180.86 116.94 185.69 122.84 184.66 129.56C184.29 131.95 183.85 133.77 183.55 135.21L185.41 133.93L212.1 115.67C215.38 113.58 215.67 113.66 218.01 109C219.36 106.77 224.24 97.02 226.83 95.77C228.31 95.06 230.47 95.35 231.83 96.17C235.31 98.26 235.5 102.95 231.8 104C229.28 104.71 227.54 101.82 229.07 99.92C229.78 99.03 231.14 98.81 231.99 99.25C232.44 99.48 232.74 99.99 233.03 99.63C234.01 98.41 229.7 94.47 226.65 97.39C226.23 97.8 225.44 99.08 224.73 100.38C222.87 105.06 221.18 109.29 219.02 114.73C218.14 116.94 217.99 117.4 214.73 119.88L181.1 145.45C178.84 147.17 175.45 150.13 173.59 151.86C172.82 152.57 172.52 153.21 172.56 153.67C172.56 153.72 172.57 153.76 172.58 153.8C173.05 156.78 173.48 159.8 173.99 162.77L174.21 164.04L174.74 167.37C175.27 171.1 175.55 174.89 174.9 178.89C174.67 180.33 174.22 181.76 173.46 183.2C170.17 189.48 158.82 187.99 158.7 180.86C158.66 178.29 160.09 176.3 163.5 175.82C168.03 175.19 169.62 177.63 171.66 176.29C173.97 174.77 171.4 152.88 168.74 154.85L164.8 157.84C160.69 160.96 161.74 160.58 157.17 161.45L148.53 163.08C146.35 163.49 145.82 163.41 146.48 164.87C147.1 166.25 147.84 167.73 148.53 169.22C149.99 172.37 150.6 176.9 155.1 176.77C158.2 176.67 161.03 173.91 160.19 172.66C159.83 172.13 159.36 172.8 158.72 173.07C157.5 173.58 155.66 173.12 154.78 171.82C152.89 169.03 155.6 165.25 158.99 166.51C163.96 168.36 163.17 174.79 158.16 177.28C156.2 178.25 153.2 178.41 151.25 177.27C148.77 175.81 146.83 171.15 145.2 168.46C144.28 166.93 142.14 164.29 140.27 164.65L139.26 164.84L139.29 164.79Z" fill="#EE8162"/>
<path fill-rule="evenodd" clip-rule="evenodd" d="M222.44 90.63L214.18 88.82C209.64 87.83 205.52 90.84 204.12 95.27L201.36 104.01L210.57 105.34C215.17 106 219.64 103.43 220.63 98.89L222.44 90.63Z" fill="#93C13E"/>
<path fill-rule="evenodd" clip-rule="evenodd" d="M182.09 87.62L186.93 91.8C189.59 94.1 189.89 98.16 187.59 100.82L183.41 105.66L178.57 101.48C175.91 99.18 175.61 95.12 177.91 92.46L182.09 87.62Z" fill="#93C13E"/>
<path fill-rule="evenodd" clip-rule="evenodd" d="M187.21 89.96L190.12 88.07C191.72 87.03 193.88 87.49 194.91 89.09L196.8 92L193.89 93.89C192.29 94.93 190.13 94.47 189.1 92.87L187.21 89.96Z" fill="#93C13E"/>
<path fill-rule="evenodd" clip-rule="evenodd" d="M225.09 113.98L220.88 118.05C218.57 120.29 218.5 124.02 220.74 126.33L224.82 130.54L229.03 126.47C231.34 124.23 231.41 120.5 229.17 118.19L225.1 113.98H225.09Z" fill="#93C13E"/>
<path fill-rule="evenodd" clip-rule="evenodd" d="M245.76 99.01L240.24 100.09C237.21 100.68 235.62 103.6 235.8 106.68L236.18 113.4L242.4 111.13C245.3 110.07 247.43 107.57 246.84 104.54L245.76 99.02V99.01Z" fill="#93C13E"/>
<path fill-rule="evenodd" clip-rule="evenodd" d="M271.55 134.91L263.27 132.91C258.72 131.81 254.09 134.64 252.99 139.2L250.99 147.48L259.27 149.48C263.82 150.58 268.45 147.75 269.55 143.19L271.55 134.91Z" fill="#93C13E"/>
<path fill-rule="evenodd" clip-rule="evenodd" d="M255.2 119.06L255.49 124.78C255.62 127.34 257.05 129.66 259.6 129.95L264.24 130.48L264.77 125.84C265.06 123.29 263.12 121.4 260.66 120.67L255.2 119.06Z" fill="#93C13E"/>
<path fill-rule="evenodd" clip-rule="evenodd" d="M176.63 130.24L169.08 128.42C164.93 127.42 161.52 130.28 159.71 134.15L155.73 142.66L165.45 143.53C169.7 143.91 173.82 141.95 174.82 137.8L176.64 130.25L176.63 130.24Z" fill="#93C13E"/>
<path fill-rule="evenodd" clip-rule="evenodd" d="M168.56 117.28L174.18 115.68C177.27 114.8 180.52 116.61 181.39 119.7L182.99 125.32L177.37 126.92C174.28 127.8 171.03 125.99 170.16 122.9L168.56 117.28Z" fill="#93C13E"/>
<path fill-rule="evenodd" clip-rule="evenodd" d="M187.29 113.59L192.82 115.31C195.86 116.26 197.57 119.52 196.63 122.56L194.91 128.09L189.38 126.37C186.34 125.42 184.63 122.16 185.57 119.12L187.29 113.59Z" fill="#93C13E"/>
<path fill-rule="evenodd" clip-rule="evenodd" d="M177.37 106.22L173.86 105.45C171.93 105.03 170.01 106.26 169.59 108.19L168.82 111.7L172.33 112.47C174.26 112.89 176.18 111.66 176.6 109.73L177.37 106.22Z" fill="#93C13E"/>
<path fill-rule="evenodd" clip-rule="evenodd" d="M150.03 109.46L154.45 111.56C156.88 112.72 157.92 115.65 156.76 118.08L154.66 122.5L150.24 120.4C147.81 119.24 146.77 116.31 147.93 113.88L150.03 109.46Z" fill="#93C13E"/>
<path fill-rule="evenodd" clip-rule="evenodd" d="M242.68 128.17L238.91 126.9C236.84 126.2 234.57 127.32 233.87 129.4L232.6 133.17L236.37 134.44C238.44 135.14 240.71 134.02 241.41 131.94L242.68 128.17Z" fill="#93C13E"/>
<path fill-rule="evenodd" clip-rule="evenodd" d="M166.61 171.24L169.46 168.45C171.03 166.92 171.06 164.38 169.53 162.81L166.74 159.96L163.89 162.75C162.32 164.28 162.29 166.82 163.82 168.39L166.61 171.24Z" fill="#93C13E"/>
<path fill-rule="evenodd" clip-rule="evenodd" d="M139.81 138.32L145.03 137.67C147.9 137.31 150.36 139.4 150.9 142.24L151.96 147.81L146.33 148.11C143.44 148.26 140.82 146.41 140.46 143.54L139.81 138.32Z" fill="#93C13E"/>
<path fill-rule="evenodd" clip-rule="evenodd" d="M263.96 168.23L258.99 172.92C256.26 175.5 256.28 179.71 258.71 182.57L263.61 188.34L268.37 182.84C270.83 180 271.23 175.92 268.65 173.18L263.96 168.21V168.23Z" fill="#93C13E"/>
<path fill-rule="evenodd" clip-rule="evenodd" d="M244.04 161.17L243.47 167.12C243.16 170.39 245.58 173.33 248.85 173.64L254.8 174.21L255.37 168.26C255.68 164.99 253.26 162.05 249.99 161.74L244.04 161.17Z" fill="#93C13E"/>
<path fill-rule="evenodd" clip-rule="evenodd" d="M214.31 195.32L208.39 191.91C205.13 190.04 201.09 191.26 199.06 194.42L195.13 200.54L201.57 203.75C204.93 205.43 209.02 204.49 210.9 201.24L214.31 195.32Z" fill="#93C13E"/>
<path fill-rule="evenodd" clip-rule="evenodd" d="M230.64 202.44L225.23 201.6C222.25 201.14 219.44 203.2 218.98 206.18L218.14 211.59L223.55 212.43C226.53 212.89 229.34 210.83 229.8 207.85L230.64 202.44Z" fill="#93C13E"/>
<path fill-rule="evenodd" clip-rule="evenodd" d="M213.23 211.03L210.86 214.12C209.55 215.82 209.88 218.27 211.57 219.58L214.66 221.95L217.03 218.86C218.34 217.16 218.02 214.71 216.32 213.4L213.23 211.03Z" fill="#93C13E"/>
<path fill-rule="evenodd" clip-rule="evenodd" d="M166.31 197.63L165.56 204.25C165.14 207.9 167.79 211.22 171.43 211.63L178.06 212.38L178.81 205.75C179.22 202.11 176.58 198.79 172.94 198.37L166.32 197.62L166.31 197.63Z" fill="#93C13E"/>
<path fill-rule="evenodd" clip-rule="evenodd" d="M193.86 204.55L189.11 207.78C186.5 209.56 185.81 213.15 187.59 215.76L190.82 220.51L195.57 217.28C198.18 215.5 198.87 211.91 197.09 209.3L193.86 204.55Z" fill="#93C13E"/>
<path fill-rule="evenodd" clip-rule="evenodd" d="M193.74 102.4C195.15 102.4 196.29 103.54 196.29 104.95C196.29 106.36 195.15 107.5 193.74 107.5C192.33 107.5 191.19 106.36 191.19 104.95C191.19 103.54 192.33 102.4 193.74 102.4Z" fill="#93C13E"/>
<path fill-rule="evenodd" clip-rule="evenodd" d="M203.76 86.64C205.17 86.64 206.31 87.78 206.31 89.19C206.31 90.6 205.17 91.74 203.76 91.74C202.35 91.74 201.21 90.6 201.21 89.19C201.21 87.78 202.35 86.64 203.76 86.64Z" fill="#93C13E"/>
<path fill-rule="evenodd" clip-rule="evenodd" d="M238.01 192.93C239.14 192.93 240.06 193.85 240.06 194.98C240.06 196.11 239.14 197.03 238.01 197.03C236.88 197.03 235.96 196.11 235.96 194.98C235.96 193.85 236.88 192.93 238.01 192.93Z" fill="#93C13E"/>
<path fill-rule="evenodd" clip-rule="evenodd" d="M210.17 106.86C212.25 106.86 213.94 108.55 213.94 110.63C213.94 112.71 212.25 114.4 210.17 114.4C208.09 114.4 206.4 112.71 206.4 110.63C206.4 108.55 208.09 106.86 210.17 106.86Z" fill="#93C13E"/>
<path fill-rule="evenodd" clip-rule="evenodd" d="M181.41 196.32C182.9 196.32 184.11 197.53 184.11 199.02C184.11 200.51 182.9 201.71 181.41 201.71C179.92 201.71 178.72 200.5 178.72 199.02C178.72 197.54 179.93 196.32 181.41 196.32Z" fill="#93C13E"/>
<path fill-rule="evenodd" clip-rule="evenodd" d="M244.31 202.36C245.9 202.36 247.2 203.65 247.2 205.25C247.2 206.85 245.91 208.14 244.31 208.14C242.71 208.14 241.42 206.85 241.42 205.25C241.42 203.65 242.71 202.36 244.31 202.36Z" fill="#93C13E"/>
<path fill-rule="evenodd" clip-rule="evenodd" d="M243 113.76C243.87 113.76 244.58 114.47 244.58 115.34C244.58 116.21 243.87 116.92 243 116.92C242.13 116.92 241.42 116.21 241.42 115.34C241.42 114.47 242.13 113.76 243 113.76Z" fill="#93C13E"/>
<path fill-rule="evenodd" clip-rule="evenodd" d="M255 199.61L258.21 201.62C259.79 202.61 261.8 202.56 262.96 201.11L265.08 198.48L262.45 196.36C261 195.19 259 195.55 257.7 196.87L255 199.61Z" fill="#93C13E"/>
<path fill-rule="evenodd" clip-rule="evenodd" d="M153.04 190.33L153.6 184.57C153.91 181.4 151.56 178.56 148.39 178.25L142.63 177.69L142.07 183.45C141.76 186.62 144.11 189.46 147.28 189.77L153.04 190.33Z" fill="#93C13E"/>
<path fill-rule="evenodd" clip-rule="evenodd" d="M277.69 148.64L271.96 148.6C269.39 148.58 267 149.87 266.57 152.4L265.77 157L270.37 157.8C272.9 158.24 274.9 156.41 275.76 154L277.68 148.64H277.69Z" fill="#93C13E"/>
<path fill-rule="evenodd" clip-rule="evenodd" d="M254.8 177.24L250.81 175.62C248.62 174.73 246.21 175.84 245.2 177.98L243.17 182.3L247.57 183.59C249.84 184.26 252.29 183.42 253.18 181.22L254.8 177.23V177.24Z" fill="#93C13E"/>
<path fill-rule="evenodd" clip-rule="evenodd" d="M201.38 213.28L200.79 217.13C200.47 219.25 201.93 221.24 204.05 221.57L207.9 222.16L208.49 218.31C208.81 216.19 207.35 214.2 205.23 213.87L201.38 213.28Z" fill="#93C13E"/>
<path d="M198.26 172.99V154.72C198.26 153.81 198.87 153.62 199.36 153.62H213.3C213.8 153.62 214.4 153.82 214.4 154.72V174.9C214.4 175.85 214.03 177.09 216.44 177.09C218.35 177.09 219.89 178.29 219.89 179.78C219.89 181.27 218.34 182.47 216.44 182.47C212.05 182.47 212.99 176.83 212.99 173.73V160.54C212.99 158.13 213.18 157.97 210.55 157.97H202.11C199.48 157.97 199.67 158.14 199.67 160.54V173.73C199.67 175.35 199.93 177.66 199.54 179.5C198.57 184.15 192.76 182.69 192.76 179.78C192.76 178.29 194.31 177.09 196.21 177.09C197.87 177.09 198.12 176.38 198.17 175.34C198.21 174.66 198.25 173.82 198.25 172.98L198.26 172.99Z" fill="#EE8162"/>
<path d="M198.26 165.27V161.75C198.26 160.84 198.87 160.65 199.36 160.65H213.3C213.8 160.65 214.4 160.85 214.4 161.75V165.27H212.99V164.73C212.99 162.32 213.18 162.16 210.55 162.16H202.11C199.48 162.16 199.67 162.33 199.67 164.73V165.27H198.26Z" fill="#EE8162"/>
<path fill-rule="evenodd" clip-rule="evenodd" d="M292.72 191.59L281.54 199.03C279.86 200.15 283.53 198.48 283.81 198.72C283.88 198.78 288.8 196.33 287.64 198.67C286.4 201.16 283.96 208.3 281.06 212.08C277.35 216.92 274.5 213.05 275.05 212.36C275.26 212.1 275.48 212.46 275.81 212.63C276.44 212.95 277.43 212.78 277.94 212.12C278.56 211.34 278.37 210.29 277.77 209.69C276.48 208.4 274.27 209.55 273.97 211.22C273.73 212.55 274.49 214.07 275.75 214.85C279.16 216.95 282.35 212.28 283.86 209.84C285.76 206.76 287.3 203.26 288.23 201.8L291.44 196.62C292.54 194.84 292.16 195.24 294.22 194.15L292.71 191.59H292.72Z" fill="#93C13E"/>
<path fill-rule="evenodd" clip-rule="evenodd" d="M271.12 195.87L275.2 199.66C277.03 201.36 279.59 202 281.57 200.48L285.16 197.71L282.39 194.12C280.86 192.14 278.23 192.14 276.02 193.3L271.12 195.88V195.87Z" fill="#93C13E"/>
<path fill-rule="evenodd" clip-rule="evenodd" d="M316.61 219.61C318.94 223.36 322.08 227.77 325.47 230.71C327.17 231.53 328.85 232.07 330.46 232.21C331.2 232.27 331.95 232.31 332.7 232.33C332.2 232.87 331.65 233.37 331.05 233.86C339.99 236.07 351.47 233.89 354.6 236.64C357.77 239.42 355.21 248.88 352.18 248.2C349.16 247.52 330.6 238.13 328.25 235.76H328.23C326.42 236.79 324.4 237.62 322.27 238.23C315.72 240.46 305.11 242.64 297.19 237.28C294.01 235.13 291.36 232.53 289.4 229.64C284.25 222.05 283.7 209.26 292.68 204.47C299.01 201.1 305.81 203.87 310.13 208.86C312.59 211.7 314.6 216.4 316.6 219.62L316.61 219.61Z" fill="#E41B49"/>
<path fill-rule="evenodd" clip-rule="evenodd" d="M331.81 232.29C332.11 232.3 332.41 232.31 332.72 232.32C332.22 232.86 331.67 233.36 331.07 233.84C331.07 233.84 330.42 234.35 329.29 235.12C326.33 237.02 322.82 238.24 319.4 238.89C311.03 240.48 301.76 238.91 297.41 233.29C294.51 229.54 295.2 224.14 298.95 221.24C299.8 220.58 300.72 220.13 301.68 219.85C302.12 219.72 302.77 219.75 302.8 219.5C305.89 220.3 311.49 222.59 321.62 228.44C325.41 230.63 327.26 232.08 331.8 232.29H331.81Z" fill="#E41B49"/>
<path d="M327.24 238.17C325.17 238.97 322.26 239.97 319.7 240.46C313.36 241.67 304.33 242.09 297.21 237.27C294.03 235.12 291.38 232.52 289.42 229.63C286.21 224.9 284.79 218.16 286.34 212.58C286.8 210.92 289.21 210.62 291.14 213.15C295.51 218.86 298.58 216.09 302.13 218.75C303.57 219.83 302.37 219.65 301.69 219.85C300.73 220.13 299.81 220.58 298.96 221.24C295.21 224.14 294.52 229.54 297.42 233.29C303.66 241.36 320.03 241.09 329.33 235.1C330.74 235.53 332.02 235.71 332.1 235.84C332.19 235.98 327.6 238.01 327.23 238.16L327.24 238.17Z" fill="white"/>
<path fill-rule="evenodd" clip-rule="evenodd" d="M298.37 211.51C298.94 212.58 298.53 213.9 297.47 214.47C296.4 215.04 295.08 214.63 294.51 213.57C293.94 212.5 294.34 211.18 295.41 210.61C296.48 210.04 297.8 210.45 298.37 211.51Z" fill="#1D1D1B"/>
<path fill-rule="evenodd" clip-rule="evenodd" d="M297.78 211.83C298.03 212.29 297.93 212.82 297.56 213.02C297.19 213.22 296.69 213 296.45 212.54C296.2 212.08 296.3 211.55 296.67 211.35C297.04 211.15 297.54 211.37 297.78 211.83Z" fill="white"/>
<path d="M291.59 209.67C291.34 210.49 289.72 210.35 288.65 209.82C287.65 209.32 287.84 209.2 287.07 208.49L281.4 203.33C281.23 203.18 287.95 205.98 289.32 206.51C290.39 206.93 291.99 208.34 291.59 209.66V209.67Z" fill="white"/>
<path d="M310.65 243.11C311.15 243.48 310.68 243.72 311.23 244.09C311.35 244.17 311.45 244.3 311.4 244.39C310.7 245.75 307.04 250.22 307.04 250.22C307.04 250.22 307.83 251.64 308.02 251.84C308.21 252.04 308.2 251.2 308.25 251.04C308.3 250.88 312.52 244.7 312.52 244.7C313.04 244.76 313.7 243.63 313.81 243.2C313.98 242.52 313.98 240.65 313.25 240.22C312.52 239.78 309.91 240.5 310.01 240.89C310.11 241.28 310.67 243.12 310.67 243.12L310.65 243.11Z" fill="white"/>
<path d="M307.16 250.45L307.05 250.64C306.93 250.85 306.95 250.97 307.02 251.07C307.6 251.95 311.39 250.65 311.63 252.34C312.03 251.38 310.52 249.74 309.15 250.37C308.74 249.51 308.13 250.37 307.43 250.49C307.27 250.52 307.33 250.54 307.16 250.46V250.45Z" fill="white"/>
<path d="M298.85 251.54C298.33 252.21 295.83 252.59 296.19 253.72C295.66 253.25 296.01 251.89 296.92 251.61C297.05 251.49 297.21 251.35 297.34 251.24C297.36 251.21 297.39 251.18 297.43 251.16C297.98 250.64 298.01 250.75 298.48 250.51C299 250.24 299.55 250 300.28 249.49C302.58 247.9 307.58 244.19 307.45 244.08C307.3 243.95 306.98 243.41 307.14 243.08C307.26 242.84 306.22 242.55 305.6 241.74C305.04 241.02 305.18 240.77 304.05 240.35C302.44 239.75 309.53 239.86 309.9 239.88C310.26 239.9 310.83 240.72 311.32 241.57C311.82 242.42 310.67 243.09 310.67 243.09C310.67 243.09 310.58 243.87 310.19 244.26C309.8 244.66 308.32 245.14 308.32 245.14L303.99 248.27C300.13 251.05 301.44 250.72 301.44 250.72C302.76 251.09 303.48 248.83 304.4 250.13C306.1 248.95 308.51 250.8 308.19 252.19C307.65 250.5 304.98 250.67 305.17 250.86C305.37 251.05 304.52 251.22 304.21 251.34C303.9 251.46 303.12 251.72 302.15 252.07C301.19 252.43 299.71 252.23 299.71 252.23C299.71 252.23 299.91 251.48 298.86 251.52L298.85 251.54Z" fill="white"/>
<path d="M25.1399 273.76L13.8799 258.05C13.0799 256.88 12.2999 255.7 11.4799 254.54C11.0699 253.97 9.56995 251.82 8.98995 251.39C8.56995 251.31 7.76995 251.32 7.36995 251.32C6.31995 251.3 5.26995 251.32 4.22995 251.32C2.82995 251.33 1.41995 251.37 0.0199471 251.38V251.58L0.00994873 320.61C0.259949 320.69 0.829947 320.71 1.19995 320.71H2.69995C6.44995 320.71 11.4299 315.87 11.4299 309.85V278.3C11.4299 277.56 11.4199 276.8 11.4599 276.07C11.4999 275.47 11.5999 274.74 12.2899 274.54C13.1799 274.29 13.7999 275.36 14.2299 275.96C14.9799 277.03 15.7099 278.08 16.5199 279.11C16.7899 279.46 16.9599 279.82 17.2099 280.17L23.4899 288.91L23.5699 289L23.5899 289.03L24.2399 289.9V289.92C24.4699 290.25 24.6799 290.57 24.9199 290.89C25.7999 292.07 26.5799 293.32 27.4699 294.51L32.6199 301.66C33.0999 302.33 33.5299 303.01 33.9799 303.71C34.1199 303.93 34.3599 304.32 34.5799 304.47C34.9099 304.69 35.8099 304.68 36.1799 304.68C37.9299 304.68 39.69 304.61 41.45 304.61C41.99 304.25 43.36 302.07 43.77 301.52L51.9599 290.01C52.3799 289.37 52.8399 288.77 53.2799 288.14C53.5299 287.77 53.7999 287.5 54.0699 287.16C54.6499 286.42 55.1999 285.6 55.7299 284.83C56.6099 283.57 57.4799 282.3 58.3599 281.04C59.3399 279.64 60.3299 278.23 61.3599 276.87C61.7899 276.3 62.8799 274.79 63.5499 274.55L64.7099 274.13V309.88C64.7099 315.9 69.6899 320.74 73.4399 320.74H74.5399C74.9199 320.71 75.2999 320.68 75.6699 320.62C75.7899 320.6 75.97 320.59 76.13 320.58V251.41H67.45C66.87 251.41 65.3499 253.85 65.0499 254.31C64.7699 254.74 64.4799 255.16 64.1799 255.56L42.5799 285.71C41.9999 286.53 41.4299 287.36 40.8599 288.19C40.3999 288.85 39.31 290.46 38.7 290.91L38.2099 291.27L37.7099 290.93C36.9999 290.45 35.8099 288.79 35.2799 288.07C34.5799 287.13 33.8699 286.15 33.2299 285.17C32.9299 284.71 32.5999 284.28 32.2799 283.84L28.1799 278.14C27.8499 277.64 27.5199 277.15 27.1699 276.67C26.4599 275.72 25.7999 274.75 25.1499 273.79L25.1399 273.76Z" fill="white"/>
<path d="M92.62 251.59V320.64C92.99 320.74 94.03 320.72 94.3 320.72H147.54C147.76 320.72 147.96 320.69 148.16 320.65V318.01C147.51 314.44 143.05 310.25 137.57 310.15C137.51 310.15 137.44 310.15 137.38 310.15C135.89 310.15 134.39 310.14 132.9 310.14C128.32 310.14 123.74 310.21 119.16 310.23C116.11 310.23 113.06 310.24 110.01 310.19C108.9 310.17 107.78 310.15 106.67 310.09C106.07 310.06 105.29 310.04 104.71 309.9L104.04 309.74V309.06C104.04 304.54 104.04 300.01 104.04 295.49C104.04 294.74 104 293.99 104 293.24C104 292.67 104.04 292.08 104.46 291.65C104.89 291.22 105.48 291.19 106.05 291.19C106.8 291.19 107.55 291.23 108.3 291.23H129.68C135.67 291.23 140.49 286.3 140.54 282.55C140.54 282.53 140.54 282.51 140.54 282.49C140.54 281.87 140.54 281.26 140.53 280.64H104.05V263.23C104.05 262.84 104.17 262.48 104.44 262.2C105.14 261.46 106.35 261.72 107.25 261.73C117.3 261.83 127.34 261.68 137.39 261.68C137.47 261.68 137.54 261.68 137.62 261.68C143.53 261.55 148.25 256.66 148.25 252.95V252.52C148.24 252.01 148.2 251.5 148.12 251.29C147.77 251.26 146.35 251.37 146.06 251.37H92.64V251.57H92.63L92.62 251.59Z" fill="white"/>
<path d="M161.47 251.39V320.55C162.24 320.61 163 320.72 163.79 320.72H208.97C209.19 320.72 209.39 320.69 209.59 320.65V318.89C209.59 315.34 205.26 310.7 199.71 310.2C197.27 310.22 194.83 310.23 192.39 310.24C188.35 310.25 184.31 310.25 180.27 310.2C178.83 310.18 177.38 310.16 175.94 310.1C175.25 310.07 174.24 310.06 173.57 309.91L172.9 309.75V253.5C172.9 253.14 173.03 251.87 172.94 251.39H161.48H161.47Z" fill="white"/>
<path d="M335.31 306.14C330.66 309.12 325.89 309.71 320.46 309.71H308.31C308.07 314.2 305.83 317.94 303.04 320.74C305.97 320.76 308.9 320.77 311.83 320.77C315.1 320.77 318.36 320.75 321.63 320.67C322.87 320.64 324.11 320.61 325.35 320.55C326.09 320.51 326.88 320.48 327.61 320.37C328.23 320.28 328.86 320.19 329.48 320.11C330.15 320.02 330.67 319.85 331.31 319.7C332.46 319.43 333.56 319.12 334.68 318.73C336.73 318.01 338.74 317.1 340.6 315.98C341.5 315.44 342.37 314.89 343.2 314.27L345.82 312.25C350.52 308.49 355.21 300.78 356.54 294.91C357.79 289.38 357.99 284.98 357.09 279.37C356.68 276.8 355.35 272.72 354.09 270.44C353.61 269.57 353.12 268.72 352.65 267.85C351.34 265.42 349.21 263.02 347.26 261.07C344.51 258.32 341.28 256.08 337.74 254.47C333.68 252.62 329.18 251.41 324.69 251.41H293.95V320.58H296.41C300.16 320.58 305.14 314.02 305.14 308H305.18C305.16 307.82 305.15 307.63 305.14 307.43C304.95 292.72 305.16 278 305.16 263.28V262.6L305.83 262.44C306.85 262.2 308.34 262.19 309.4 262.16C311.21 262.11 313.02 262.11 314.83 262.12C317.62 262.13 320.42 262.2 323.2 262.2C329.27 262.2 335.07 264.7 339.35 268.97C346.75 276.37 348.37 287.31 343.88 296.69C342.02 300.58 338.91 303.84 335.3 306.16L335.31 306.14Z" fill="white"/>
<path d="M381.76 287.37C382.53 288.51 383.33 289.61 384.13 290.72C384.56 291.32 385.01 291.96 385.25 292.66C385.62 293.75 385.52 295.4 385.52 296.54V320.58L385.84 320.6C389.51 320.8 393.27 320.82 396.95 320.56V316.83C396.95 310 396.95 303.17 396.95 296.33C396.95 295.4 396.83 293.73 397.13 292.87C397.37 292.19 398 291.4 398.41 290.8L424.67 251.94C424.67 251.94 424.71 251.88 424.73 251.85L422.41 250.51C419.16 248.63 412.43 250.33 409.42 255.55L409.44 255.48L397.05 273.91C396.51 274.71 395.93 275.48 395.39 276.28L391.69 281.84L390.97 281.36C390.15 280.81 388.48 278.27 387.89 277.4C387.03 276.13 386.2 274.84 385.35 273.57L372.54 254.59C372.12 254.01 370.79 251.79 370.31 251.38H357.52C358.2 252.6 359.48 254.47 359.85 255.02C360.9 256.56 362.04 258.08 363.07 259.63C363.46 260.22 363.83 260.81 364.24 261.38L364.26 261.41L381.77 287.38L381.76 287.37Z" fill="white"/>
<path d="M246.8 251.32C256.39 251.32 265.07 255.21 271.35 261.49C277.63 267.77 281.52 276.45 281.52 286.04C281.52 295.63 277.63 304.31 271.35 310.59C265.07 316.87 256.39 320.76 246.8 320.76C237.21 320.76 228.53 316.87 222.25 310.59C215.97 304.31 212.08 295.63 212.08 286.04C212.08 276.45 215.97 267.77 222.25 261.49C228.53 255.21 237.21 251.32 246.8 251.32ZM263.7 269.14C259.38 264.82 253.4 262.14 246.8 262.14C240.2 262.14 234.23 264.81 229.9 269.14C225.58 273.46 222.9 279.44 222.9 286.04C222.9 292.64 225.58 298.61 229.9 302.94C234.22 307.26 240.2 309.94 246.8 309.94C253.4 309.94 259.37 307.27 263.7 302.94C268.02 298.62 270.7 292.64 270.7 286.04C270.7 279.44 268.02 273.47 263.7 269.14Z" fill="white"/>
<path d="M538.5 0H922.22V361.29C922.22 391.89 897.37 416.74 866.77 416.74H593.95C563.35 416.74 538.5 391.89 538.5 361.29V0Z" fill="white"/>
<path fill-rule="evenodd" clip-rule="evenodd" d="M625.17 280.12V308.79H606.18V280.12H606.15C606.16 279.99 606.18 279.85 606.18 279.72C606.18 277.19 603.4 275.14 599.97 275.14C596.54 275.14 593.76 277.19 593.76 279.72C593.76 279.86 593.76 279.99 593.79 280.12H593.72V308.79H574.11V266.35H592.8V271.87C595.63 268.02 600.44 265.42 608.88 265.42C618.07 265.33 622.37 268.57 624.6 271.59L625.72 270.53C628.65 267.43 633.26 265.42 640.68 265.42C645.58 265.37 649.08 266.27 651.63 267.58C656.38 269.91 657.54 273.31 657.33 280.13L657.37 308.8H637.99V280.13H637.95C637.97 280 637.97 279.86 637.97 279.73C637.97 277.2 635.19 275.15 631.77 275.15C629.89 275.15 628.2 275.77 627.06 276.75C627.02 277.14 626.68 277.23 626.3 277.56C626.04 277.92 625.84 278.3 625.71 278.71L625.61 278.54C625.44 278.93 625.28 279.44 625.17 280.14V280.12ZM660.11 295.07V266.4H679.7V295.07H679.73C679.71 295.21 679.71 295.34 679.71 295.48C679.71 298.01 682.49 300.06 685.92 300.06C689.35 300.06 692.13 298.01 692.13 295.48C692.13 295.34 692.12 295.21 692.1 295.07H692.17V266.4H711.78V308.85H693.09V303.33C690.26 307.19 685.5 309.97 677.06 309.97C674.04 310 671.51 309.48 669.44 308.92C663.27 307.24 659.51 304.92 660.11 295.07ZM714.24 266.66H733.53V271.48C736.01 267.59 740.03 265.11 745.61 265.11H748.94C759.04 265.11 767.02 273.22 767.02 283.13V292C767.02 301.92 759.02 310.66 748.94 310.03L745.61 309.82C740.03 309.47 736.01 307.02 733.53 303.23V322.57H714.24V266.66ZM740.08 274.96H740.99C744.67 274.96 747.68 277.94 747.68 281.59V293.83C747.68 297.47 744.67 300.46 740.99 300.46H740.08C736.4 300.46 733.39 297.47 733.39 293.83V281.59C733.39 277.94 736.4 274.96 740.08 274.96ZM768.36 266.66H787.65V271.48C790.13 267.59 794.14 265.11 799.73 265.11H803.06C813.16 265.11 821.14 273.22 821.14 283.13V292C821.14 301.92 813.13 310.66 803.06 310.03L799.73 309.82C794.15 309.47 790.13 307.02 787.65 303.23V322.57H768.36V266.66ZM794.2 274.96H795.12C798.8 274.96 801.81 277.94 801.81 281.59V293.83C801.81 297.47 798.8 300.46 795.12 300.46H794.2C790.52 300.46 787.51 297.47 787.51 293.83V281.59C787.51 277.94 790.52 274.96 794.2 274.96ZM823.67 279.63H840.94V277.49C841.39 275.2 844.21 273.45 847.61 273.45C848.98 273.45 850.25 273.73 851.32 274.22C853.67 275.3 855.36 278.3 853.38 280.53C852.73 281.27 851.75 281.76 850.74 282.14C846.17 283.82 833.67 284.12 829.37 286.35C829.39 286.36 829.42 286.37 829.44 286.38C824.5 288.31 821.33 291.98 821.62 297.33C821.62 307.12 829.62 309.85 839.48 309.85C845.55 309.85 850.92 307.73 854.15 304.48V308.89H874.75C874.69 307.05 873.43 305.52 871.76 305.14V277.65C872.33 265.86 856.62 265.4 847.62 265.4C841.51 265.4 832.99 266 827.92 269.96C824.24 272.83 823.68 275.79 823.68 279.63H823.67ZM854.14 288.16V295.94C853.63 298.75 850.73 301.11 847.24 301.39C843.38 301.7 840.26 299.36 840.26 296.17C840.26 293.49 842.46 291.07 845.45 290.17L845.25 290.06L851.74 288.23L854.1 287.56V288.17H854.14V288.16Z" fill="#0F4C89"/>
<path fill-rule="evenodd" clip-rule="evenodd" d="M576.84 249.63L573.94 257.71C638.47 257.68 806.58 257.68 871.11 257.71L868.21 249.63C805.27 248.78 639.78 248.78 576.84 249.63Z" fill="#E01F26"/>
<path fill-rule="evenodd" clip-rule="evenodd" d="M754.58 234.29L813.2 234.95L816.19 243.18L754.58 243.19V234.29Z" fill="#E01F26"/>
<path fill-rule="evenodd" clip-rule="evenodd" d="M754.58 220.13L808.48 221.92L811.53 230.35L754.58 229.04V220.13Z" fill="#E01F26"/>
<path fill-rule="evenodd" clip-rule="evenodd" d="M754.58 205.86L803.68 208.7L806.73 217.1L754.58 214.77V205.86Z" fill="#E01F26"/>
<path fill-rule="evenodd" clip-rule="evenodd" d="M754.58 191.45L798.71 194.99L801.86 203.69L754.58 200.36V191.45Z" fill="#E01F26"/>
<path fill-rule="evenodd" clip-rule="evenodd" d="M754.58 177.03L793.71 181.22L796.89 189.96L754.58 185.93V177.03Z" fill="#E01F26"/>
<path fill-rule="evenodd" clip-rule="evenodd" d="M754.58 162.76L788.63 167.19L791.85 176.07L754.58 171.67V162.76Z" fill="#E01F26"/>
<path fill-rule="evenodd" clip-rule="evenodd" d="M754.58 148.43L783.4 152.79L786.7 161.88L754.58 157.34V148.43Z" fill="#E01F26"/>
<path fill-rule="evenodd" clip-rule="evenodd" d="M723.98 192.69L751.65 157.33L751.67 148.4L723.98 187.07V192.69Z" fill="#0F4C89"/>
<path fill-rule="evenodd" clip-rule="evenodd" d="M723.98 201.67L751.68 171.75L751.67 162.76L723.98 196.05V201.67Z" fill="#0F4C89"/>
<path fill-rule="evenodd" clip-rule="evenodd" d="M723.98 210.64L751.66 186.09L751.68 177.12L723.98 205.02V210.64Z" fill="#0F4C89"/>
<path fill-rule="evenodd" clip-rule="evenodd" d="M723.98 219.55L751.7 200.44L751.65 191.46L723.98 213.92V219.55Z" fill="#0F4C89"/>
<path fill-rule="evenodd" clip-rule="evenodd" d="M723.98 228.52L751.68 214.84L751.66 205.79L723.98 222.9V228.52Z" fill="#0F4C89"/>
<path fill-rule="evenodd" clip-rule="evenodd" d="M690.47 234.3L631.85 234.96L628.86 243.2L690.47 243.21V234.3Z" fill="#E01F26"/>
<path fill-rule="evenodd" clip-rule="evenodd" d="M690.47 220.14L636.57 221.93L633.52 230.36L690.47 229.05V220.14Z" fill="#E01F26"/>
<path fill-rule="evenodd" clip-rule="evenodd" d="M690.47 205.88L641.37 208.71L638.32 217.11L690.47 214.78V205.88Z" fill="#E01F26"/>
<path fill-rule="evenodd" clip-rule="evenodd" d="M690.47 191.46L646.34 195.01L643.18 203.7L690.47 200.37V191.46Z" fill="#E01F26"/>
<path fill-rule="evenodd" clip-rule="evenodd" d="M690.47 177.04L651.33 181.23L648.16 189.97L690.47 185.95V177.04Z" fill="#E01F26"/>
<path fill-rule="evenodd" clip-rule="evenodd" d="M690.47 162.77L656.42 167.21L653.2 176.08L690.47 171.68V162.77Z" fill="#E01F26"/>
<path fill-rule="evenodd" clip-rule="evenodd" d="M690.47 148.45L661.65 152.8L658.35 161.89L690.47 157.35V148.45Z" fill="#E01F26"/>
<path fill-rule="evenodd" clip-rule="evenodd" d="M721.07 192.7L693.4 157.34L693.38 148.41L721.07 187.08V192.7Z" fill="#0F4C89"/>
<path fill-rule="evenodd" clip-rule="evenodd" d="M721.07 201.68L693.37 171.77L693.38 162.77L721.07 196.06V201.68Z" fill="#0F4C89"/>
<path fill-rule="evenodd" clip-rule="evenodd" d="M721.07 210.65L693.38 186.1L693.37 177.13L721.07 205.03V210.65Z" fill="#0F4C89"/>
<path fill-rule="evenodd" clip-rule="evenodd" d="M721.07 219.56L693.35 200.45L693.4 191.47L721.07 213.94V219.56Z" fill="#0F4C89"/>
<path fill-rule="evenodd" clip-rule="evenodd" d="M721.07 228.53L693.37 214.85L693.39 205.8L721.07 222.91V228.53Z" fill="#0F4C89"/>
<path d="M606.33 364.99L612.55 340.78H609.91L610.2 339.63H614.63H619.09L618.8 340.78H616.69L610.47 364.99H613.1L612.81 366.13H608.38H603.93L604.22 364.99H606.33Z" fill="#194785"/>
<path d="M617.76 366.13L621.48 351.62H618.58L618.85 350.52L621.78 350.4L624.71 350.27L623.84 353.66L624.71 352.65C626.34 350.92 628.03 350.05 629.76 350.05C631.05 350.05 631.97 350.49 632.54 351.36C633.11 352.23 633.21 353.38 632.85 354.8L630.77 362.84C630.58 363.6 630.53 364.16 630.62 364.51C630.71 364.85 630.96 365.03 631.35 365.03C631.96 365.03 632.54 364.69 633.1 364.01C633.66 363.33 634.3 362.17 635.04 360.51L635.95 360.84C635 363.02 634.12 364.52 633.29 365.35C632.46 366.18 631.43 366.59 630.18 366.59C629.06 366.59 628.3 366.25 627.91 365.58C627.52 364.91 627.49 363.89 627.84 362.54L630.07 353.85C630.29 353 630.31 352.4 630.13 352.04C629.95 351.69 629.54 351.52 628.89 351.52C627.74 351.52 626.61 352.12 625.5 353.33C624.39 354.54 623.5 356.12 622.84 358.08L620.78 366.12H617.76V366.13Z" fill="#194785"/>
<path d="M646.18 353.89C645.7 353.89 645.34 353.73 645.09 353.41C644.85 353.09 644.79 352.7 644.92 352.24C644.99 351.97 645.09 351.72 645.25 351.49C644.94 351.26 644.52 351.14 643.99 351.14C643.53 351.14 643.12 351.27 642.76 351.54C642.4 351.8 642.17 352.14 642.05 352.56C641.87 353.28 641.93 353.96 642.24 354.58C642.52 355.19 643.09 355.84 643.93 356.5C645.13 357.44 645.93 358.42 646.32 359.42C646.53 359.96 646.63 360.54 646.63 361.15C646.63 361.69 646.55 362.26 646.4 362.86C646.14 363.88 645.48 364.77 644.42 365.53C643.39 366.29 642.3 366.67 641.17 366.67C639.59 366.67 638.3 366.27 637.3 365.49C636.53 364.86 636.14 364.16 636.14 363.4L636.24 362.72C636.31 362.45 636.48 362.22 636.76 362.03C637.04 361.84 637.34 361.74 637.68 361.74C638.18 361.74 638.55 361.94 638.79 362.34C639.03 362.74 639.07 363.23 638.94 363.81C638.89 364.05 638.79 364.29 638.65 364.5L638.44 364.85L638.71 365.06C639.19 365.45 639.82 365.64 640.61 365.64C641.32 365.64 641.99 365.43 642.6 365.01C643.21 364.59 643.59 364.09 643.73 363.51C643.95 362.67 643.95 361.93 643.73 361.29C643.51 360.68 643.06 360.09 642.37 359.55C640.99 358.48 640.07 357.43 639.57 356.43C639.27 355.81 639.13 355.17 639.13 354.49C639.14 354.07 639.2 353.64 639.3 353.21C639.55 352.26 640.12 351.5 641.02 350.92C641.92 350.34 642.98 350.05 644.21 350.05C645.35 350.05 646.23 350.34 646.87 350.92C647.36 351.36 647.6 351.86 647.58 352.43C647.59 352.64 647.57 352.85 647.5 353.05C647.43 353.28 647.28 353.47 647.04 353.63C646.8 353.8 646.51 353.88 646.21 353.88L646.18 353.89Z" fill="#194785"/>
<path d="M653.2 351.62H650.29L650.57 350.52L653.42 350.4L656.27 350.27L655.77 352.25C657.21 350.79 658.73 350.06 660.32 350.06C661.71 350.06 662.86 350.61 663.75 351.7C664.65 352.79 665.1 354.17 665.1 355.83V355.91C665.1 356.31 665.06 356.79 664.98 357.34C664.91 357.9 664.81 358.4 664.69 358.87C664.1 361.16 663.02 363.03 661.46 364.49C659.93 365.94 658.25 366.66 656.4 366.66C654.83 366.65 653.62 366.08 652.8 364.97L650.56 373.82H653.09L652.8 374.92H645.21L645.5 373.82H647.54L653.21 351.62H653.2ZM656.07 365.49C657.1 365.49 658.02 364.91 658.83 363.74C659.64 362.57 660.36 360.82 660.96 358.48C661.18 357.64 661.35 356.86 661.46 356.15C661.57 355.43 661.63 354.8 661.63 354.26C661.63 353.27 661.44 352.51 661.07 351.99C660.69 351.47 660.15 351.22 659.42 351.22C658.25 351.22 657.27 351.77 656.49 352.86C655.71 353.95 654.99 355.78 654.33 358.35C653.68 360.92 653.48 362.75 653.74 363.85C654 364.95 654.78 365.5 656.07 365.5V365.49Z" fill="#194785"/>
<path d="M668.31 362.55L671.12 351.62H668.21L668.48 350.52L671.48 350.4L674.48 350.27L671.23 362.9C671.05 363.64 671.01 364.18 671.12 364.52C671.23 364.86 671.5 365.04 671.93 365.04C672.54 365.04 673.15 364.7 673.74 364.01C674.32 363.33 675.01 362.15 675.8 360.49L676.69 360.86C675.67 363.04 674.74 364.54 673.89 365.37C673.04 366.2 672 366.61 670.76 366.61C669.6 366.61 668.81 366.27 668.39 365.6C668.16 365.24 668.05 364.77 668.07 364.21C668.07 363.73 668.14 363.18 668.3 362.56L668.31 362.55ZM674.2 340.47C674.78 340.47 675.27 340.67 675.67 341.07C676.07 341.47 676.27 341.96 676.27 342.54C676.27 343.12 676.07 343.62 675.67 344.01C675.27 344.41 674.78 344.61 674.2 344.61C673.62 344.61 673.12 344.41 672.73 344.01C672.33 343.61 672.13 343.12 672.13 342.54C672.13 341.96 672.33 341.47 672.73 341.07C673.13 340.67 673.62 340.47 674.2 340.47Z" fill="#194785"/>
<path d="M677.82 366.13L681.54 351.62H678.63L678.9 350.52L681.84 350.4L684.77 350.27L683.72 354.28L684.61 352.92C686.03 351.01 687.47 350.06 688.94 350.06C689.59 350.06 690.07 350.27 690.39 350.7C690.71 351.12 690.79 351.65 690.62 352.29C690.54 352.57 690.36 352.81 690.07 353C689.78 353.19 689.45 353.29 689.1 353.29C688.39 353.29 687.85 353.04 687.47 352.54L687.26 352.19H687.01C686.44 352.19 685.73 352.85 684.87 354.17C684.02 355.5 683.28 357.07 682.65 358.91L680.82 366.14H677.8L677.82 366.13Z" fill="#194785"/>
<path d="M696.73 366.65C694.91 366.65 693.36 366.04 692.1 364.82C690.84 363.6 690.2 362.11 690.2 360.36C690.2 360.09 690.23 359.76 690.28 359.37C690.33 358.99 690.39 358.65 690.45 358.37C691.06 356.04 692.28 354.08 694.13 352.47C695.97 350.86 697.94 350.06 700.01 350.06C701.19 350.06 702.15 350.38 702.88 351.02C703.61 351.66 703.98 352.48 703.98 353.49C703.98 355.2 703.07 356.54 701.26 357.51C699.45 358.47 697.07 358.89 694.12 358.77L693.83 360.26C693.74 360.88 693.7 361.44 693.7 361.95C693.7 363.15 693.98 364.05 694.54 364.66C695.1 365.27 695.94 365.57 697.05 365.57C697.9 365.57 698.81 365.23 699.78 364.53C700.75 363.84 701.59 362.92 702.31 361.8L703.06 362.39C702.33 363.67 701.37 364.7 700.21 365.48C699.05 366.26 697.89 366.65 696.73 366.65ZM699.33 351.13C698.42 351.13 697.48 351.82 696.5 353.21C695.62 354.45 694.93 355.93 694.42 357.66C696.36 357.74 697.93 357.36 699.14 356.51C700.35 355.66 700.95 354.51 700.95 353.03C700.95 352.43 700.8 351.97 700.51 351.63C700.22 351.29 699.82 351.13 699.32 351.13H699.33Z" fill="#194785"/>
<path d="M710.79 366.65C709.22 366.65 707.94 366.14 706.96 365.12C705.99 364.1 705.5 362.76 705.5 361.11C705.5 360.72 705.53 360.28 705.61 359.77C705.68 359.27 705.77 358.79 705.87 358.36C706.5 355.92 707.66 353.92 709.35 352.38C711.04 350.83 712.9 350.05 714.94 350.05C716.33 350.05 717.38 350.59 718.09 351.68L720.9 340.8H718L718.29 339.7L724.31 339.29L718.27 362.88C718.07 363.62 718.03 364.16 718.13 364.51C718.24 364.85 718.49 365.03 718.9 365.03C719.57 365.03 720.21 364.65 720.8 363.89C721.39 363.14 722.07 361.85 722.82 360.03L723.75 360.32C722.79 362.71 721.89 364.35 721.03 365.25C720.17 366.15 719.08 366.6 717.75 366.6C716.83 366.6 716.13 366.2 715.64 365.38L715.18 364.33C713.8 365.88 712.35 366.66 710.8 366.66L710.79 366.65ZM715.19 351.21C713.93 351.21 712.85 351.79 711.94 352.96C711.02 354.13 710.26 355.89 709.65 358.24C709.44 359.05 709.29 359.81 709.17 360.5C709.06 361.19 709 361.79 709 362.31C709 363.35 709.2 364.14 709.62 364.68C710.03 365.22 710.63 365.49 711.42 365.49C712.57 365.49 713.52 364.95 714.27 363.88C715.02 362.81 715.73 360.96 716.4 358.34C717.06 355.77 717.29 353.94 717.11 352.85C716.92 351.76 716.28 351.21 715.19 351.21Z" fill="#194785"/>
<path d="M734.56 366.13L734.85 364.99H736.97L743.19 340.78H740.56L740.85 339.64H749.74L749.45 340.78H747.34L741.1 365.01H744.82C747.08 365.01 748.87 364.54 750.18 363.6C751.5 362.65 752.69 360.99 753.74 358.6H754.94L753.8 362.36L752.62 366.14H734.56V366.13Z" fill="#194785"/>
<path d="M756.82 362.55L759.63 351.62H756.72L756.99 350.52L759.99 350.4L762.99 350.27L759.74 362.9C759.56 363.64 759.52 364.18 759.63 364.52C759.74 364.86 760.01 365.04 760.44 365.04C761.05 365.04 761.66 364.7 762.25 364.01C762.83 363.33 763.52 362.15 764.31 360.49L765.2 360.86C764.18 363.04 763.25 364.54 762.4 365.37C761.55 366.2 760.51 366.61 759.27 366.61C758.11 366.61 757.32 366.27 756.9 365.6C756.67 365.24 756.56 364.77 756.58 364.21C756.58 363.73 756.65 363.18 756.81 362.56L756.82 362.55ZM762.71 340.47C763.29 340.47 763.78 340.67 764.18 341.07C764.58 341.47 764.78 341.96 764.78 342.54C764.78 343.12 764.58 343.62 764.18 344.01C763.78 344.41 763.29 344.61 762.71 344.61C762.13 344.61 761.63 344.41 761.24 344.01C760.84 343.61 760.64 343.12 760.64 342.54C760.64 341.96 760.84 341.47 761.24 341.07C761.64 340.67 762.13 340.47 762.71 340.47Z" fill="#194785"/>
<path d="M768.67 363.55C768.67 363.25 768.74 362.76 768.87 362.05C769.01 361.35 769.19 360.56 769.41 359.7L771.04 353.33C771.18 352.77 771.23 352.37 771.19 352.11C771.14 351.85 771.01 351.72 770.77 351.72C770.35 351.72 769.88 352.06 769.34 352.74C768.8 353.41 768.08 354.58 767.17 356.22L766.44 355.95C767.2 354.1 768.09 352.66 769.11 351.61C770.13 350.57 771.16 350.04 772.19 350.04C773.06 350.04 773.66 350.37 774.02 351.03C774.37 351.69 774.4 352.56 774.11 353.63L772.05 361.61C771.87 362.33 771.74 362.9 771.67 363.3C771.59 363.71 771.55 364.06 771.55 364.36C771.55 364.66 771.66 364.94 771.89 365.19C772.12 365.45 772.39 365.58 772.7 365.58C774.35 365.58 776.02 364.34 777.71 361.85C779.4 359.36 780.24 356.9 780.24 354.46L780.22 353.8C780.22 353.61 780.13 353.42 779.96 353.22C779.79 353.03 779.59 352.89 779.36 352.8C779.14 352.72 778.93 352.59 778.75 352.4C778.45 352.11 778.31 351.81 778.31 351.49C778.31 351 778.43 350.63 778.67 350.39C778.91 350.15 779.27 350.03 779.74 350.03C780.21 350.03 780.63 350.35 780.98 350.99C781.33 351.63 781.5 352.39 781.5 353.28C781.5 356.57 780.52 359.63 778.56 362.44C776.6 365.25 774.46 366.65 772.15 366.65C771.12 366.65 770.29 366.37 769.65 365.8C769.01 365.23 768.7 364.48 768.7 363.55H768.67Z" fill="#194785"/>
<path d="M783.88 362.55L786.69 351.62H783.78L784.05 350.52L787.05 350.4L790.05 350.27L786.8 362.9C786.62 363.64 786.58 364.18 786.69 364.52C786.8 364.86 787.07 365.04 787.5 365.04C788.11 365.04 788.72 364.7 789.31 364.01C789.89 363.33 790.58 362.15 791.37 360.49L792.26 360.86C791.24 363.04 790.31 364.54 789.46 365.37C788.61 366.2 787.57 366.61 786.33 366.61C785.17 366.61 784.38 366.27 783.96 365.6C783.73 365.24 783.62 364.77 783.64 364.21C783.64 363.73 783.71 363.18 783.87 362.56L783.88 362.55ZM789.77 340.47C790.35 340.47 790.84 340.67 791.24 341.07C791.64 341.47 791.84 341.96 791.84 342.54C791.84 343.12 791.64 343.62 791.24 344.01C790.84 344.41 790.35 344.61 789.77 344.61C789.19 344.61 788.69 344.41 788.3 344.01C787.9 343.61 787.7 343.12 787.7 342.54C787.7 341.96 787.9 341.47 788.3 341.07C788.7 340.67 789.19 340.47 789.77 340.47Z" fill="#194785"/>
<path d="M794.03 366.13L797.75 351.62H794.85L795.12 350.52L798.05 350.4L800.98 350.27L800.11 353.66L800.98 352.65C802.61 350.92 804.3 350.05 806.03 350.05C807.32 350.05 808.24 350.49 808.81 351.36C809.38 352.23 809.48 353.38 809.12 354.8L807.04 362.84C806.85 363.6 806.8 364.16 806.89 364.51C806.98 364.85 807.23 365.03 807.62 365.03C808.23 365.03 808.81 364.69 809.37 364.01C809.93 363.33 810.57 362.17 811.31 360.51L812.22 360.84C811.27 363.02 810.39 364.52 809.56 365.35C808.73 366.18 807.7 366.59 806.45 366.59C805.33 366.59 804.57 366.25 804.18 365.58C803.79 364.91 803.76 363.89 804.11 362.54L806.34 353.85C806.56 353 806.58 352.4 806.4 352.04C806.22 351.69 805.81 351.52 805.16 351.52C804.01 351.52 802.88 352.12 801.77 353.33C800.66 354.54 799.77 356.12 799.11 358.08L797.05 366.12H794.03V366.13Z" fill="#194785"/>
<path d="M815.21 362.09C815.14 362.46 815.29 362.76 815.65 362.98C816.01 363.2 816.58 363.35 817.36 363.42L823.73 364.02C825.1 364.15 826.08 364.66 826.69 365.55C827.29 366.44 827.45 367.64 827.17 369.15C826.86 370.76 825.81 372.13 824.02 373.24C822.23 374.36 820.19 374.92 817.91 374.92C815.4 374.92 813.5 374.48 812.2 373.61C810.9 372.74 810.39 371.56 810.68 370.08C810.85 369.2 811.26 368.45 811.93 367.82C812.59 367.2 813.51 366.68 814.69 366.28C814.19 366.11 813.77 365.9 813.45 365.63C812.81 365.07 812.57 364.34 812.74 363.44C812.89 362.73 813.26 362.06 813.86 361.44C814.47 360.82 815.31 360.24 816.4 359.69C815.63 358.86 815.24 357.88 815.26 356.75C815.26 356.61 815.26 356.45 815.28 356.25C815.29 356.06 815.31 355.91 815.34 355.77C815.65 354.17 816.48 352.81 817.85 351.7C819.22 350.59 820.73 350.03 822.4 350.03C823.85 350.03 825.1 350.49 826.14 351.43C826.62 351.85 826.98 352.32 827.22 352.82C827.33 352.19 827.52 351.6 827.82 351.05C828.38 350.03 829.14 349.52 830.13 349.52C830.7 349.52 831.12 349.69 831.41 350.02C831.69 350.36 831.79 350.79 831.68 351.34C831.59 351.78 831.42 352.1 831.18 352.31C830.94 352.51 830.58 352.61 830.12 352.61C829.68 352.6 829.35 352.46 829.11 352.22C828.91 352.01 828.76 351.94 828.64 352.01C828.47 352.13 828.3 352.38 828.14 352.76C827.92 353.32 827.77 354 827.7 354.8L827.68 355.3C827.65 355.49 827.63 355.64 827.6 355.77C827.3 357.36 826.48 358.7 825.11 359.8C823.75 360.9 822.23 361.46 820.57 361.46C819.31 361.45 818.19 361.1 817.24 360.44C816.72 360.66 816.27 360.93 815.88 361.25C815.5 361.56 815.29 361.83 815.24 362.06L815.21 362.09ZM822.21 351.24C821.29 351.24 820.58 351.58 820.08 352.25C819.57 352.92 819.17 354.08 818.86 355.72C818.78 356.1 818.73 356.46 818.69 356.79C818.66 357.12 818.64 357.42 818.64 357.7C818.64 358.57 818.82 359.23 819.18 359.66C819.54 360.09 820.09 360.31 820.83 360.31C821.75 360.31 822.46 359.98 822.96 359.31C823.47 358.65 823.87 357.5 824.18 355.87C824.25 355.49 824.3 355.12 824.33 354.8C824.37 354.47 824.39 354.16 824.39 353.87C824.39 353 824.21 352.34 823.85 351.9C823.49 351.46 822.94 351.24 822.2 351.24H822.21ZM813.36 369.81C813.13 371.06 813.47 372.03 814.38 372.71C815.3 373.39 816.73 373.73 818.66 373.73C820.35 373.73 821.84 373.37 823.14 372.65C824.44 371.94 825.18 371.06 825.37 370.03C825.52 369.24 825.38 368.61 824.95 368.12C824.52 367.64 823.83 367.35 822.87 367.26L816.5 366.66L816.06 366.6C815.43 366.87 814.85 367.32 814.31 367.95C813.78 368.58 813.46 369.2 813.34 369.82L813.36 369.81Z" fill="#194785"/>
<path d="M837.65 357.55C838.11 355.82 838.49 353.88 838.81 351.73C839.13 349.57 839.31 347.81 839.33 346.43C839.34 345.66 839.4 344.84 839.49 344C839.58 343.15 839.68 342.51 839.8 342.07C840.08 340.92 840.51 340.12 841.1 339.66C841.68 339.2 842.4 339.09 843.27 339.32C843.97 339.5 844.42 339.92 844.62 340.58C844.82 341.24 844.78 342.14 844.49 343.28C844.36 343.76 844.13 344.38 843.82 345.16C843.5 345.95 843.16 346.66 842.81 347.32C842.16 348.52 841.47 350.15 840.71 352.2C840.02 354.11 839.43 355.9 838.97 357.55H837.65ZM836.61 361.85C837.28 361.85 837.85 362.08 838.31 362.55C838.78 363.01 839.01 363.58 839.01 364.25C839.01 364.92 838.78 365.49 838.31 365.96C837.85 366.43 837.28 366.66 836.61 366.66C835.94 366.66 835.37 366.43 834.9 365.96C834.43 365.5 834.2 364.93 834.2 364.25C834.2 363.57 834.43 363.01 834.9 362.55C835.36 362.08 835.93 361.85 836.61 361.85Z" fill="#194785"/>
</svg>
