<?xml version="1.0" encoding="UTF-8"?><svg id="Layer_1" xmlns="http://www.w3.org/2000/svg" viewBox="0 0 50 50"><defs><style>.cls-1{fill:#ee8162;}</style></defs><path class="cls-1" d="m29.7,45.98c-5.21,0-10.42,0-15.63,0-3.15,0-6.3,0-9.45,0-.57,0-.61-.05-.61-.62,0-.67,0-1.34,0-2.01,0-.48.07-.55.57-.55.76,0,1.52,0,2.28,0,.22,0,.31-.06.31-.29,0-1.38,0-2.76,0-4.14,0-.11.04-.26-.16-.27-.28,0-.34-.2-.34-.44,0-.68,0-1.37,0-2.05,0-5.17,0-10.35,0-15.52,0-1.49,0-2.98,0-4.47,0-.34-.08-.48-.45-.46-.58.03-1.17,0-1.75.01-.33,0-.48-.13-.47-.47.01-.53.02-1.07,0-1.6-.01-.29.1-.45.37-.56,2.45-1.01,4.9-2.04,7.36-3.06,2.68-1.12,5.36-2.23,8.04-3.35,1.64-.68,3.28-1.37,4.91-2.06.22-.09.42-.09.64,0,4.7,1.96,9.41,3.92,14.11,5.88,2.07.86,4.14,1.73,6.21,2.59.24.1.36.24.35.5,0,.55,0,1.09,0,1.64,0,.32-.14.48-.47.47-.61,0-1.22.01-1.83-.01-.32-.01-.39.09-.39.4,0,4.41,0,8.83,0,13.24,0,2.87,0,5.74,0,8.62,0,.31.09.69-.43.7-.11,0-.08.14-.08.22,0,1.41,0,2.81,0,4.22,0,.25.13.25.3.25.78,0,1.57,0,2.35,0,.45,0,.55.1.55.54,0,.7,0,1.39,0,2.09,0,.44-.11.55-.55.55-5.25,0-10.5,0-15.74,0,0,0,0,0,0,0ZM10.52,26.15c-.02.22.1.53-.19.31-.3-.23-.53.03-.63.13-.14.14-.2.42-.03.68.48.72.92,1.47,1.29,2.27.74,1.6,1.11,3.3,1.27,5.05.07.75-.21,1.11-.95,1.11-.24,0-.36.09-.45.3-.23.55-.57,1.02-1.06,1.36-.14.1-.19.21-.19.38,0,1.55.03,3.1.01,4.66,0,.36.12.42.44.42,3.26,0,6.52,0,9.77,0,.3,0,.4-.07.4-.39-.02-1.89-.01-3.78,0-5.67,0-1.45.57-2.65,1.66-3.6.24-.21.22-.32.02-.54-.81-.85-.84-2.09-.07-2.93.74-.82,2.03-.92,2.94-.21.17.13.27.16.46,0,.9-.71,2.21-.62,2.94.19.77.86.75,2.12-.08,2.96-.23.23-.17.32.04.51,1.1.97,1.67,2.19,1.66,3.68-.01,1.84,0,3.68,0,5.52,0,.47,0,.47.49.47.62,0,1.24,0,1.87,0,2.62,0,5.25,0,7.87,0,.19,0,.39.06.38-.28-.02-1.59-.01-3.18,0-4.78,0-.19-.07-.32-.22-.43-.43-.31-.78-.71-.96-1.21-.12-.33-.34-.42-.65-.43-.53-.01-.9-.47-.81-.99.04-.24.07-.49.09-.74.25-2.39,1.07-4.58,2.41-6.57.18-.26.2-.51.08-.76-.11-.22-.36-.1-.54-.1-2.75-.04-5.22-2.11-5.76-4.8-.19-.95-.11-1.91-.12-2.86,0-.35-.14-.37-.41-.32-1.29.27-2.59.47-3.89.61-.65.07-1.22.4-1.65.83-.78.79-1.65,1.11-2.73.87-.13-.03-.25-.06-.4-.02-1.09.28-1.98-.03-2.77-.83-.42-.42-.95-.77-1.57-.84-1.38-.15-2.75-.36-4.11-.65-.23-.05-.28,0-.28.22,0,.61,0,1.22,0,1.83-.02,2.72-1.94,5.13-4.58,5.78-.33.08-.59.11-.75-.25,0,0-.04.02-.06.02-.04.12.19.18.05.35-.06-.09-.12-.17-.23-.33Zm30.51-11.63c1.27,0,2.33,0,3.39,0,.94,0,.92,0,.94-.94,0-.34-.1-.5-.41-.63-1.64-.66-3.28-1.34-4.91-2.03-4.93-2.06-9.87-4.12-14.8-6.18-.18-.07-.32-.06-.49,0-1.42.6-2.84,1.19-4.26,1.78-5.03,2.09-10.06,4.19-15.08,6.28-.78.32-.78.33-.77,1.2q0,.51.5.51c4.66,0,9.32,0,13.99,0,.55,0,.81-.27.86-.84.09-1.07.63-1.84,1.61-2.28.18-.08.34-.18.47-.34.72-.8,1.6-1.1,2.65-.85.18.04.33.04.51,0,1.06-.24,1.96.05,2.67.88.09.11.18.2.31.25,1.1.44,1.69,1.25,1.76,2.44.03.43.36.73.78.73,2.17,0,4.34.03,6.5.03,1.33,0,2.66.01,3.77-.03Zm-16.06,28.94c-3.05,0-6.09,0-9.14,0-3.63,0-7.26,0-10.89,0-.26,0-.32.08-.31.32.02.4.03.8,0,1.19-.02.33.11.38.41.38,3.39,0,6.78,0,10.18,0,7.99,0,15.99,0,23.98,0,1.9,0,3.8-.01,5.71.01.37,0,.47-.11.44-.46-.03-.31,0-.62,0-.93,0-.53.1-.5-.5-.5-6.63,0-13.25,0-19.88,0Zm-.03-.65h0c1.27,0,2.53,0,3.8,0,.3,0,.41-.06.41-.39-.01-1.89.01-3.78-.01-5.67-.02-1.25-.5-2.31-1.44-3.15-.24-.21-.4-.24-.64.02-.56.6-1.15,1.17-1.73,1.75-.3.3-.41.3-.7,0-.6-.6-1.21-1.18-1.79-1.8-.2-.21-.32-.18-.51-.01-1.01.86-1.49,1.96-1.51,3.27-.02,1.88,0,3.75-.01,5.63,0,.26.07.34.33.34,1.27-.01,2.53,0,3.8,0Zm-3.04-11.57c0,.3.15.65.44.95.8.8,1.6,1.6,2.39,2.4.18.19.3.21.5,0,.77-.8,1.56-1.57,2.33-2.35.63-.64.67-1.58.1-2.17-.59-.6-1.58-.58-2.23.05-.43.42-.46.42-.89,0-.11-.11-.24-.22-.38-.3-.5-.28-1.02-.3-1.52,0-.48.29-.73.72-.73,1.41Zm15.39-13.67c-.07.02-.13.04-.19.05-.58.16-1.16.36-1.76.48-.37.08-.37.23-.26.53.64,1.83,1.65,3.41,3.03,4.77.82.8,1.74,1.47,2.73,2.06.23.14.42.1.56-.07.18-.21-.1-.27-.19-.36-1.01-.98-1.82-2.1-2.44-3.36-.6-1.21-1.01-2.48-1.27-3.8-.02-.13,0-.32-.22-.31Zm.8-.1c.01.09.01.14.02.19.29,1.54.77,3,1.56,4.36.57.99,1.25,1.88,2.1,2.65.08.07.14.19.28.12.23-.13.4-.64.27-.87-.39-.74-.7-1.51-.95-2.3-.49-1.57-.77-3.18-.87-4.82-.01-.24-.03-.39-.34-.26-.62.25-1.25.48-1.88.72-.14.05-.22.11-.19.23Zm-26.25.07c.03-.16,0-.25-.17-.31-.62-.22-1.23-.46-1.85-.69-.23-.09-.36-.08-.38.22-.03.51-.08,1.01-.15,1.52-.25,1.92-.7,3.78-1.62,5.5-.17.33-.1.54.06.81.16.26.27.24.48.05.8-.74,1.45-1.59,2.01-2.53.84-1.42,1.34-2.95,1.62-4.56Zm3.11.76c0-.16-.13-.12-.21-.15-.64-.18-1.29-.35-1.93-.55-.27-.08-.34,0-.39.25-.52,2.81-1.7,5.27-3.8,7.25-.22.21-.12.28.07.4.15.08.26.03.38-.04,2.74-1.61,4.75-3.84,5.78-6.88.03-.09.06-.19.09-.28Zm-6.88,8.78c.17.97.32,1.84.41,2.72.24,2.17.23,4.34.09,6.51-.02.29-.18.73.03.83.26.13.59-.17.85-.36.46-.33.74-.74.66-1.36-.08-.54-.09-1.09-.14-1.63-.19-2.04-.67-4.01-1.47-5.9-.11-.25-.18-.54-.43-.83Zm33.75.11c-.37.68-.66,1.37-.91,2.09-.72,2.09-1,4.26-1.1,6.45,0,.16-.01.31.09.46.28.41.64.72,1.1.91.33.13.39.09.37-.27-.07-1.26-.14-2.52-.13-3.78.01-1.27.08-2.53.25-3.79.1-.7.21-1.39.32-2.08Zm-26.45-8.03c-1.11,2.84-3.04,4.99-5.56,6.66.3.04.57.07.83.03.28-.05.51-.04.68.21,0,.01.06,0,.11-.01-.03-.12-.21-.13-.17-.29.17-.03.34-.14.53-.02.16-.32.52-.32.79-.47.74-.42,1.6-1.13,2.02-1.82.07-.12.28.04.2-.13-.19-.44.12-.14.24-.16-.06-.14-.2-.25-.1-.45.56-1.12.48-2.32.42-3.53Zm24.8,6.65c-2.61-1.67-4.52-3.83-5.63-6.76-.59,4.71,2.84,7.08,5.63,6.76ZM9.85,15.8c3.31,1.47,6.78,2.27,10.39,2.7-.11-.43-.28-.79-.27-1.18,0-.18-.11-.18-.25-.2-.8-.07-1.61-.14-2.41-.21-1.82-.16-3.62-.41-5.42-.72-.69-.12-1.37-.26-2.06-.39Zm30.15.03c-1.02.18-2.04.37-3.07.54-2.16.34-4.32.57-6.5.73-.36.03-.51.11-.48.49.01.16-.07.34-.12.5-.13.4-.12.41.3.36,2.27-.28,4.5-.73,6.69-1.39,1.09-.33,2.16-.7,3.18-1.22ZM7.29,22.95c.11,0,.13-.04.15-.08.9-2.07,1.28-4.26,1.42-6.5.01-.17-.07-.24-.21-.31-.34-.16-.67-.32-1-.5-.3-.17-.37-.09-.37.23,0,1.91,0,3.83,0,5.74,0,.48,0,.95,0,1.43Zm35.36-.02c0-.12,0-.25,0-.37,0-2.27,0-4.54.01-6.82,0-.27-.03-.37-.32-.21-.33.19-.68.35-1.03.51-.18.08-.23.2-.21.38.11,1.45.29,2.88.67,4.28.21.77.44,1.53.88,2.22Zm-3.21-7.66s0-.04,0-.06c-.04,0-.09-.02-.13-.02-1.29-.01-2.57-.06-3.86-.02-1.48.04-2.95.02-4.43.01-.41,0-.55.1-.51.5.02.17-.03.35-.07.51-.05.2,0,.27.21.26,1.11-.1,2.23-.15,3.33-.29,1.5-.19,2.98-.44,4.47-.67.33-.05.66-.14.99-.21Zm-28.99-.09s0,.05,0,.08c.13.03.26.06.39.09,1.52.29,3.05.55,4.59.72,1.27.14,2.54.24,3.81.37.23.02.32-.04.26-.29-.05-.19-.08-.4-.06-.59.04-.34-.12-.38-.4-.38-2.21,0-4.42,0-6.63,0-.66,0-1.31,0-1.97,0Zm-3.06,11.55s-.06,0-.09,0c0,.62,0,1.24,0,1.86,0,2.83,0,5.66,0,8.49,0,.11-.1.35.17.31.18-.03.43.04.43-.31.02-.68.11-1.36.13-2.04.06-2.1.03-4.19-.29-6.28-.1-.68-.23-1.36-.35-2.03Zm35.28.03c-.33,1.07-.49,2.17-.6,3.27-.23,2.31-.19,4.61-.02,6.92.02.33.15.46.44.44.34-.02.18-.31.18-.46.01-2.9,0-5.79.01-8.69,0-.5,0-.99,0-1.49ZM8.37,42.81c.16-.11.56.23.57-.3,0-1.39.03-2.77.03-4.16,0-.55-.02-.55-.55-.46-.09.01-.17.04-.26.04-.29,0-.36.15-.36.42.01,1.31,0,2.61.01,3.92,0,.58-.12.53.56.54Zm32.64-2.53h0c0,.58,0,1.17,0,1.75,0,.82,0,.81.84.79.25,0,.31-.09.3-.32-.01-1.22,0-2.43,0-3.65,0-.86,0-.85-.87-.99-.24-.04-.27.02-.27.23,0,.73,0,1.46,0,2.2Zm-31.85-12.66l-.07.03c.05.12.09.24.14.37.41,1,.73,2.02.97,3.07.28,1.25.43,2.51.52,3.78,0,.09-.06.23.12.25.64.07.79-.09.71-.74,0-.02,0-.05,0-.07-.21-1.92-.7-3.74-1.65-5.43-.24-.42-.49-.84-.74-1.26Zm31.61.15c-.87,1.27-1.55,2.64-1.93,4.14-.22.86-.34,1.74-.49,2.62-.06.36,0,.51.32.57.46.09.54.03.58-.4.12-1.62.35-3.22.81-4.79.21-.72.46-1.43.71-2.15Zm-13.4-16.27c-.5-.59-1.19-.82-1.87-.67-.17.04-.33.07-.45.23-.23.31-.43.64-.57,1-.32.82-.1,1.96.3,2.37.32-1.45,1.11-2.48,2.59-2.93Zm-1.21,4.19c1.19.73,1.93,1.73,1.96,3.17,0,.21.13.17.25.1.43-.25.69-.62.86-1.08.12-.33.08-.61-.13-.91-.72-1.03-1.7-1.43-2.94-1.27Zm-.69-1.22c.07-.03.11-.03.13-.05,1.03-.89,2.2-1.2,3.52-.8.23.07.17-.1.14-.21-.14-.6-.48-1.05-1.03-1.34-.1-.05-.2-.08-.32-.06-1.27.21-2.21,1.13-2.45,2.46Zm-.23,2.31s-.05.03-.05.04c-.02.03-.04.07-.05.1-.33,1.29-1.05,2.22-2.34,2.67-.19.07-.13.14-.04.22.32.3.71.45,1.14.48.28.02.6.06.81-.16.87-.86,1.16-2.28.51-3.35Zm.25,3.44c1.19.34,2.14-.48,1.97-1.64,0-.06-.01-.12-.02-.19-.18-.93-.71-1.59-1.57-2.02.56,1.36.51,2.65-.38,3.85Zm.45-5.21c.12,0,.16-.01.21-.02,1.16-.1,2.18.18,3.02,1.03.15.15.26.49.45.42.2-.08.21-.42.24-.66.01-.09.03-.18.02-.26-.06-.41-.03-.89-.46-1.11-1.14-.6-2.47-.37-3.48.61Zm-4.18-2.92c-1.12.49-1.39,1.65-.61,2.48.12.13.24.25.38.35.66.49,1.4.66,2.33.51-1.35-.77-2.06-1.84-2.09-3.34Zm2.37,2.66c-.6-1.32-.62-2.56.18-3.75.16-.23-.03-.21-.16-.22-1.05-.07-1.77.63-1.71,1.67.06.95.8,2,1.69,2.3Zm.36,1.89c-.33.22-.63.46-.96.64-.79.44-1.63.56-2.51.32-.34-.09-.39-.04-.27.29.16.46.44.83.88,1.07.15.08.29.19.48.17,1.18-.13,2.25-1.24,2.39-2.49Zm-.52-.54c-1.22.15-2.28-.08-3.16-.94-.16-.16-.32-.5-.5-.42-.22.09-.23.45-.23.71,0,.49.03,1.06.48,1.29,1.07.56,2.47.42,3.4-.64ZM7.3,25.11c0,.29-.07.49.11.66.39.39.85.68,1.37.86.09.03.2.1.23-.06.02-.09.05-.22-.07-.26-.64-.22-1.15-.63-1.64-1.21Zm35.32.05c-.45.54-.96.93-1.58,1.15-.15.05-.11.18-.09.29.04.16.16.08.24.05.43-.15.8-.39,1.15-.67.24-.19.39-.41.27-.81Z"/></svg>