<?xml version="1.0" encoding="UTF-8"?><svg id="Layer_1" xmlns="http://www.w3.org/2000/svg" viewBox="0 0 50 50"><defs><style>.cls-1{fill:#ee8162;}</style></defs><path class="cls-1" d="m44.43,22.07v13.74c.32-.63.75-1.04,1.36-1.23,1.08-.34,2.24.23,2.63,1.28.4,1.07-.09,2.26-1.17,2.7-.34.14-.41.31-.4.63.03.86-.14.76.76.77.3,0,.6,0,.9,0,.28.01.5.12.49.45,0,.32-.22.43-.51.43H1.64c-.11,0-.24.03-.32-.02-.13-.09-.32-.24-.32-.36,0-.15.14-.33.27-.44.09-.08.28-.06.41-.06.74,0,1.48-.01,2.22,0,.29,0,.44-.07.39-.38v-.11c.07-.49-.04-.8-.58-1.03-.95-.41-1.34-1.59-.98-2.57.35-.97,1.38-1.55,2.38-1.36.12.02.23.04.38.07v-3.04c0-.6-.3-.9-.91-.9-.27,0-.53.01-.79-.02-.41-.05-.56-.33-.34-.69.69-1.07,1.38-2.13,2.1-3.17.1-.14.39-.22.6-.22,1.1-.02,2.2-.02,3.3,0,.29,0,.46-.07.58-.35.23-.53.51-1.03.74-1.55.15-.35.39-.48.75-.46.59.02,1.17,0,1.76,0h11.06q.48,0,.48-.47v-1.63c-.15.13-.27.21-.37.3-.53.49-1.03,1-1.58,1.46-.15.13-.4.23-.59.2-.27-.03-.28-.32-.28-.55,0-.67-.02-1.34.01-2.01.01-.2.11-.48.26-.58.78-.52.95-1.23.9-2.12-.07-1.23-.02-2.47-.02-3.69,0-.54.12-.65.66-.65h4.99c.27,0,.47-.08.67-.26,1.53-1.43,3.06-2.86,4.6-4.29.5-.46.59-.46,1.1.02,1.71,1.6,3.43,3.2,5.14,4.8.08.07.16.14.25.22.03-.05.06-.08.06-.11.06-.81.07-.82.87-.82h1.51c.47,0,.6.13.6.6,0,.95-.01,1.89.01,2.84,0,.19.1.42.23.55.97.93,1.96,1.86,2.96,2.77.29.27.44.54.42.93-.02.61.01,1.22-.02,1.83-.01.19-.12.43-.27.53-.22.16-.43-.01-.6-.18-.5-.48-1.01-.95-1.52-1.43-.12-.11-.24-.22-.41-.37h.02Zm-9.8-9.14c-.09.08-.15.12-.2.17-2.84,2.64-5.67,5.29-8.5,7.94-.13.12-.21.37-.21.56-.01,2.98,0,5.96,0,8.94v8.87c0,.37.18.55.54.55h16.8q.48,0,.48-.48c0-5.95,0-11.9,0-17.84,0-.29-.08-.49-.29-.69-1.76-1.63-3.52-3.27-5.28-4.92-1.1-1.03-2.2-2.06-3.33-3.1h0ZM6.44,30.65c-.02.09-.04.13-.04.17,0,1.42,0,2.85,0,4.27,0,.11.06.23.12.33.49.8.49,1.6,0,2.41-.06.1-.12.22-.12.33-.01.51,0,1.03-.01,1.54,0,.2.07.28.27.28h1.83c.18,0,.26-.07.25-.25-.01-.27,0-.53,0-.79v-5.64c0-.42.13-.59.5-.59,1.21-.01,2.42,0,3.63,0,.29,0,.44.17.48.44.02.14.01.29.01.43,0,2,0,4,0,6,0,.31.09.44.39.44.48-.01.96-.02,1.43-.02h9.23c.31,0,.44-.06.43-.41-.02-2.85-.01-5.7,0-8.55,0-.33-.11-.4-.41-.39-1.14.02-2.3.03-3.44.03H6.44Zm18.39-3.2c-.19-.01-.36-.03-.52-.03-5.92,0-11.84,0-17.77-.01-.28,0-.44.09-.58.32-.37.58-.75,1.14-1.13,1.7-.06.08-.09.18-.18.34h16.02c.13,0,.27,0,.39.01,1.17.01,2.34.03,3.51.02.08,0,.24-.14.24-.22.02-.7.01-1.4.01-2.14h0Zm21.52-4.8c0-.24-.02-.4,0-.55.07-.43-.11-.72-.43-.98-.33-.27-.62-.56-.93-.85-3.16-2.95-6.31-5.9-9.47-8.85-.29-.28-.59-.55-.9-.82-.09.08-.15.13-.22.18-3.68,3.43-7.36,6.89-11.07,10.3-.5.45-.46.92-.41,1.54.42-.39.8-.74,1.17-1.08,3.35-3.13,6.7-6.26,10.06-9.38.39-.37.55-.36.94,0,2.63,2.45,5.25,4.9,7.88,7.35,1.1,1.03,2.21,2.05,3.37,3.14h.01Zm-21.52,2.41h-12.83c-.15,0-.4.02-.45.11-.25.42-.45.88-.68,1.36.14,0,.21.01.28.01h13.25c.07,0,.15.02.21-.01.09-.05.21-.13.22-.2.02-.4.01-.81.01-1.27h0Zm-12.35,8.51c-.87,0-1.69.01-2.51,0-.27,0-.34.09-.34.35.01,1.9.01,3.8,0,5.7,0,.3.12.36.38.35.68-.01,1.36-.02,2.04,0,.36.02.44-.12.43-.45-.02-1.84,0-3.68,0-5.52v-.43h0Zm15.73-18.2c-.1-.03-.15-.06-.2-.06-1.22,0-2.44,0-3.66,0-.26,0-.29.14-.29.34v3.47s.06.03.08.04c1.34-1.25,2.68-2.5,4.06-3.78h0Zm18.66,22.39c.63-.27.93-.84.79-1.43-.14-.6-.7-1.01-1.33-.96-.56.04-1.07.53-1.13,1.07-.06.61.24,1.12.8,1.27,0-.35-.01-.7,0-1.04.01-.28.13-.5.45-.48s.41.24.41.52v1.04h.01Zm-41.67,0c.65-.28.93-.87.76-1.49-.16-.58-.72-.96-1.34-.9s-1.08.59-1.1,1.21c-.01.56.32,1.03.8,1.12,0-.34-.01-.67,0-1,.02-.35.19-.53.48-.5.33.02.4.25.4.53v1.04h0Zm39.23-.39c0,.84,0,1.59,0,2.33,0,.08.09.24.13.24.45,0,.9-.01,1.36-.02.03-.33.05-.65.08-.98,0-.03,0-.08-.01-.11-.03-.06-.07-.14-.12-.15-.65-.21-1.1-.64-1.44-1.31h0Zm-1.78-20.51l.09-.04v-1.1c0-.62-.31-.9-.92-.85-.05,0-.1,0-.14.02s-.11.05-.11.08c.02.32-.06.7.09.92.25.38.65.65.99.97h0ZM5.51,38.7s-.08-.05-.12-.08c-.07.09-.18.18-.19.28-.03.27-.02.55,0,.82,0,.08.09.15.14.23.06-.07.15-.14.16-.22.02-.34,0-.69,0-1.03h0Z"/><path class="cls-1" d="m24.77,13.39h-2.98c-.81,0-1.43-.45-1.61-1.17-.19-.75.14-1.43.87-1.82.1-.06.17-.18.24-.28.03-.04.03-.09.04-.13.16-.7.93-.76,1.29-1.26.4-.55.93-.75,1.6-.68.11.01.25-.06.35-.12,1-.67,2.22-.32,2.67.8.08.2.19.26.39.29.87.15,1.39.71,1.52,1.58.03.18.08.37.15.54.48,1.06-.24,2.22-1.42,2.24-1.04.01-2.09,0-3.13,0h0Zm.01-.88h3.05c.3,0,.54-.1.67-.38.13-.27.07-.5-.08-.74-.09-.14-.15-.33-.15-.49.02-.71-.45-1.1-1.16-.95-.42.09-.63-.06-.63-.49,0-.43-.15-.76-.55-.91s-.76-.04-1.02.3c-.18.23-.38.28-.66.17-.48-.19-.81-.04-.98.45-.09.24-.24.37-.49.41-.46.08-.63.26-.64.75-.01.32-.15.48-.46.54-.45.09-.71.38-.67.74.04.37.34.61.8.61h2.98,0Z"/><path class="cls-1" d="m31.89,42.41h-10.3c-.51,0-.72-.13-.73-.43,0-.32.2-.45.75-.45h20.57c.51,0,.72.13.73.43,0,.32-.2.45-.75.45h-10.27Z"/><path class="cls-1" d="m13.2,19.86h-2.37c-.67,0-1.18-.38-1.34-.98-.15-.58.09-1.14.65-1.5.11-.07.18-.2.26-.31,0-.01.01-.02.01-.03.15-.53.72-.62,1.02-1,.33-.42.75-.6,1.28-.55.11.01.22-.07.32-.12.81-.48,1.73-.2,2.16.63.06.11.2.22.32.25.67.19,1.07.59,1.18,1.29.03.16.07.33.14.48.37.9-.23,1.83-1.21,1.84-.81.02-1.63,0-2.44,0h0Zm0-.88c.79,0,1.58,0,2.37,0,.47,0,.63-.32.4-.72-.07-.13-.13-.29-.13-.43,0-.5-.29-.76-.77-.67-.43.08-.62-.06-.63-.48-.01-.29-.1-.51-.39-.62s-.51.01-.69.23c-.15.18-.34.24-.58.15-.39-.14-.5-.06-.71.3-.08.14-.25.28-.41.33-.28.09-.45.21-.44.52,0,.29-.15.47-.44.53-.27.05-.45.17-.43.48.03.33.27.39.54.39h2.31Z"/><path class="cls-1" d="m7.15,42.35H2.34c-.09,0-.22.03-.28-.02-.13-.11-.32-.25-.33-.4,0-.14.16-.32.3-.41.1-.07.28-.05.42-.05h9.36c.15,0,.34-.03.45.04.14.08.33.27.32.39-.02.15-.2.31-.34.41-.08.06-.23.02-.35.02h-4.74Z"/><path class="cls-1" d="m34.65,28.6h5.6c.59,0,.71.12.71.71v7.36c0,.55-.12.68-.67.68h-11.31c-.59,0-.7-.12-.7-.73,0-2.25.02-4.5.02-6.75,0-.19,0-.38-.02-.58-.03-.53.12-.7.65-.7h5.71,0Zm-2.42.91h-3.05c0,.97,0,1.91.01,2.84,0,.06.13.18.2.18.87.01,1.74.01,2.62,0,.08,0,.22-.13.22-.2.02-.93.01-1.86.01-2.82h-.01Zm4.8,5.45c0,.4,0,.81,0,1.22,0,.21.07.3.29.3.82-.01,1.65,0,2.47,0,.21,0,.3-.07.3-.29,0-.82,0-1.65,0-2.47,0-.21-.07-.3-.29-.29-.82.01-1.65.01-2.47,0-.25,0-.3.11-.3.32.01.4,0,.81,0,1.22Zm3.05-5.48h-2.79c-.22,0-.26.11-.26.29,0,.82,0,1.65,0,2.48,0,.25.11.3.33.29.65-.01,1.29,0,1.94,0,.52,0,.79-.26.79-.79v-2.26h0Zm-7.85,3.94h-2.82c-.23,0-.23.14-.23.31v2.74c.98,0,1.9,0,2.82-.01.08,0,.22-.12.22-.19.02-.93.01-1.86.01-2.85h0Zm.92-.89c.96,0,1.86,0,2.77-.01.08,0,.22-.17.23-.26.02-.84,0-1.67.01-2.51,0-.23-.12-.28-.32-.27-.6,0-1.19,0-1.79,0h-.9s0,3.05,0,3.05Zm3.01,2.46c0-.41-.01-.81,0-1.22.01-.26-.07-.36-.35-.36-.79.02-1.58.02-2.37,0-.26,0-.33.09-.32.34.01.8.01,1.6,0,2.41,0,.23.07.32.3.32.81-.01,1.63-.01,2.44,0,.22,0,.29-.09.29-.3-.01-.39,0-.79,0-1.18h0Z"/><path class="cls-1" d="m34.62,21.95c-1.6,0-2.87-1.29-2.84-2.89.02-1.55,1.31-2.82,2.87-2.82,1.57,0,2.87,1.32,2.85,2.87-.02,1.58-1.29,2.84-2.87,2.84h0Zm0-.88c1.21.03,1.96-.95,1.99-1.96.03-1.08-.88-1.98-1.99-1.98s-1.97.88-1.97,1.95.87,1.98,1.97,1.99h0Z"/><path class="cls-1" d="m19.12,38.04h-3.66c-.45,0-.6-.14-.6-.6v-4.16c0-.43.15-.59.59-.59h7.39c.4,0,.56.14.56.54.01,1.42.01,2.85,0,4.27,0,.42-.15.55-.58.55h-3.69Zm3.38-1.59h-5.8c-.14,0-.32.03-.42-.04-.14-.09-.31-.28-.3-.41,0-.14.19-.3.33-.4.08-.06.23-.02.35-.02h5.42c.09,0,.2.02.28-.01.07-.03.14-.12.14-.19s-.07-.17-.14-.2c-.09-.03-.21-.02-.32-.02h-5.35c-.53,0-.76-.15-.75-.46.01-.3.23-.42.74-.42,1.82,0,3.64,0,5.46,0,.3,0,.41-.09.37-.39-.01-.09-.02-.18-.03-.28h-6.75v3.33c0,.24.15.23.32.23h6.14c.24,0,.36-.07.33-.33-.02-.12-.02-.23-.03-.39h.01Z"/></svg>