<?xml version="1.0" encoding="UTF-8"?><svg id="Layer_1" xmlns="http://www.w3.org/2000/svg" viewBox="0 0 50 50"><defs><style>.cls-1{fill:#ee8162;}</style></defs><path class="cls-1" d="m16.71,36.85c-1.02.55-1.94,1.08-2.89,1.56-.91.46-1.78,1-2.69,1.47-1.2.63-2.36,1.32-3.57,1.93-1.05.53-2.05,1.14-3.09,1.68-.29.15-.55.37-.89.45-.53.13-1.03-.16-1.05-.71-.07-1.61-.06-3.24.48-4.78.76-2.16,2.09-3.93,4.12-5.07,1.28-.72,2.64-1.3,3.96-1.95.78-.38,1.55-.78,2.33-1.17,1-.5,1.99-.99,2.99-1.48.22-.1.31-.22.31-.48-.01-3.31-.01-6.62,0-9.93,0-.34-.12-.42-.42-.4-.23.02-.46,0-.69,0-.43.02-.76-.16-.88-.57-.12-.4-.05-.77.31-1.07.79-.66,1.57-1.33,2.35-2.01,1.82-1.58,3.63-3.15,5.45-4.73,1.23-1.07,2.45-2.16,3.7-3.21,1.15-.98,1.26-.94,2.41.05,1.15.98,2.27,2.02,3.41,3.01,1.21,1.05,2.44,2.08,3.63,3.15,1.21,1.09,2.49,2.11,3.71,3.19.34.3.81.5.96,1,.2.66-.14,1.14-.83,1.19-.05,0-.09,0-.14,0q-.99,0-.99,1.02c0,2.76,0,5.52,0,8.29,0,.3.1.5.32.69,1.82,1.59,3.65,3.18,5.43,4.8.78.71,1.59,1.38,2.35,2.12.51.5.69,1.15.69,1.86,0,2.18,0,4.36,0,6.55,0,.72-.31,1.04-1.03,1.03-3.86-.03-7.73-.05-11.59-.08-.65,0-.94-.3-.94-.96,0-2.06,0-4.12,0-6.18,0-.35-.08-.46-.45-.46-3.88.01-7.76.01-11.64,0-.38,0-.45.11-.44.47.02,2.04.01,4.09.01,6.13,0,.76-.25,1-1.01,1-.92,0-1.83-.02-2.75,0-.54.02-.98-.33-.97-.96.04-2,.01-4,.01-6,0-.13,0-.27,0-.45Zm10.96-19.51c1.19,0,2.38,0,3.57,0,2.75,0,5.5,0,8.25,0,.19,0,.44.09.53-.14.09-.22-.13-.33-.28-.46-.28-.26-.59-.49-.88-.74-1.78-1.54-3.54-3.12-5.32-4.67-1.78-1.55-3.58-3.08-5.37-4.62-.49-.43-.49-.43-.94-.03-2.16,1.89-4.32,3.78-6.48,5.66-1.69,1.48-3.39,2.95-5.1,4.41-.17.14-.31.25-.24.47.08.23.29.12.44.12,3.94,0,7.88,0,11.82,0Zm.04,10.16c1.94,0,3.88,0,5.82,0,.26,0,.42,0,.42-.35-.01-2.93-.01-5.86,0-8.79,0-.31-.11-.39-.4-.39-3.92,0-7.85,0-11.77,0-.29,0-.36.11-.36.37,0,2.91.01,5.83,0,8.74,0,.34.1.42.43.42,1.95-.02,3.91,0,5.86,0Zm6.96,3.29c0,.78,0,1.56,0,2.33,0,3.33,0,6.65-.01,9.98,0,.42.12.54.53.52.75-.03,1.5,0,2.24-.01.67,0,.63.13.63-.63,0-8.08,0-16.17,0-24.25,0-.14-.01-.28,0-.41.03-.27-.1-.34-.35-.34-.85.01-1.71.03-2.56,0-.42-.02-.5.13-.5.51.01,4.1,0,8.21,0,12.31Zm-17.31-.09h0c0,1.49,0,2.99,0,4.48,0,2.53,0,5.06,0,7.6q0,.83.81.83c.67,0,1.34,0,2.02,0,.59,0,.59,0,.59-.62,0-4.71,0-9.43,0-14.14,0-3.46,0-6.92.02-10.39,0-.41-.11-.52-.51-.5-.81.03-1.62.03-2.43,0-.42-.02-.5.13-.5.52.01,4.07,0,8.14,0,12.22Zm-.65,3.18c0-.63,0-1.25,0-1.88,0-.12.06-.27-.05-.34-.14-.1-.2.08-.3.13-.6.31-1.2.62-1.8.92-1.3.66-2.59,1.31-3.89,1.96-1.02.51-2.04,1.02-3.06,1.53-.24.12-.4-.04-.49-.19-.1-.16.01-.33.18-.41.39-.2.78-.39,1.17-.59,1.24-.62,2.47-1.23,3.71-1.85,1.15-.58,2.27-1.23,3.46-1.74,1.04-.45,1.12-.58,1.08-1.7,0-.2.02-.41-.28-.19-.19.14-.42.23-.64.34-1.31.64-2.63,1.26-3.94,1.91-.97.48-1.9,1.03-2.89,1.45-1.46.63-2.77,1.43-3.78,2.69-.77.96-1.31,2.03-1.65,3.19-.38,1.27-.28,2.59-.29,3.89,0,.33.05.42.37.2.17-.11.35-.22.54-.32,1.39-.74,2.78-1.48,4.16-2.23,1.2-.65,2.38-1.32,3.58-1.97,1.47-.79,2.94-1.56,4.41-2.34.27-.14.46-.33.42-.71-.05-.58-.01-1.16-.01-1.74Zm21.99-1.58c0,1.1,0,2.2,0,3.29,0,.25.07.35.33.35.53-.01,1.07-.01,1.6,0,.65.02,1,.38,1.01,1.03,0,.38.02.76,0,1.14-.02.31.1.39.39.38.49-.02.98.01,1.46,0,.55-.02,1.19.42,1.1,1.09-.05.39,0,.79-.01,1.19,0,.22.07.29.29.29.52-.01,1.04-.02,1.56,0,.34.02.45-.08.45-.43-.02-1.27,0-2.53,0-3.8,0-.6-.19-1.14-.63-1.55-.79-.73-1.61-1.42-2.42-2.13-1.58-1.41-3.16-2.82-4.74-4.23-.09-.08-.18-.21-.3-.15-.13.06-.06.22-.06.33,0,1.07,0,2.13,0,3.2Zm4.02,11.31c1.25,0,2.5,0,3.76,0,.27,0,.39-.07.38-.36-.02-.35-.01-.7,0-1.05.02-.34-.13-.45-.46-.44-.66.02-1.31,0-1.97.01-.4.01-.55-.18-.55-.54,0-.52-.02-1.04,0-1.56.01-.34-.08-.49-.46-.47-.64.03-1.28,0-1.92.01-.41,0-.58-.18-.57-.58,0-.55,0-1.1,0-1.65,0-.25-.06-.35-.33-.34-.52.02-1.04.02-1.56,0-.27,0-.33.1-.33.34,0,2.09,0,4.18,0,6.27,0,.29.09.36.36.36,1.22-.01,2.44,0,3.66,0Zm-15.01-7.67c1.75,0,3.51,0,5.26,0,.98,0,.96,0,.97-.95,0-.34-.09-.43-.44-.43-3.72.02-7.44.01-11.16.01-.95,0-.93,0-.93.94,0,.34.11.44.45.44,1.95-.01,3.9,0,5.86,0Zm2.83-4.9c0-.82-.01-1.65,0-2.47,0-.27-.07-.38-.35-.38-.7,0-1.4,0-2.11,0-.27,0-.37.09-.37.37.01,1.66.01,3.32,0,4.99,0,.31.12.39.4.38.69-.02,1.37-.02,2.06,0,.28,0,.37-.08.36-.36-.02-.84,0-1.68,0-2.52Zm-6.25,0c0,.84.01,1.68,0,2.52,0,.29.08.37.36.36.69-.02,1.37-.01,2.06,0,.27,0,.37-.07.37-.36-.01-1.68-.01-3.36,0-5.03,0-.26-.08-.34-.34-.34-.67.01-1.34.03-2.01,0-.4-.02-.44.15-.44.48.02.79,0,1.59,0,2.38Zm6.89-.03c0,.85,0,1.71,0,2.56,0,.26.07.35.33.34.69-.01,1.37,0,2.06,0,.23,0,.36-.04.36-.32-.01-1.69,0-3.39,0-5.08,0-.23-.07-.34-.31-.33-.7.01-1.4.02-2.11,0-.26,0-.34.09-.34.35.01.82,0,1.65,0,2.47Zm-7.54.04h0c0-.82,0-1.65,0-2.47,0-.29-.09-.41-.39-.4-.49.02-.98,0-1.46,0-.26,0-.39.06-.39.35.01,1.68.01,3.35,0,5.03,0,.29.12.36.39.35.49-.02.98-.02,1.46,0,.31.02.39-.11.39-.4-.01-.82,0-1.65,0-2.47Z"/><path class="cls-1" d="m27.74,10.55c1.19-.1,2.32,1.02,2.34,2.3.01,1.36-1.17,2.38-2.19,2.37-1.5-.02-2.52-.96-2.57-2.32-.04-1.07,1.02-2.52,2.42-2.36Zm-1.7,2.29c-.1.95.72,1.74,1.63,1.73,1.08-.02,1.68-.62,1.72-1.67.03-.94-.55-1.67-1.68-1.71-.94-.03-1.76.81-1.67,1.65Z"/></svg>