<?xml version="1.0" encoding="UTF-8"?><svg id="Layer_1" xmlns="http://www.w3.org/2000/svg" viewBox="0 0 50 50"><defs><style>.cls-1{fill:#ee8162;}</style></defs><path class="cls-1" d="m26.62,22.96c.03,1.69-.28,3.17-.87,4.6-.59,1.43-.34,2.57.83,3.58,1.41,1.21,2.85,2.39,4.28,3.58.97.82,1.31,2.03.87,3.17-.44,1.16-1.54,1.88-2.81,1.8-.87-.05-1.54-.49-2.09-1.16-1.17-1.42-2.35-2.84-3.56-4.23-.96-1.1-2.13-1.36-3.45-.79-1.82.79-3.73,1.02-5.69.87-.3-.02-.44.04-.6.29-.9,1.48-2.5,2.14-4.08,1.72-1.54-.41-2.63-1.79-2.69-3.46-.01-.34.05-.71.17-1.03.15-.4.05-.62-.25-.89-2.17-2-3.54-4.47-4.03-7.38-1.01-5.97,2.54-11.8,8.74-13.08,6.58-1.36,13.06,2.82,14.84,9.49.1.36.17.72.23,1.08.11.66.18,1.32.14,1.84Zm-12.87-12.08c-2.71.07-5.17.91-7.19,2.8-2.62,2.45-3.72,5.49-3.38,9.05.29,3.07,1.62,5.63,3.84,7.75.3.28.46.26.73-.04.87-.94,1.96-1.37,3.23-1.13,1.98.38,3.09,1.82,3.05,3.84,0,.19-.16.42.12.57.46.25,1.84.08,2.21-.29,2.75-2.74,5.43-5.54,8.26-8.19,1.19-1.11,1.71-2.24,1.3-3.8-.06-.23-.08-.46-.12-.69-.42-2.08-1.33-3.91-2.7-5.52-.24-.28-.41-.29-.64,0-.17.21-.38.39-.58.58-.12.11-.28.17-.42.04-.16-.15-.13-.32.01-.46.19-.2.39-.38.58-.58.17-.17.45-.37.07-.59-.28-.15-.43-.79-.92-.27-.45.47-.91.92-1.37,1.38-.16.16-.34.22-.52.07-.2-.18-.07-.35.08-.5.44-.44.87-.9,1.33-1.33.24-.22.21-.34-.06-.52-2.08-1.43-4.38-2.12-6.92-2.18Zm3.38,22.74c.99-.08,1.78-.4,2.58-.71,1.5-.58,2.98-.22,4.04.98.41.47.83.94,1.23,1.42.79.95,1.57,1.9,2.36,2.85.85,1.01,2.04,1.22,3.02.52,1.17-.83,1.28-2.44.19-3.39-1.36-1.18-2.72-2.37-4.15-3.47-1.32-1.02-2.04-2.78-1.17-4.66.32-.69.54-1.43.6-2.23-2.89,2.88-5.74,5.73-8.71,8.68Zm-9.7-.78c0,1.7,1.32,3.05,2.98,3.04,1.64,0,3-1.34,3.03-2.97.03-1.63-1.37-3.04-3.02-3.06-1.62-.02-2.99,1.36-3,2.99Z"/><path class="cls-1" d="m8.02,32.68c.05-1.17,1.2-2.26,2.3-2.24.2,0,.36.06.39.27.03.22-.12.32-.31.35-1.08.13-1.69.71-1.78,1.81-.02.21-.15.33-.35.29-.29-.06-.24-.31-.24-.47Z"/><path class="cls-1" d="m47.48,24.22c0,.1,0,.21,0,.31.07.87-.03.76-.67,1-2.64.99-5.28,1.97-7.93,2.95-.07.03-.15.08-.23.07-.71-.05-1.22.38-1.75.75-.22.15-.44.29-.66.44-.31.21-.53.48-.76.79-.83,1.12-1.79,2.11-3.35,2.09-2.45-.04-4.25-2.61-3.42-4.85.17-.45.42-.84.77-1.16.45-.42.81-.97,1.45-1.18.08-.03.15-.14.2-.22.4-.6.8-1.2,1.2-1.8.06-.09.15-.21.13-.31-.09-.8.34-1.46.59-2.16.84-2.29,1.73-4.57,2.58-6.86.13-.36.32-.52.7-.48.4.04.8.03,1.2.04.59.03.95.37.99.97.02.29.01.57.03.86.01.27.13.41.43.4.34-.02.69-.03,1.02.05.45.12.65.34.72.8.06.35.06.71.04,1.06-.02.28.1.36.36.34.26-.02.53,0,.79,0,.69.01,1.06.38,1.07,1.06,0,.24.03.48,0,.72-.05.35.14.41.41.42.32.01.64,0,.96.04.56.08.82.37.86.94.02.32.03.64.03.96,0,.19.07.27.26.28.32.01.64.04.96.05.61.03.97.38.99.99,0,.22,0,.43,0,.65,0,0,0,0,.01,0Zm-9.5-8.81c0-.27.01-.48,0-.68-.03-.38-.18-.52-.57-.54-.26,0-.53,0-.79-.02-.3-.03-.46.09-.56.37-.98,2.62-1.96,5.23-2.96,7.84-.15.39-.07.67.22.95.35.32.35.33.59-.09,1.14-1.99,2.29-3.98,3.41-5.98.33-.59.89-1.12.66-1.85Zm7.79,7.7c-.43-.09-.88.04-1.32.3-1.03.61-2.08,1.19-3.12,1.79-1.16.66-2.31,1.33-3.46,2.01-.38.22-.37.32-.06.61.26.25.53.29.87.16,2.53-.96,5.06-1.9,7.6-2.84.66-.25.65-.24.66-.92,0-1.09-.02-1.09-1.16-1.1Zm-5.5-5.31c-.03-.39-.05-.68-.07-.96,0-.12-.04-.22-.14-.3-.21-.18-1.43-.21-1.62-.02-.09.08-.16.2-.22.3-.1.18-.19.36-.29.54-1.19,2.1-2.39,4.19-3.58,6.28-.26.45-.25.45.13.82q.37.35.69-.04c1.58-1.91,3.16-3.83,4.75-5.73.25-.3.43-.59.35-.88Zm3.3,3.04c-.39-.02-.75-.01-1.09.27-1.89,1.59-3.8,3.16-5.7,4.73-.53.44-.52.43-.01.91.15.14.29.25.51.1.5-.34,1.05-.6,1.58-.9,1.62-.92,3.24-1.85,4.85-2.77q1.09-.62.98-1.86s0-.02,0-.03c-.02-.22-.13-.37-.36-.39-.25-.03-.5-.04-.75-.06Zm-2.23-2.19c-.46-.15-.79.13-1.12.54-1.54,1.9-3.11,3.78-4.67,5.67-.16.2-.29.36-.04.61.35.36.38.38.78.05,1.87-1.55,3.73-3.1,5.62-4.63.41-.33.6-.67.57-1.21-.05-1.01-.02-1.02-1.14-1.03Zm-12.26,9.99c-.01,1.5.85,2.76,2.07,3.19,1.06.37,2.04.27,2.89-.53.13-.12.17-.21.02-.36-1.31-1.29-2.61-2.6-3.91-3.9-.12-.12-.2-.13-.33,0-.46.51-.74,1.09-.75,1.59Zm5.98,1.58c.01-.12-.05-.17-.11-.23-1.27-1.27-2.54-2.54-3.81-3.81-.22-.22-.35-.06-.52.07-.22.18-.08.28.04.41,1.26,1.26,2.52,2.53,3.78,3.79.08.08.15.25.3.14.14-.1.27-.22.31-.37Zm.38-.62c.08-.05.16-.09.24-.14.41-.27.81-.55,1.22-.82.56-.38.56-.37.06-.84-.16-.16-.27-.14-.43,0-.45.39-.9.77-1.35,1.15-.07.07-.24.13-.15.26.1.15.22.32.41.39Zm-1.98-5.21c0-.09-.5-.63-.58-.63-.07,0-.1.04-.13.09-.39.58-.79,1.15-1.15,1.74-.14.23.14.32.26.45.12.13.2.02.27-.06.41-.48.81-.95,1.22-1.43.04-.05.08-.11.11-.15Zm1.1,4.32c.05-.04.11-.07.16-.11.47-.4.93-.8,1.4-1.2.16-.14.2-.27.02-.42-.15-.13-.28-.38-.52-.13-.44.45-.89.89-1.33,1.34-.06.06-.17.13-.07.23.1.1.15.26.33.3Zm-.12-3.49c-.16-.14-.3-.29-.47-.39-.14-.09-.19.09-.25.16-.4.45-.78.92-1.18,1.37-.15.17-.12.27.03.42.17.16.27.09.39-.04.42-.43.85-.86,1.28-1.28.05-.05.1-.12.2-.25Zm.84.95c-.06-.14-.17-.24-.29-.32-.13-.1-.21.04-.28.11-.44.43-.87.88-1.31,1.3-.18.17-.09.27.04.38.12.11.21.28.41.08.43-.44.87-.87,1.3-1.31.06-.06.13-.13.14-.24Z"/></svg>