<?xml version="1.0" encoding="UTF-8"?><svg id="Layer_1" xmlns="http://www.w3.org/2000/svg" viewBox="0 0 50 50"><defs><style>.cls-1{fill:#ee8162;}</style></defs><path class="cls-1" d="m41.46,17.68c0,1.14-.39,2.13-1.29,2.86-.38.31-.48.61-.37,1.08.58,2.32.5,4.65-.04,6.96-.08.33,0,.46.23.67,1.54,1.34,1.93,3.28,1.01,4.86-1.02,1.75-2.77,2.39-4.81,1.7-.37-.12-.56-.01-.78.21-1.72,1.68-3.75,2.81-6.03,3.5-.32.1-.53.23-.61.65-.37,1.97-1.85,3.21-3.77,3.26-1.79.04-3.41-1.26-3.77-3.14-.09-.48-.28-.66-.68-.78-2.26-.67-4.25-1.83-5.95-3.46-.37-.36-.65-.27-1.04-.15-1.82.57-3.6-.1-4.52-1.69-.94-1.62-.63-3.54.81-4.83.34-.3.44-.57.33-1.01-.56-2.26-.52-4.53,0-6.79.09-.41.06-.67-.3-.99-1.46-1.28-1.77-3.2-.85-4.83.89-1.57,2.67-2.27,4.51-1.73.44.13.75.18,1.13-.18,1.65-1.6,3.61-2.69,5.8-3.38.48-.15.7-.35.79-.9.27-1.7,1.93-2.99,3.68-3.01,1.91-.01,3.52,1.2,3.83,3.04.1.57.33.74.8.89,2.11.64,3.98,1.71,5.6,3.19.46.43.82.5,1.43.33,2.5-.73,4.89,1.1,4.89,3.67Zm-30.77,7.37c-.06.68.09,1.45.16,2.23.08.86.26,1.32,1.32,1.21,1.57-.16,2.83.56,3.56,1.98.74,1.44.6,2.87-.37,4.16-.32.43-.36.66.06,1.02,1.55,1.33,3.27,2.34,5.21,2.98.46.15.59.02.76-.41.61-1.57,2.05-2.53,3.62-2.51,1.57.02,2.98,1.01,3.57,2.58.15.41.28.5.71.35,1.97-.67,3.73-1.66,5.29-3.03.33-.29.43-.49.12-.88-1.12-1.39-1.23-2.92-.34-4.46.87-1.5,2.26-2.01,3.93-1.78.5.07.58-.07.68-.51.45-1.94.39-3.88.09-5.82-.09-.59-.29-.95-1-.67-.3.12-.65.05-.98-.02-3.05-.63-4.26-3.74-2.4-6.23.27-.37.31-.55-.05-.87-1.53-1.35-3.24-2.38-5.19-3-.39-.12-.65-.2-.84.3-.63,1.63-1.82,2.49-3.58,2.52-1.79.03-2.93-.93-3.62-2.48-.2-.44-.4-.49-.83-.35-1.85.61-3.5,1.58-4.99,2.83-.47.39-.58.66-.16,1.22,1.02,1.36,1.1,2.87.2,4.3-.89,1.42-2.27,2.03-3.95,1.76-.45-.07-.55.03-.64.45-.21,1-.37,2.01-.32,3.14Zm1.66,4.3c-1.75,0-2.96,1.26-2.94,3.04.01,1.57,1.3,2.84,2.88,2.85,1.74,0,3-1.27,2.98-3.02-.01-1.67-1.24-2.87-2.92-2.86Zm15.57-18.94c0-1.76-1.19-2.96-2.94-2.96-1.69,0-2.92,1.26-2.91,2.99,0,1.66,1.24,2.86,2.94,2.87,1.65.01,2.92-1.25,2.92-2.9Zm-.01,29.25c0-1.73-1.23-3.04-2.86-3.06-1.63-.01-2.97,1.27-2.98,2.85-.02,1.77,1.23,3.1,2.92,3.11,1.59.01,2.93-1.32,2.93-2.91Zm12.66-7.34c0-1.73-1.22-2.97-2.94-2.97-1.65,0-2.91,1.23-2.94,2.89-.03,1.63,1.25,2.97,2.86,3,1.69.03,3.02-1.25,3.02-2.92Zm-25.28-14.62c.04-1.66-1.24-2.97-2.93-3-1.56-.03-2.91,1.26-2.94,2.81-.04,1.78,1.18,3.12,2.87,3.17,1.6.05,2.96-1.3,3-2.97Zm25.28.04c0-1.77-1.25-3.05-2.97-3.04-1.6,0-2.9,1.34-2.89,2.95.01,1.68,1.3,3,2.93,3.02,1.54.02,2.92-1.37,2.93-2.93Z"/><path class="cls-1" d="m31.86,27.88c0,1.18-.02,2.35.01,3.52.01.48-.07.7-.63.69-1.51-.03-3.01-.03-4.52,0-.53.01-.66-.19-.65-.68.03-.87-.02-1.75.02-2.62.02-.53-.18-.68-.68-.67-1.82.05-1.48-.17-1.52,1.46-.01.63-.04,1.27,0,1.9.03.49-.15.62-.62.61-1.51-.02-3.01-.02-4.52,0-.52,0-.66-.18-.65-.68.02-2.41.02-4.82,0-7.23,0-.47.21-.74.53-.97,1.08-.8,1.49-1.81,1.35-3.18-.13-1.32-.01-1.43,1.25-1.3,1.4.14,2.46-.25,3.26-1.39.32-.46.58-.44.98-.03,1.96,2,3.94,3.98,5.94,5.94.33.32.47.64.46,1.1-.03,1.17-.01,2.35-.01,3.52h0Zm-.89-.36c0-.87-.04-1.75.01-2.62.03-.59-.16-1.01-.58-1.42-1.65-1.62-3.29-3.27-4.9-4.93-.37-.38-.59-.43-.99-.01-1.69,1.76-3.42,3.48-5.15,5.2-.26.26-.36.52-.35.87,0,1.99.01,3.98,0,5.97,0,.46.13.65.61.63.93-.03,1.87-.03,2.8,0,.48.02.63-.15.61-.62-.03-.9,0-1.81-.01-2.71,0-.45.11-.66.61-.64.9.03,1.81.03,2.71,0,.54-.02.66.21.65.7-.03.87.02,1.75-.02,2.62-.02.53.18.68.67.66.9-.03,1.81-.04,2.71,0,.55.02.65-.22.64-.7-.03-.99,0-1.99,0-2.98Zm-10.02-6.63c.46-.49.79-.83,1.16-1.22q-1.28-.14-1.16,1.22Z"/><path class="cls-1" d="m12.36,34.46c-1.3,0-2.21-.91-2.2-2.21,0-1.2.95-2.14,2.17-2.15,1.27,0,2.18.92,2.18,2.22,0,1.28-.86,2.13-2.15,2.13Zm.03-.84c.72-.02,1.28-.62,1.28-1.36,0-.78-.61-1.33-1.41-1.29-.74.04-1.26.62-1.22,1.38.03.76.6,1.29,1.35,1.26Z"/><path class="cls-1" d="m25.06,8.19c1.25.02,2.16,1.01,2.12,2.3-.03,1.21-1.01,2.11-2.26,2.07-1.22-.03-2.15-.99-2.13-2.21.02-1.27.98-2.19,2.27-2.16Zm1.23,2.16c0-.79-.5-1.27-1.3-1.27-.75,0-1.3.53-1.31,1.28-.02.78.57,1.35,1.36,1.33.76-.02,1.25-.54,1.25-1.34Z"/><path class="cls-1" d="m22.81,39.52c.03-1.19,1.03-2.19,2.2-2.17,1.25.02,2.2,1.06,2.16,2.38-.03,1.13-1.05,2.11-2.18,2.1-1.2-.02-2.21-1.08-2.18-2.31Zm.89.1c0,.73.59,1.32,1.31,1.33.68,0,1.29-.62,1.29-1.34,0-.8-.58-1.39-1.35-1.36-.71.03-1.26.62-1.25,1.37Z"/><path class="cls-1" d="m37.7,30.1c1.2,0,2.13.96,2.13,2.19,0,1.27-.96,2.2-2.25,2.17-1.23-.02-2.13-.96-2.14-2.21,0-1.26.95-2.17,2.26-2.16Zm1.24,2.21c.01-.78-.49-1.31-1.26-1.34-.76-.02-1.34.5-1.37,1.24-.03.78.55,1.4,1.32,1.41.73,0,1.3-.57,1.31-1.31Z"/><path class="cls-1" d="m14.51,17.7c0,1.26-.88,2.2-2.13,2.23-1.15.03-2.21-1-2.23-2.17-.02-1.28.93-2.31,2.15-2.32,1.25-.01,2.2.96,2.2,2.25Zm-3.48,0c0,.7.62,1.35,1.3,1.35.73,0,1.33-.64,1.32-1.43,0-.73-.52-1.25-1.25-1.28-.77-.03-1.37.56-1.37,1.36Z"/><path class="cls-1" d="m39.83,17.67c0,1.2-.94,2.21-2.12,2.26-1.15.04-2.27-1.05-2.3-2.23-.02-1.15,1.01-2.22,2.16-2.25,1.22-.03,2.25.99,2.25,2.22Zm-2.22-1.33c-.7,0-1.31.63-1.3,1.35,0,.74.68,1.39,1.4,1.36.69-.03,1.26-.67,1.24-1.4-.02-.72-.62-1.31-1.34-1.31Z"/></svg>