<?xml version="1.0" encoding="UTF-8"?><svg id="Layer_1" xmlns="http://www.w3.org/2000/svg" viewBox="0 0 50 50"><defs><style>.cls-1{fill:#ee8162;}</style></defs><path class="cls-1" d="m30.4,28.68c4.19,0,8.37,0,12.56,0,.59,0,.62-.01.61-.6-.01-1.22.19-1.08-1.1-1.08-3.09,0-6.19,0-9.28,0-.12,0-.25,0-.37-.02-.18-.04-.26-.16-.23-.35.02-.16.11-.25.28-.25.11,0,.22,0,.33,0,1.31,0,2.62-.01,3.94,0,.33,0,.43-.11.43-.43,0-.89.39-1.26,1.28-1.26.44,0,.88-.01,1.31,0,.7.03,1.1.43,1.06,1.12-.03.46.11.6.56.57.51-.04,1.03.03,1.54-.02.55-.05.88.36.89.81.02.45.02.91,0,1.36-.03.51-.28.74-.8.75-.61.01-1.22.02-1.83,0-.3-.01-.39.1-.36.37.01.12.02.25,0,.37-.04.31.1.36.38.35.61-.02,1.22-.01,1.83,0,.49.01.77.29.79.77.02.44.01.87,0,1.31,0,.48-.36.9-.88.85-.57-.06-1.16.02-1.73-.02-.48-.03-.38.28-.38.54,0,.25-.08.52.37.51,1.08-.03,2.16.03,3.23-.03.76-.04,1.44.76,1.45,1.41,0,.47,0,.94,0,1.4.01.39-.16.53-.53.53-.91,0-1.81.01-2.72,0-.36,0-.51.09-.5.49.03,1.37.02,2.75,0,4.12,0,.31.08.4.39.4.7-.02,1.41,0,2.11,0,.26,0,.5.02.5.33,0,.29-.22.35-.49.35-1.78,0-3.56,0-5.34,0-2.2,0-4.41,0-6.61,0-.27,0-.5-.05-.51-.34-.01-.3.22-.35.49-.34,2.14,0,4.28,0,6.42.01.36,0,.47-.1.44-.45-.03-.26.01-.53,0-.8-.02-.24.04-.39.31-.39.26,0,.35.16.35.4,0,.31.01.62,0,.94,0,.22.08.28.3.3,1.03.06,1.03.06,1.03-.97,0-1.2-.01-2.4,0-3.6,0-.32-.08-.43-.41-.44-.92-.03-.92-.04-.92.85,0,.44-.01.87,0,1.31,0,.27-.05.49-.35.49-.29,0-.31-.22-.3-.46.01-.61,0-1.22,0-1.83,0-.27-.05-.37-.36-.37-6.12.01-12.25.01-18.37.02-.7,0-.62-.12-.63.62-.02,1.25,0,2.5,0,3.75,0,.63,0,.63.62.63,2.02,0,4.03,0,6.05,0,.12,0,.25,0,.37,0,.18.01.29.11.32.29.02.19-.11.3-.26.34-.13.04-.28.03-.42.03-2.12,0-4.25,0-6.37,0-1.34,0-2.67,0-4.01,0-.11,0-.22.01-.33-.01-.18-.04-.32-.15-.3-.35.02-.19.14-.3.35-.3.31,0,.63-.01.94,0,.28.02.39-.07.39-.36-.01-1.42-.02-2.84,0-4.26,0-.34-.15-.39-.42-.38-.8,0-1.59,0-2.39,0-.33,0-.52-.09-.49-.47.03-.54,0-1.09.02-1.64.02-.69.57-1.21,1.26-1.21.98,0,1.97-.02,2.95,0,.47.02.39-.27.39-.54,0-.26.06-.54-.38-.5-.47.04-.94,0-1.41,0-.53,0-.85-.29-.86-.82-.02-.44-.02-.87,0-1.31.02-.48.31-.77.8-.79.48-.02.97-.02,1.45,0,.3.01.44-.08.4-.39-.01-.11-.02-.22,0-.33.05-.33-.11-.39-.4-.38-.48.02-.97,0-1.45,0-.47-.01-.77-.28-.79-.74-.02-.47-.03-.94,0-1.4.03-.48.35-.76.82-.77.5,0,1-.01,1.5,0,.24,0,.32-.07.33-.32.05-1.11.33-1.37,1.44-1.37.37,0,.75,0,1.12,0,.64-.02,1.19.5,1.07,1.1-.09.46.08.66.57.59.26-.04.53,0,.8,0,.19,0,.3.07.32.26.02.21-.1.33-.29.35-.15.02-.31.01-.47.01-2,0-4,.01-6,0-.4,0-.52.15-.52.51,0,1.42-.11,1.17,1.1,1.18,4.01,0,8.03,0,12.04,0Zm-.02,8.36c4.73,0,9.46,0,14.19,0,.97,0,.95,0,.97-.99.02-.73-.22-1.07-1.08-1.07-9.24.01-18.49.02-27.73,0-1.6,0-1.52.41-1.54,1.55,0,.4.09.52.52.52,4.89-.02,9.77-.01,14.66-.01Zm.04-4.38c4.01,0,8.03,0,12.04,0,1.11,0,1.08,0,1.11-1.11.01-.47-.17-.58-.6-.58-8.23,0-16.46,0-24.69,0q-1.05,0-1.04,1.05c0,.62,0,.62.62.62,4.19,0,8.37,0,12.56,0Zm-.27-2.28h0c2.31,0,4.62-.01,6.93,0,.45,0,.48-.2.46-.53-.01-.29.07-.58-.42-.57-4.62.01-9.24.01-13.87,0-.64,0-.36.43-.41.71-.07.34.1.41.42.41,2.3-.01,4.59,0,6.89,0Zm.06,2.93h0c-2.29,0-4.59.01-6.88-.02-.46,0-.49.18-.49.54,0,.36.05.51.47.51,4.59-.02,9.17-.02,13.76,0,.42,0,.48-.15.48-.51,0-.38-.07-.54-.51-.54-2.28.02-4.56.01-6.83.01Zm-11.61,6.85c0,.53,0,1.06,0,1.59,0,.94,0,.93.94.93.31,0,.4-.1.4-.4-.01-1.25,0-2.49,0-3.74,0-.97.18-.85-.91-.87-.34,0-.42.13-.42.43.01.69,0,1.37,0,2.06Zm20.79-9.78h0c.28,0,.56,0,.84,0,.25.01.34-.1.33-.33,0-.17,0-.34,0-.51,0-.17-.08-.25-.26-.25-.61,0-1.22,0-1.83,0-.12,0-.19.05-.23.18-.18.64.02.91.68.91.16,0,.31,0,.47,0Zm-18.32-1.09c-.14,0-.28,0-.42,0-.82.01-.69-.11-.72.72-.01.28.08.39.37.38.47-.02.93-.04,1.4,0,.45.04.53-.13.54-.55,0-.44-.09-.63-.56-.57-.2.03-.4,0-.6,0Zm18.34,5.05c.16,0,.31,0,.47,0,.73,0,.75-.03.68-.76-.02-.2-.08-.27-.28-.27-.59,0-1.18,0-1.78,0-.11,0-.2,0-.24.15-.19.61,0,.88.64.88.17,0,.34,0,.51,0Zm-.01-7.97c.23,0,.47,0,.7,0,.27.01.5.02.47-.37-.02-.35-.04-.66-.51-.66-.45,0-.9,0-1.35,0-.48-.01-.44.33-.46.64-.03.35.16.42.46.39.23-.02.47,0,.7,0Zm-18.33,7.97c.28,0,.56,0,.84,0,.48,0,.27-.35.3-.57.02-.22.09-.48-.31-.46-.5.02-1,.03-1.49,0-.37-.02-.46.09-.48.46-.02.47.11.66.59.58.18-.03.37,0,.56,0Zm0-7.96c.23,0,.47-.01.7,0,.28.02.49,0,.46-.38-.03-.33,0-.68-.5-.65-.4.02-.81.03-1.21,0-.46-.03-.57.17-.59.6-.03.53.28.44.58.43.19,0,.37,0,.56,0Z"/><path class="cls-1" d="m10.28,22.19c.26.54.51,1.04.76,1.55.5,1.04.9,2.11,1.24,3.22.27.87.5,1.75.63,2.66.19,1.34.37,2.68.37,4.04,0,1.53,0,3.06,0,4.59,0,.33.09.43.42.42.8-.02,1.59,0,2.39-.01.3,0,.46.1.47.38,0,.28-.22.35-.45.35-2.23,0-4.47,0-6.7,0-.24,0-.47-.08-.48-.33,0-.3.22-.39.51-.39.91.01,1.81,0,2.72.01.29,0,.41-.05.41-.38-.01-2.14.03-4.28-.03-6.41-.03-.95-.23-1.9-.42-2.85-.21-1.05-.52-2.06-.87-3.07-.33-.98-.83-1.88-1.24-2.82-.32-.75-.87-1.02-1.56-1.27-.53-.19-.96-.61-1.25-1.13-.1-.18-.2-.23-.44-.19-1.92.3-3.33-1.25-2.98-3.1.15-.77.64-1.42,1.42-1.73.41-.16.68-.4.7-.86.01-.3.17-.52.46-.42.23.07.31.33.17.58-.04.08-.09.18-.07.26.14.63-.23.82-.75.95-.92.24-1.45,1.24-1.3,2,.21,1.07.8,1.62,1.89,1.73.24.02.48.01.36-.38-.07-.21-.02-.46-.03-.7,0-.2.07-.34.28-.35.21-.01.29.11.32.32.1.77.35,1.47.96,2,.7.61,1.5.84,2.39.62.83-.2,1.44-.72,1.82-1.49.11-.21.14-.44.17-.67.02-.17.06-.38.31-.41.21-.03.32.07.45.25,1.08,1.56,3.22,1.55,4.31-.01.12-.17.25-.26.46-.24.24.02.21.2.27.36.27.75.8,1.21,1.61,1.33.67.1,1.55-.25,1.85-.82.18-.35.42-.37.73-.28.82.22,1.33.04,1.8-.64.29-.43.23-1.25-.19-1.73-.37-.42-.87-.55-1.43-.46-.14.02-.28.03-.37-.12-.09-.14-.03-.26.02-.4.06-.16.19-.12.31-.14.27-.05.64.16.78-.11.18-.35.05-.78-.13-1.12-.6-1.1-1.89-1.5-2.9-.7-.23.18-.49.2-.72.01-.76-.58-1.53-.57-2.32-.05-.34.22-.57.11-.62-.3-.06-.48-.57-1.01-1.07-1.11-.49-.09-1.03.16-1.28.6-.13.21-.28.41-.27.68,0,.37-.21.4-.5.29-.72-.28-1.41-.26-2.07.19-.08.06-.12.13-.18.2-.3.34-.46.3-.73-.09-.45-.65-1.06-1.08-1.88-1.12-.26-.01-.45-.09-.43-.36.02-.28.27-.3.5-.29.82.04,1.5.42,2.06.99.12.12.2.21.33.09.59-.5,1.29-.46,1.99-.43.21,0,.3-.02.41-.23.41-.8,1.04-1.27,2.01-1.19.68.06,1.15.39,1.5.94.14.21.2.34.55.23.68-.2,1.4-.24,2.05.21.17.11.36.12.56,0,1.22-.73,2.88-.22,3.54.95.26.46.37.95.3,1.47-.05.33.08.56.32.76.77.65.97,1.6.51,2.6-.35.76-1.46,1.33-2.32,1.15-.25-.05-.38.02-.52.17-.31.31-.65.59-1.09.68-.43.08-.59.41-.76.73-.61,1.13-1.25,2.25-1.7,3.47-.07.2-.23.42-.5.29-.21-.11-.26-.3-.16-.56.46-1.13,1.03-2.2,1.63-3.26.09-.15.3-.37.12-.52-.22-.17-.5-.21-.76.08-.93,1.05-1.89,2.07-2.84,3.1-.12.13-.23.28-.43.23-.22-.06-.3-.25-.32-.47-.09-.95-.18-1.89-.18-2.85,0-.35-.51-.71-.83-.6-.19.07-.11.24-.11.36,0,1.08,0,2.15,0,3.23,0,.25.05.56-.22.66-.3.11-.47-.19-.62-.4-.59-.82-1.17-1.65-1.74-2.49-.15-.22-.29-.3-.52-.12-.23.18-.53.15-.85.19Zm5.75,1.32c.82-.89,1.57-1.69,2.31-2.52.09-.1.36-.19.13-.4-.18-.17-.36-.33-.47-.56-.05-.09-.14-.12-.23-.03-.45.5-1.05.72-1.69.86-.21.05-.27.17-.25.37.07.73.12,1.45.19,2.27Zm-2.44,0c0-.4,0-.8,0-1.2,0-.59,0-1.18,0-1.78,0-.29-.27-.34-.42-.5-.05-.06-.13.03-.15.12-.13.48-.47.82-.8,1.16-.13.13-.17.19-.04.36.36.47.66.97,1.01,1.44.1.13.08.39.39.39Z"/><path class="cls-1" d="m37.59,12.33c-.89-.06-1.99.14-3.07-.1-1.08-.25-1.95-1.66-1.42-2.69.36-.7.48-1.38.44-2.12,0-.11,0-.22,0-.33-.01-.25.14-.42.34-.44.22-.02.36.19.38.4.02.26,0,.53,0,.8,0,.18.01.29.27.21.26-.08.55-.12.83-.06.18.04.24-.08.34-.18,1.31-1.36,3.21-1.19,4.27.34.13.18.26.34.55.34.93-.02,2.03,1.09,1.81,2.23-.19.97-.9,1.58-1.92,1.59-.87,0-1.75,0-2.82,0Zm.15-.65c.92,0,1.84.02,2.76,0,.78-.02,1.25-.74,1.19-1.37-.06-.69-.84-1.24-1.51-1.08-.29.07-.44.01-.56-.3-.49-1.26-2.05-1.69-3.06-.91-.45.35-.76.76-1.51.66-.74-.1-1.51.9-1.4,1.56.13.83.57,1.46,1.65,1.45.81,0,1.62,0,2.44,0Z"/><path class="cls-1" d="m33.87,16.54c1.5.17,3.03-1.47,2.87-2.81-.02-.15,0-.31,0-.47,0-.21.1-.33.29-.37.21-.04.31.12.37.29.08.24.1.49.07.74-.2,1.31-.79,2.36-2.03,2.97-1.88.92-4.08-.09-4.82-1.86-.61-1.46-.02-3.46,1.25-4.25.19-.12.37-.24.52-.05.14.17.13.4-.09.57-.4.31-.74.65-.97,1.13-.6,1.25-.27,2.69.79,3.53.52.41,1.11.67,1.76.59Z"/><path class="cls-1" d="m28.38,26.37c.92,0,1.84,0,2.76,0,.23,0,.41.03.42.31,0,.29-.21.32-.42.32-1.82,0-3.65,0-5.47,0-.2,0-.4-.02-.4-.32,0-.32.18-.29.39-.29.9,0,1.81,0,2.71,0,0,0,0,0,0,0Z"/><path class="cls-1" d="m33.55,20.19c0-.56.01-1.12,0-1.68,0-.26.08-.45.34-.46.25-.01.39.17.39.42,0,1.15,0,2.31,0,3.46,0,.24-.15.4-.37.4-.23,0-.35-.17-.35-.41,0-.58,0-1.15,0-1.73Z"/><path class="cls-1" d="m40.01,19.41c0,.15-.01.26-.13.31-.17.08-.36.07-.48-.05-.8-.8-1.6-1.6-2.39-2.42-.15-.16-.2-.35,0-.53.19-.17.33-.06.48.08.79.79,1.59,1.57,2.38,2.36.08.08.14.16.14.25Z"/><path class="cls-1" d="m27.75,13.36c.47,0,.94,0,1.4,0,.2,0,.37,0,.37.28,0,.23-.09.37-.32.37-.98,0-1.97,0-2.95,0-.23,0-.35-.18-.35-.36,0-.2.17-.3.4-.3.48,0,.97,0,1.45,0Z"/><path class="cls-1" d="m30.31,42.67c.41,0,.81,0,1.22,0,.25,0,.41.14.4.35,0,.19-.19.31-.4.31-.86,0-1.71,0-2.57,0-.22,0-.37-.13-.37-.34,0-.21.15-.33.37-.33.45,0,.9,0,1.36,0Z"/><path class="cls-1" d="m6.55,38.64c.33,0,.65.01.98,0,.28-.01.36.19.38.38.02.18-.15.33-.32.33-.67.02-1.34.02-2,0-.2,0-.36-.15-.32-.37.03-.18.1-.35.36-.33.31.02.62,0,.93,0Z"/><path class="cls-1" d="m30.82,16.97c.02.14-.07.23-.16.31-.39.38-.77.77-1.15,1.16-.16.17-.34.24-.53.09-.19-.16-.14-.33.02-.51.4-.47.84-.9,1.31-1.3.12-.1.21-.12.33-.05.12.06.19.16.17.3Z"/><path class="cls-1" d="m30.82,10.25c.03.18-.05.29-.18.36-.13.07-.22.02-.32-.08-.43-.44-.87-.86-1.29-1.29-.14-.15-.27-.3-.06-.52.21-.21.36-.1.51.05.41.4.81.81,1.22,1.22.08.08.17.15.13.26Z"/><path class="cls-1" d="m39.37,13.36c.28,0,.56,0,.84,0,.21,0,.34.12.34.3,0,.18-.14.33-.32.34-.56.02-1.12.01-1.68,0-.21,0-.31-.16-.3-.35,0-.18.1-.31.33-.3.26.02.53,0,.79,0h0Z"/><path class="cls-1" d="m6.84,14.1c-.26-.08-.32-.33-.19-.53.21-.33.56-.52.95-.57.21-.02.33.15.28.37-.03.14-.87.74-1.04.72Z"/></svg>