<?xml version="1.0" encoding="UTF-8"?><svg id="Layer_1" xmlns="http://www.w3.org/2000/svg" viewBox="0 0 50 50"><defs><style>.cls-1{fill:#ee8162;}</style></defs><path class="cls-1" d="m40.45,39.52c.16.08.27.05.38.06.88,0,1.76,0,2.63,0,.4,0,.52.12.53.52.03.7,0,1.4-.29,2.06-.22.47-.51.9-.88,1.27-.33.33-.71.6-1.12.8-.57.27-1.19.36-1.82.36-4.81,0-9.61,0-14.42,0-5.08,0-10.16,0-15.25,0-.85,0-1.65-.16-2.35-.65-.74-.51-1.29-1.17-1.59-2.04-.2-.59-.27-1.18-.26-1.79,0-.33.2-.53.53-.53.47,0,.94,0,1.41,0,.21,0,.28-.05.28-.28,0-2.13,0-4.25,0-6.38,0-5.1,0-10.2,0-15.3,0-.61.36-1.03.83-1.35.35-.24.75-.32,1.18-.3.52.03,1.03,0,1.55.01.21,0,.29-.04.29-.27-.01-.54,0-1.09,0-1.64,0-.15-.05-.21-.19-.25-.69-.17-1.24-.55-1.61-1.16-.23-.39-.37-.82-.4-1.27-.08-.98.12-1.91.51-2.81.31-.72.67-1.4,1.1-2.05.2-.3.39-.59.6-.88.23-.31.55-.34.76-.03.44.62.87,1.25,1.23,1.92.28.53.55,1.06.71,1.62.29.98.5,1.97.09,2.99-.32.79-.81,1.36-1.64,1.6-.24.07-.35.17-.34.45.03.51.02,1.02,0,1.52,0,.18.04.24.23.23.57-.01,1.15.02,1.72,0,1.05-.05,1.94.92,1.93,1.93,0,3.49,0,6.99,0,10.48,0,3.62,0,7.24,0,10.87,0,.27.08.34.34.33.61-.02,1.22,0,1.83,0,.09,0,.18-.01.33-.02-1.2-1.09-1.64-2.41-1.3-3.91.34-1.49,1.33-2.44,2.82-2.89-.18-.2-.35-.36-.49-.55-.74-1.01-.98-2.09-.51-3.3.3-.78.82-1.36,1.52-1.78.43-.26.93-.39,1.44-.39,1.02,0,2.03,0,3.05,0,.13,0,.25,0,.4-.05-.17-.13-.34-.25-.51-.38-.61-.46-1.06-1.07-1.39-1.75-.46-.95-.67-1.98-.63-3.04.02-.45.12-.53.57-.55,1.02-.04,1.98.23,2.91.6.13.05.23.22.36.16.14-.06.03-.26.08-.38.14-.36.24-.73.41-1.08.34-.72.8-1.36,1.36-1.93.36-.36.63-.34.97.04.27.3.55.6.76.94.41.63.8,1.28.92,2.05.01.08.04.16.06.24.03.14.08.15.21.08,1.04-.53,2.15-.78,3.32-.73.31.02.36.25.38.48.04.35-.04.7-.06,1.05-.04.75-.29,1.44-.61,2.1-.25.51-.58.98-1,1.38-.27.25-.55.5-.87.68.03.11.11.07.16.07,1.03,0,2.05.01,3.08,0,.95-.01,1.77.32,2.42.98.67.68,1,1.5.97,2.48-.03.98-.4,1.77-1.11,2.43-.18.17-.02.19.1.22.67.18,1.21.56,1.67,1.05.84.91,1.14,1.98,1,3.21-.09.79-.44,1.42-.91,2.02-.11.15-.27.26-.43.4Zm-31.4-10.99c0,3.58,0,7.17,0,10.75,0,.22.04.3.28.3,2.12,0,4.23,0,6.35,0,.21,0,.26-.06.26-.26,0-7.13,0-14.26,0-21.4,0-.61-.54-1.12-1.11-1.12-1.57.01-3.14.01-4.71,0-.51,0-1.09.53-1.09,1.08.02,3.55.01,7.1.01,10.64Zm15.94,11.9h0c-5.39,0-10.77,0-16.16,0-.59,0-1.18,0-1.77,0-.12,0-.21,0-.2.18.04.67.24,1.29.64,1.82.64.84,1.48,1.29,2.57,1.29,10.07-.01,20.14,0,30.22,0,.25,0,.47-.05.7-.14.55-.21,1.04-.51,1.42-.97.44-.53.7-1.13.76-1.82.02-.27-.05-.35-.34-.35-5.94,0-11.88,0-17.83,0Zm4.64-.85h0c1.69,0,3.38,0,5.07,0,1.09,0,2.18-.01,3.27,0,.72,0,1.34-.23,1.89-.69.65-.55,1.04-1.23,1.09-2.11.03-.61-.05-1.19-.36-1.73-.5-.87-1.27-1.35-2.24-1.54-.15-.03-.21,0-.2.16.02.37.03.73,0,1.1-.04.65-.31,1.2-.65,1.72-.33.51-.79.92-1.33,1.2-.43.23-.88.45-1.37.45-3.93.01-7.86,0-11.78.01-.72,0-1.41-.73-1.49-1.36-.15-1.06.66-1.91,1.68-1.92,1.31-.01,2.62,0,3.94,0,.06,0,.11,0,.17,0,.35.05.52.43.31.71-.12.16-.31.16-.5.16-1.29,0-2.59.01-3.88,0-.52,0-.88.45-.88.81,0,.41.41.76.88.76,3.73,0,7.47,0,11.2,0,.96,0,1.71-.47,2.29-1.2.54-.68.68-1.48.6-2.34-.02-.21-.1-.31-.34-.31-1.09.02-2.18,0-3.27,0-3.94,0-7.87,0-11.81,0-.49,0-.97.09-1.39.3-.71.35-1.24.89-1.54,1.66-.43,1.07-.22,2.05.39,2.94.35.51.87.85,1.47,1.06.41.15.84.13,1.26.13,2.51.01,5.03,0,7.54,0Zm.23-6.96h0c2.4,0,4.8,0,7.21,0,.14,0,.28-.02.41-.07.86-.31,1.48-.88,1.72-1.77.24-.87.05-1.67-.55-2.36-.33-.37-.74-.62-1.21-.77-.33-.11-.41-.06-.38.27.06.8-.15,1.53-.59,2.16-.64.92-1.55,1.46-2.7,1.47-3.2,0-6.39,0-9.59,0-.29,0-.57-.04-.83-.23-.49-.34-.78-1.05-.61-1.57.19-.6.6-1.08,1.32-1.09,1.21-.02,2.42,0,3.63,0,.14,0,.28.04.35.18.07.12.14.26.04.39-.11.16-.24.29-.47.29-1.11,0-2.22,0-3.33,0-.2,0-.41-.02-.57.19-.16.2-.23.41-.12.64.12.25.32.35.62.35,3.25-.01,6.5-.01,9.76-.01.21,0,.4-.05.58-.13.48-.21.89-.5,1.18-.95.33-.53.54-1.07.45-1.71-.03-.23-.1-.29-.32-.29-4.28,0-8.56,0-12.83,0-.52,0-1.02.1-1.44.4-.44.32-.78.72-.98,1.26-.22.59-.23,1.14,0,1.72.19.47.45.87.88,1.17.39.27.79.49,1.28.49,2.37,0,4.73,0,7.1,0ZM10.71,10.65c0,.99.24,1.6.8,2.08.54.47,1.49.36,1.93.04.38-.27.59-.64.73-1.08.25-.78.06-1.54-.17-2.27-.31-.98-.84-1.86-1.4-2.71-.09-.14-.13-.1-.2.02-.47.73-.93,1.46-1.23,2.28-.23.62-.45,1.24-.45,1.64Zm13.87,11.63c.09.53.24,1.18.52,1.81.34.77.86,1.36,1.54,1.81.76.5,1.63.69,2.52.78.2.02.28,0,.25-.24-.09-.79-.25-1.56-.64-2.28-.44-.81-1.08-1.39-1.88-1.79-.62-.31-1.29-.46-1.98-.54-.34-.04-.34-.04-.34.44Zm6.02,4.41c.15-.02.29-.05.44-.07.92-.13,1.77-.43,2.49-1.04.65-.55,1.07-1.24,1.34-2.06.17-.5.24-1,.29-1.51.01-.1.05-.23-.15-.21-.79.09-1.56.25-2.27.62-.8.42-1.42,1.01-1.84,1.84-.34.69-.51,1.4-.57,2.16-.02.22.05.29.26.25Zm-.72-2.33c.16-.18.2-.43.32-.62.28-.45.58-.87.97-1.23.07-.07.21-.14.18-.29-.06-.32-.07-.64-.18-.94-.24-.7-.6-1.35-1.06-1.93-.11-.13-.23-.28-.42-.05-.25.3-.48.6-.66.94-.3.56-.57,1.14-.61,1.79-.01.2,0,.34.15.49.28.27.52.57.75.89.21.3.31.66.55.95Z"/></svg>