<?xml version="1.0" encoding="UTF-8"?><svg id="Layer_1" xmlns="http://www.w3.org/2000/svg" viewBox="0 0 50 50"><defs><style>.cls-1{fill:#ee8162;}</style></defs><path class="cls-1" d="m23.25,42.29c-.61-.27-1.23-.51-1.83-.8-.82-.41-1.62-.86-2.47-1.18-.65-.24-1.31-.51-2.04-.45-.31.03-.58.08-.83.26-.42.29-.9.14-.96-.28-.03-.22.26-.56.54-.69.92-.42,1.84-.35,2.78-.07.89.26,1.72.65,2.54,1.07.79.4,1.6.77,2.41,1.12.49.21.99.4,1.5.51.31.07.64-.1.95-.22.79-.31,1.59-.61,2.35-.99.63-.32,1.25-.67,1.9-.95,1.01-.43,2.04-.84,3.18-.75.48.04.92.2,1.32.48.24.17.34.55.19.75-.19.25-.5.25-.71.11-.86-.56-1.7-.33-2.57-.04-.85.29-1.65.69-2.45,1.1-.75.39-1.52.74-2.42,1.04.63.16,1.16.35,1.69.41.72.08,1.43.27,2.15.33.91.08,1.81.05,2.72.08,1.06.03,2.1-.1,3.1-.41.86-.27,1.76-.53,2.3-1.36.37-.57.48-1.19.29-1.86-.26-.89-.96-1.32-1.74-1.62-.72-.28-1.46-.46-2.24-.54-.98-.1-1.99.01-2.94-.33-.7-.25-1.17-.77-1.43-1.43-.28-.7-.5-1.44-.66-2.18-.37-1.69-.58-3.41-.39-5.14.1-.96.23-1.91.5-2.84.12-.41.36-.57.66-.48.27.08.38.37.29.74-.34,1.41-.48,2.83-.45,4.28.03,1.02.12,2.01.35,3.01.19.85.39,1.69.76,2.46.25.51.76.74,1.34.78,1.04.08,2.09.03,3.13.27.87.21,1.72.46,2.47.95,1.16.77,1.66,2.01,1.36,3.42-.24,1.11-.96,1.8-1.94,2.28-1.5.72-3.09.98-4.74,1.03-1.41.04-2.81-.1-4.2-.33-1.06-.18-2.09-.4-3.12-.69-.27-.08-.56-.08-.81-.24-.06-.04-.14-.01-.21,0-.48.14-.95.29-1.43.42-1.2.32-2.42.51-3.64.69-1.03.15-2.07.15-3.11.15-.8,0-1.59-.14-2.38-.28-.89-.15-1.73-.42-2.51-.84-1.28-.69-1.99-1.8-1.78-3.39.18-1.4,1.09-2.17,2.34-2.69.79-.33,1.6-.51,2.43-.63.66-.1,1.33-.11,2-.11,1.16-.01,1.58-.56,1.87-1.44.3-.91.55-1.84.68-2.8.16-1.18.17-2.38.12-3.57-.04-.98-.28-1.92-.45-2.88-.05-.3.06-.52.37-.6.32-.09.52.12.59.37.24.92.47,1.85.51,2.8.04,1,.02,2.01,0,3.01,0,.55-.16,1.08-.25,1.62-.16,1.02-.45,2.01-.84,2.96-.24.59-.7,1.03-1.31,1.29-.68.29-1.41.22-2.12.27-.97.06-1.93.15-2.84.48-.64.23-1.29.52-1.73,1.12-.45.62-.53,1.79,0,2.5.4.53.93.8,1.52,1.06.73.32,1.49.47,2.26.6.92.15,1.86.08,2.79.09,1.1,0,2.18-.17,3.27-.34.68-.11,1.33-.36,2.03-.48Z"/><path class="cls-1" d="m25.02,5.83c.82.06,1.61.24,2.35.62.92.48,1.64,1.15,2.17,2.04.87,1.47,1.13,3.01.69,4.69-.36,1.37-1.11,2.44-2.21,3.3,0,0-.01.02-.02.03-.64.45-.58.44-.44,1.21.21,1.14.98,1.71,1.97,2.02.59.18,1.25.13,1.88.19.79.07,1.56.25,2.23.67,1.06.66,1.66,1.66,1.82,2.88.17,1.25.16,2.52.23,3.78.08,1.41.1,2.84.43,4.23.17.7.38,1.38.84,1.97.24.31.54.52.88.68.21.1.34.4.26.65-.09.25-.4.4-.64.29-.68-.3-1.21-.76-1.58-1.42-.72-1.28-.94-2.67-1.06-4.1-.15-1.83-.13-3.68-.32-5.51-.06-.56-.18-1.08-.41-1.57-.18-.37-.47-.68-.82-.91-.89-.59-1.9-.7-2.93-.72-1.3-.03-2.37-.53-3.18-1.54-.4-.5-.6-1.1-.65-1.74-.02-.27-.13-.35-.39-.29-.75.19-1.51.2-2.27,0-.22-.06-.32,0-.36.25-.09.54-.2,1.07-.5,1.55-.41.66-1.01,1.08-1.7,1.42-.84.42-1.74.33-2.63.42-.74.07-1.46.27-2.05.71-.63.47-.93,1.17-1.09,1.93-.12.58-.09,1.16-.13,1.74-.09,1.43-.13,2.86-.23,4.29-.09,1.27-.3,2.5-.82,3.66-.37.82-.97,1.47-1.83,1.83-.2.08-.56-.06-.64-.27-.1-.25,0-.59.23-.68.9-.38,1.26-1.15,1.57-2.01.38-1.06.44-2.17.53-3.26.12-1.34.17-2.69.17-4.05,0-1.08.19-2.14.76-3.07.32-.53.8-.94,1.36-1.24.87-.47,1.82-.58,2.79-.64.67-.04,1.32-.11,1.92-.45.78-.44,1.13-1.14,1.28-1.97.11-.64.22-.49-.45-.92-.45-.29-.86-.68-1.19-1.11-.36-.47-.68-.98-.88-1.55-.37-1.04-.53-2.09-.34-3.19.18-1.05.58-2,1.25-2.82,1.06-1.31,2.46-1.95,4.14-2.03Zm-.01,10.61c.8-.04,1.59-.23,2.28-.7.96-.65,1.58-1.55,1.93-2.67.48-1.53.17-2.91-.64-4.22-.54-.88-1.35-1.45-2.34-1.79-1.1-.38-2.16-.25-3.14.27-1.17.62-1.94,1.61-2.31,2.91-.5,1.76-.13,3.32,1.03,4.7.82.98,1.91,1.43,3.2,1.5Z"/></svg>